<svg width="48" height="48" viewBox="0 0 48 48" fill="none" xmlns="http://www.w3.org/2000/svg">
<path fill-rule="evenodd" clip-rule="evenodd" d="M25.4005 4H25.3913H13.913C10.6474 4 8 6.64736 8 9.91304V38.087C8 41.3526 10.6474 44 13.913 44H33.7391C37.0048 44 39.6522 41.3526 39.6522 38.087V17.913V17.8458L25.4005 4Z" fill="#0175F6"/>
<path fill-rule="evenodd" clip-rule="evenodd" d="M22 34C22 35.1046 22.8954 36 24 36C25.1046 36 26 35.1046 26 34V30H30C31.1046 30 32 29.1046 32 28C32 26.8954 31.1046 26 30 26H26V22C26 20.8954 25.1046 20 24 20C22.8954 20 22 20.8954 22 22V26H18C16.8954 26 16 26.8954 16 28C16 29.1046 16.8954 30 18 30H22V34Z" fill="#97CCFB"/>
<path fill-rule="evenodd" clip-rule="evenodd" d="M25.4005 4H25.3913V14.087C25.3913 16.2 27.1043 17.913 29.2174 17.913H39.6522V17.8458L25.4005 4Z" fill="#97CCFB"/>
</svg>
