<svg width="20" height="20" viewBox="0 0 20 20" fill="none" xmlns="http://www.w3.org/2000/svg">
<path d="M7.91357 10.9161H4.97701L4.50627 12.1853H2.5L5.34689 5H7.56611L10.413 12.1853H8.38431L7.91357 10.9161ZM7.4204 9.565L6.44529 6.93449L5.48138 9.565H7.4204Z" fill="#0C162B" fill-opacity="0.8"/>
<path d="M13.6556 6.39202C14.0964 6.39202 14.4813 6.4739 14.81 6.63767C15.1463 6.80143 15.4041 7.01638 15.5834 7.2825V6.4739H17.5V12.175C17.5 12.7004 17.3842 13.1747 17.1525 13.5977C16.9284 14.0276 16.5809 14.3688 16.1102 14.6213C15.6469 14.8738 15.0678 15 14.3729 15C13.4464 15 12.6954 14.7987 12.1201 14.3961C11.5447 14.0003 11.2159 13.4613 11.1337 12.7789H13.0279C13.0877 12.9973 13.2297 13.1679 13.4538 13.2907C13.678 13.4203 13.9545 13.4852 14.2832 13.4852C14.6793 13.4852 14.9931 13.3794 15.2247 13.1679C15.4638 12.9632 15.5834 12.6322 15.5834 12.175V11.3664C15.3966 11.6325 15.1388 11.8509 14.81 12.0215C14.4813 12.1853 14.0964 12.2671 13.6556 12.2671C13.14 12.2671 12.673 12.1477 12.2546 11.9089C11.8361 11.6633 11.5036 11.3187 11.257 10.8751C11.0179 10.4248 10.8984 9.90618 10.8984 9.31935C10.8984 8.73252 11.0179 8.21733 11.257 7.7738C11.5036 7.33026 11.8361 6.98908 12.2546 6.75026C12.673 6.51143 13.14 6.39202 13.6556 6.39202ZM15.5834 9.32958C15.5834 8.89287 15.4489 8.54828 15.1799 8.2958C14.9184 8.04333 14.5971 7.91709 14.216 7.91709C13.8349 7.91709 13.5099 8.04333 13.2409 8.2958C12.9794 8.54145 12.8486 8.88263 12.8486 9.31935C12.8486 9.75606 12.9794 10.1041 13.2409 10.3634C13.5099 10.6158 13.8349 10.7421 14.216 10.7421C14.5971 10.7421 14.9184 10.6158 15.1799 10.3634C15.4489 10.1109 15.5834 9.76629 15.5834 9.32958Z" fill="#0C162B" fill-opacity="0.8"/>
</svg>
