<svg width="20" height="20" viewBox="0 0 20 20" fill="none" xmlns="http://www.w3.org/2000/svg">
<path fill-rule="evenodd" clip-rule="evenodd" d="M7.27634 3.94123C8.98798 2.01815 11.8224 1.45402 14.1527 2.56405C17.2487 4.03904 18.3782 7.79639 16.6926 10.6947L12.9006 17.2076C12.6887 17.5715 12.34 17.8371 11.9311 17.9459C11.5221 18.0547 11.0864 17.998 10.7196 17.7881L15.3105 9.90158C16.5335 7.79804 15.7155 5.07139 13.4709 3.99783C11.7867 3.19237 9.72777 3.59474 8.48357 4.97997C7.79726 5.74043 7.41193 6.72224 7.39909 7.74331C7.38624 8.76443 7.74674 9.75548 8.41367 10.5328C8.53353 10.6722 8.66254 10.8037 8.79982 10.9264L6.11966 15.5387C6.01485 15.719 5.87531 15.877 5.70899 16.0037C5.54268 16.1305 5.35285 16.2235 5.15035 16.2774C4.94785 16.3313 4.73664 16.3451 4.52878 16.3179C4.32092 16.2907 4.12049 16.2232 3.93892 16.1191L6.8485 11.1118C6.43056 10.5135 6.13043 9.84197 5.96393 9.1328L4.18098 12.2074C3.96904 12.5713 3.62033 12.8368 3.21142 12.9457C2.80251 13.0545 2.36681 12.9978 2 12.7878L6.6107 4.85706C6.80261 4.53137 7.02551 4.2247 7.27634 3.94123ZM12.598 6.46562C13.7084 7.10245 14.0919 8.51872 13.4494 9.62094L9.02802 17.2067C8.81609 17.5706 8.46738 17.8361 8.05847 17.945C7.64955 18.0538 7.21385 17.997 6.84704 17.7872L10.9524 10.7248C10.623 10.656 10.3126 10.5169 10.0426 10.3173C9.77253 10.1177 9.54935 9.86231 9.38843 9.56873C9.22747 9.27511 9.13262 8.95036 9.1104 8.61678C9.08818 8.28325 9.13911 7.94889 9.2597 7.6368C9.3803 7.32471 9.56763 7.04229 9.80882 6.8091C10.05 6.57591 10.3393 6.3975 10.6567 6.28615C10.9741 6.1748 11.312 6.13318 11.6472 6.16417C11.9824 6.19516 12.3067 6.298 12.598 6.46562ZM10.9898 7.89125C10.9138 7.94917 10.85 8.02139 10.8021 8.10377H10.8019C10.7298 8.22789 10.6964 8.37042 10.7058 8.51342C10.7152 8.65637 10.7672 8.79337 10.855 8.90702C10.9429 9.02066 11.0627 9.10592 11.1993 9.15196C11.336 9.19803 11.4832 9.20279 11.6226 9.16571C11.762 9.12859 11.8872 9.05134 11.9823 8.94359C12.0774 8.83584 12.1382 8.70254 12.1571 8.5605C12.1759 8.41842 12.1519 8.27401 12.0881 8.14551C12.0243 8.01701 11.9235 7.91017 11.7986 7.83854C11.7156 7.79095 11.624 7.76009 11.5291 7.74766C11.4341 7.73527 11.3376 7.74153 11.245 7.76617C11.1525 7.79081 11.0658 7.83328 10.9898 7.89125Z" fill="#0C162B" fill-opacity="0.8"/>
</svg>
