<svg width="20" height="20" viewBox="0 0 20 20" fill="none" xmlns="http://www.w3.org/2000/svg">
<path d="M11.9492 4.51838C12.8852 3.37536 12.676 2.12677 12.5725 2.02323C12.469 1.91968 11.1168 2.12677 10.1809 3.37536C9.34851 4.51838 9.34851 5.76697 9.45408 5.87051C9.55965 5.97405 10.9098 5.87051 11.9492 4.51838ZM14.2373 10.3411C14.1338 8.67832 15.693 7.63884 16.0036 7.42972V7.32618C16.0036 7.32618 14.6515 5.66343 12.6781 5.76697C11.4315 5.87051 10.8062 6.49379 9.97585 6.49379C8.93637 6.49379 8.00043 5.76697 6.85742 5.76697C5.92148 5.76697 3.21925 6.59936 3.01216 10.132C2.80508 13.6666 5.2982 16.9921 6.23414 17.6154C7.17007 18.2387 7.79335 18.0316 8.83283 17.5118C9.35257 17.1992 11.0153 17.0956 11.9513 17.7189C13.0943 18.1351 14.757 17.8225 16.6289 13.6646C16.4198 13.6666 14.3408 13.1468 14.2373 10.3411Z" fill="#0C162B" fill-opacity="0.8"/>
</svg>
