<svg width="20" height="20" viewBox="0 0 20 20" fill="none" xmlns="http://www.w3.org/2000/svg">
<path d="M4.66669 10.3333V14.6667C4.66669 15.219 5.1144 15.6667 5.66669 15.6667H14.3334C14.8857 15.6667 15.3334 15.219 15.3334 14.6667V10.3333" stroke="#0C162B" stroke-opacity="0.8" stroke-linecap="round" stroke-linejoin="round"/>
<path d="M3.66669 6.99999C3.66669 6.63179 3.96516 6.33333 4.33335 6.33333H15.6667C16.0349 6.33333 16.3334 6.63179 16.3334 6.99999V9.66666C16.3334 10.0349 16.0349 10.3333 15.6667 10.3333H4.33335C3.96516 10.3333 3.66669 10.0349 3.66669 9.66666V6.99999Z" stroke="#0C162B" stroke-opacity="0.8" stroke-linejoin="round"/>
<path d="M12.3334 6.33333V4.99999C12.3334 4.6318 12.0349 4.33333 11.6667 4.33333H8.33335C7.96515 4.33333 7.66669 4.6318 7.66669 4.99999V6.33333" stroke="#0C162B" stroke-opacity="0.8" stroke-linecap="round" stroke-linejoin="round"/>
<path d="M7 9.66667V11.6667" stroke="#0C162B" stroke-opacity="0.8" stroke-linecap="round" stroke-linejoin="round"/>
<path d="M13 9.66667V11.6667" stroke="#0C162B" stroke-opacity="0.8" stroke-linecap="round" stroke-linejoin="round"/>
</svg>
