<svg width="20" height="20" viewBox="0 0 20 20" fill="none" xmlns="http://www.w3.org/2000/svg">
<path d="M4.10529 10.6316V15.4211C4.10529 16.0315 4.60013 16.5263 5.21055 16.5263H14.7895C15.3999 16.5263 15.8948 16.0315 15.8948 15.4211V10.6316" stroke="#0C162B" stroke-opacity="0.8" stroke-linecap="round" stroke-linejoin="round"/>
<path d="M3 6.94735C3 6.54039 3.3299 6.21051 3.73684 6.21051H16.2632C16.6701 6.21051 17 6.54039 17 6.94735V9.89472C17 10.3017 16.6701 10.6316 16.2632 10.6316H3.73684C3.3299 10.6316 3 10.3017 3 9.89472V6.94735Z" stroke="#0C162B" stroke-opacity="0.8" stroke-linejoin="round"/>
<path d="M12.579 6.21053V4.73684C12.579 4.3299 12.2491 4 11.8421 4H8.15792C7.75097 4 7.42108 4.3299 7.42108 4.73684V6.21053" stroke="#0C162B" stroke-opacity="0.8" stroke-linecap="round" stroke-linejoin="round"/>
<path d="M6.6842 9.89474V12.1053" stroke="#0C162B" stroke-opacity="0.8" stroke-linecap="round" stroke-linejoin="round"/>
<path d="M13.3158 9.89474V12.1053" stroke="#0C162B" stroke-opacity="0.8" stroke-linecap="round" stroke-linejoin="round"/>
</svg>
