<svg width="20" height="20" viewBox="0 0 20 20" fill="none" xmlns="http://www.w3.org/2000/svg">
<path d="M6.5103 9.07527C6.4923 9.64152 6.7753 9.89227 6.7823 10.0515C6.77897 10.0839 6.76792 10.1151 6.75009 10.1423C6.73226 10.1696 6.70816 10.1922 6.6798 10.2083L6.3598 10.4323C6.31839 10.4613 6.26957 10.4779 6.21905 10.4803C6.2083 10.4798 6.0143 10.526 5.70705 9.84002C5.5196 10.074 5.28109 10.262 5.00979 10.3896C4.73848 10.5172 4.44158 10.5811 4.1418 10.5763C3.7348 10.5985 2.6318 10.3453 2.68855 9.17102C2.6488 8.21402 3.54005 7.61952 4.4618 7.66977C4.6393 7.67027 5.0018 7.67902 5.63655 7.82652V7.43602C5.7038 6.77452 5.26905 6.26127 4.5163 6.33827C4.4563 6.33852 4.0313 6.32577 3.3703 6.59102C3.1863 6.67552 3.1628 6.66152 3.10155 6.66152C2.9163 6.66152 2.99255 6.12452 3.02805 6.05652C3.1583 5.89652 3.92455 5.59777 4.67655 5.60202C5.17936 5.55755 5.67948 5.71273 6.0688 6.03402C6.22706 6.21104 6.3478 6.4183 6.42372 6.64328C6.49965 6.86827 6.52918 7.1063 6.51055 7.34302L6.5103 9.07527ZM4.3498 9.88502C5.16055 9.87327 5.5038 9.38577 5.58205 9.12327C5.64355 8.87202 5.6333 8.71302 5.6333 8.43827C5.39155 8.38027 5.04355 8.31702 4.6443 8.31652C4.26555 8.28802 3.5738 8.45727 3.6008 9.12302C3.5698 9.54277 3.8788 9.90802 4.3498 9.88502ZM8.6228 10.4613C8.4263 10.4793 8.3348 10.3398 8.3058 10.202L7.0608 6.08577C7.03655 6.01627 7.02055 5.94452 7.0128 5.87127C7.00821 5.84107 7.01579 5.81028 7.03389 5.78567C7.05198 5.76106 7.07911 5.74464 7.1093 5.74002C7.1153 5.73902 7.05605 5.74002 7.66555 5.74002C7.88505 5.71802 7.95655 5.89077 7.9793 5.99927L8.8723 9.52002L9.7013 5.99927C9.71455 5.91877 9.7748 5.72252 10.0213 5.74327H10.4503C10.5045 5.73877 10.7281 5.73077 10.7673 6.00252L11.6028 9.56827L12.5246 6.00252C12.5365 5.94802 12.5926 5.71827 12.8415 5.74327H13.3345C13.3558 5.74002 13.4883 5.72302 13.4658 5.95777C13.455 6.00402 13.5511 5.69127 12.147 10.2053C12.1183 10.343 12.0266 10.4825 11.8301 10.4645H11.3628C11.0893 10.4933 11.05 10.223 11.0458 10.1958L10.2168 6.76752L9.3973 10.1923C9.3933 10.2195 9.35405 10.4898 9.0803 10.461H8.6228V10.4613ZM15.4598 10.602C15.3128 10.6023 14.6118 10.5945 14.0258 10.2948C13.9674 10.2701 13.9177 10.2286 13.8829 10.1756C13.8482 10.1225 13.8299 10.0604 13.8305 9.99702V9.72827C13.8305 9.51702 13.9855 9.55577 14.0513 9.58102C14.3023 9.68252 14.4633 9.75952 14.7716 9.82102C15.6878 10.0093 16.0908 9.76352 16.1896 9.70902C16.5183 9.51377 16.5443 9.06702 16.3208 8.83527C16.0588 8.61552 15.9338 8.60727 14.9925 8.31027C14.8765 8.27802 13.9001 7.97002 13.8978 7.00127C13.8825 6.29527 14.524 5.59677 15.6358 5.60252C15.9525 5.60227 16.7965 5.70577 17.025 5.99302C17.0588 6.04527 17.0755 6.10677 17.073 6.16902V6.42177C17.073 6.53277 17.0325 6.58827 16.9513 6.58827C16.7585 6.56677 16.4165 6.30902 15.7223 6.31952C15.55 6.31052 14.725 6.34227 14.762 6.94377C14.7513 7.41777 15.4273 7.59552 15.5045 7.61602C16.416 7.89027 16.7208 7.93577 17.0825 8.35552C17.511 8.91177 17.2801 9.56302 17.1913 9.74152C16.7143 10.6788 15.4808 10.6025 15.4598 10.602ZM16.4648 13.2235C14.7141 14.5165 12.1726 15.2048 10.0026 15.2048C7.07456 15.2241 4.24525 14.1474 2.0708 12.1865C1.90755 12.0393 2.05155 11.8375 2.25005 11.9498C4.66216 13.3296 7.39318 14.0545 10.172 14.0528C12.2472 14.0416 14.2998 13.6207 16.2118 12.814C16.5063 12.689 16.7561 13.009 16.4648 13.2235ZM17.1946 12.3913C16.9706 12.1033 15.7126 12.2568 15.1493 12.324C14.9796 12.3433 14.9508 12.196 15.1045 12.0873C16.1063 11.383 17.7515 11.5848 17.9405 11.8215C18.1293 12.0583 17.8893 13.7068 16.9515 14.4943C16.8075 14.616 16.6698 14.5518 16.7338 14.3918C16.9448 13.8605 17.4186 12.6795 17.1946 12.3913Z" fill="#0C162B" fill-opacity="0.8"/>
</svg>
