<svg width="20" height="20" viewBox="0 0 20 20" fill="none" xmlns="http://www.w3.org/2000/svg">
<path d="M16.6666 10H17.1666C17.1666 9.86739 17.114 9.74021 17.0202 9.64644C16.9264 9.55268 16.7993 9.5 16.6666 9.5V10ZM14 10V9.5C13.7239 9.5 13.5 9.72386 13.5 10H14ZM9.99998 6L9.99998 6.5C10.2761 6.5 10.5 6.27614 10.5 6H9.99998ZM9.99998 3.33333H10.5C10.5 3.05719 10.2761 2.83333 9.99998 2.83333V3.33333ZM16.1666 10C16.1666 13.4058 13.4057 16.1667 9.99998 16.1667V17.1667C13.958 17.1667 17.1666 13.958 17.1666 10H16.1666ZM14 10.5L16.6666 10.5V9.5L14 9.5V10.5ZM13.5 10C13.5 11.933 11.933 13.5 10 13.5V14.5C12.4853 14.5 14.5 12.4853 14.5 10H13.5ZM10 13.5C8.067 13.5 6.5 11.933 6.5 10H5.5C5.5 12.4853 7.51472 14.5 10 14.5V13.5ZM6.5 10C6.5 8.06701 8.06699 6.50001 9.99998 6.5L9.99998 5.5C7.51471 5.50001 5.5 7.51473 5.5 10H6.5ZM9.49998 3.33333V6H10.5V3.33333H9.49998ZM3.83331 10C3.83331 6.59424 6.59422 3.83333 9.99998 3.83333V2.83333C6.04194 2.83333 2.83331 6.04196 2.83331 10H3.83331ZM9.99998 16.1667C6.59422 16.1667 3.83331 13.4058 3.83331 10H2.83331C2.83331 13.958 6.04194 17.1667 9.99998 17.1667V16.1667Z" fill="#0C162B" fill-opacity="0.8"/>
<path d="M16.3615 8V8.5C16.5207 8.5 16.6703 8.4242 16.7645 8.29588C16.8587 8.16756 16.8862 8.00205 16.8385 7.85018L16.3615 8ZM13.4649 8L13.0321 8.25036C13.1214 8.40486 13.2864 8.5 13.4649 8.5V8ZM12 3.63851L12.1498 3.16149C11.998 3.11379 11.8324 3.14125 11.7041 3.23545C11.5758 3.32965 11.5 3.47933 11.5 3.63851H12ZM12 6.53513H11.5C11.5 6.71361 11.5951 6.87856 11.7496 6.96793L12 6.53513ZM16.3615 7.5H13.4649V8.5H16.3615V7.5ZM11.8502 4.11554C13.7676 4.71775 15.2822 6.23243 15.8844 8.14982L16.8385 7.85018C16.1383 5.62077 14.3792 3.8617 12.1498 3.16149L11.8502 4.11554ZM12.5 6.53513V3.63851H11.5V6.53513H12.5ZM11.7496 6.96793C12.2812 7.27541 12.7246 7.71883 13.0321 8.25036L13.8977 7.74964C13.5026 7.06666 12.9333 6.49741 12.2504 6.10233L11.7496 6.96793Z" fill="#0C162B" fill-opacity="0.8"/>
</svg>
