<svg width="20" height="20" viewBox="0 0 20 20" fill="none" xmlns="http://www.w3.org/2000/svg">
<path d="M8.25002 8.90001C9.60313 8.90001 10.7 7.80311 10.7 6.45001C10.7 5.09691 9.60313 4 8.25002 4C6.89692 4 5.80002 5.09691 5.80002 6.45001C5.80002 7.80311 6.89692 8.90001 8.25002 8.90001Z" stroke="#0C162B" stroke-opacity="0.8" stroke-linecap="round" stroke-linejoin="round"/>
<path d="M13.0127 4.35C13.7242 4.77872 14.2001 5.5588 14.2001 6.45001C14.2001 7.34121 13.7242 8.1213 13.0127 8.55001" stroke="#0C162B" stroke-opacity="0.8" stroke-linecap="round" stroke-linejoin="round"/>
<path d="M3 16.18V16.6H13.5V16.18C13.5 14.6119 13.5 13.8278 13.1949 13.2289C12.9264 12.702 12.498 12.2736 11.9712 12.0052C11.3722 11.7 10.5882 11.7 9.02001 11.7H7.48001C5.91187 11.7 5.12779 11.7 4.52883 12.0052C4.00198 12.2736 3.57363 12.702 3.30518 13.2289C3 13.8278 3 14.6119 3 16.18Z" stroke="#0C162B" stroke-opacity="0.8" stroke-linecap="round" stroke-linejoin="round"/>
<path d="M17 16.6V16.18C17 14.6119 17 13.8278 16.6948 13.2289C16.4264 12.702 15.998 12.2736 15.4712 12.0052" stroke="#0C162B" stroke-opacity="0.8" stroke-linecap="round" stroke-linejoin="round"/>
</svg>
