<svg width="20" height="20" viewBox="0 0 20 20" fill="none" xmlns="http://www.w3.org/2000/svg">
<path d="M7.91667 8.33333C9.5275 8.33333 10.8333 7.0275 10.8333 5.41667C10.8333 3.80584 9.5275 2.5 7.91667 2.5C6.30583 2.5 5 3.80584 5 5.41667C5 7.0275 6.30583 8.33333 7.91667 8.33333Z" stroke="#0C162B" stroke-opacity="0.8" stroke-linecap="round" stroke-linejoin="round"/>
<path d="M13.5865 2.91667C14.4335 3.42704 15 4.35571 15 5.41667C15 6.47763 14.4335 7.40629 13.5865 7.91667" stroke="#0C162B" stroke-opacity="0.8" stroke-linecap="round" stroke-linejoin="round"/>
<path d="M1.66666 17V17.5H14.1667V17C14.1667 15.1332 14.1667 14.1998 13.8034 13.4867C13.4838 12.8595 12.9738 12.3495 12.3466 12.03C11.6336 11.6667 10.7002 11.6667 8.83332 11.6667H6.99999C5.13316 11.6667 4.19974 11.6667 3.48669 12.03C2.85948 12.3495 2.34954 12.8595 2.02997 13.4867C1.66666 14.1998 1.66666 15.1332 1.66666 17Z" stroke="#0C162B" stroke-opacity="0.8" stroke-linecap="round" stroke-linejoin="round"/>
<path d="M18.3333 17.5V17C18.3333 15.1332 18.3333 14.1998 17.97 13.4867C17.6504 12.8595 17.1405 12.3495 16.5132 12.03" stroke="#0C162B" stroke-opacity="0.8" stroke-linecap="round" stroke-linejoin="round"/>
</svg>
