<svg width="20" height="20" viewBox="0 0 20 20" fill="none" xmlns="http://www.w3.org/2000/svg">
<path d="M12 10.9415C11.8205 11.4551 11.6667 11.881 11.5385 12.2192C11.4231 12.5699 11.3077 12.858 11.1923 13.0835C11.0769 13.3215 10.9615 13.5157 10.8462 13.666C10.7308 13.8163 10.5897 13.9541 10.4231 14.0793C10.2564 14.2046 10.0513 14.3361 9.80769 14.4739C9.5641 14.6117 9.26923 14.7871 8.92308 15C8.82051 14.8121 8.74359 14.6681 8.69231 14.5678C8.65385 14.4676 8.60256 14.38 8.53846 14.3048C8.48718 14.2296 8.42308 14.142 8.34615 14.0418C8.26923 13.9541 8.15385 13.8225 8 13.6472C8.38462 13.4217 8.67949 13.2338 8.88462 13.0835C9.08974 12.9457 9.25641 12.7829 9.38462 12.595C9.51282 12.4071 9.62821 12.1691 9.73077 11.881C9.83333 11.5929 9.97436 11.1858 10.1538 10.6597V9.60752H8.30769V6H12V10.9415Z" fill="#0C162B" fill-opacity="0.8"/>
</svg>
