<svg width="20" height="20" viewBox="0 0 20 20" fill="none" xmlns="http://www.w3.org/2000/svg">
<path d="M4.45472 14.2725C3.54259 13.0904 3 11.6086 3 10C3 6.134 6.134 3 10 3C13.866 3 17 6.134 17 10C17 11.6086 16.4574 13.0904 15.5453 14.2725" stroke="#0C162B" stroke-opacity="0.8" stroke-linecap="round" stroke-linejoin="round"/>
<path d="M6.2784 12.4489C5.8151 11.7462 5.54547 10.9046 5.54547 9.99999C5.54547 7.5398 7.53983 5.54544 10 5.54544C12.4602 5.54544 14.4546 7.5398 14.4546 9.99999C14.4546 10.9046 14.1849 11.7462 13.7216 12.4489" stroke="#0C162B" stroke-opacity="0.8" stroke-linecap="round" stroke-linejoin="round"/>
<path fill-rule="evenodd" clip-rule="evenodd" d="M10 11.9091L15.0909 17H4.90912L10 11.9091Z" stroke="#0C162B" stroke-opacity="0.8" stroke-linecap="round" stroke-linejoin="round"/>
</svg>
