<svg width="20" height="20" viewBox="0 0 20 20" fill="none" xmlns="http://www.w3.org/2000/svg">
<path d="M5.91088 12.1471H3.78944L3.44937 13.1832H1.99998L4.05665 7.31751H5.65987L7.71654 13.1832H6.25096L5.91088 12.1471ZM5.55461 11.0441L4.85016 8.89672L4.15381 11.0441H5.55461Z" fill="#0C162B" fill-opacity="0.8"/>
<path d="M9.72709 9.18082C9.85664 8.96357 10.0429 8.7881 10.2858 8.65441C10.5287 8.52072 10.8067 8.45388 11.1198 8.45388C11.4923 8.45388 11.8296 8.55136 12.1319 8.74632C12.4342 8.94129 12.6717 9.21981 12.8445 9.58188C13.0226 9.94396 13.1117 10.3645 13.1117 10.8436C13.1117 11.3226 13.0226 11.746 12.8445 12.1136C12.6717 12.4757 12.4342 12.757 12.1319 12.9576C11.8296 13.1525 11.4923 13.25 11.1198 13.25C10.8013 13.25 10.5233 13.1859 10.2858 13.0578C10.0483 12.9241 9.86204 12.7487 9.72709 12.5314V13.1832H8.34248V7H9.72709V9.18082ZM11.7028 10.8436C11.7028 10.4871 11.6056 10.2086 11.4113 10.008C11.2224 9.80192 10.9875 9.69886 10.7068 9.69886C10.4315 9.69886 10.1967 9.80192 10.0024 10.008C9.81346 10.2141 9.71899 10.4954 9.71899 10.8519C9.71899 11.2084 9.81346 11.4898 10.0024 11.6959C10.1967 11.902 10.4315 12.005 10.7068 12.005C10.9821 12.005 11.217 11.902 11.4113 11.6959C11.6056 11.4842 11.7028 11.2001 11.7028 10.8436Z" fill="#0C162B" fill-opacity="0.8"/>
<path d="M13.5628 10.8519C13.5628 10.3673 13.6572 9.94396 13.8462 9.58188C14.0405 9.21981 14.3077 8.94129 14.6478 8.74632C14.9933 8.55136 15.3873 8.45388 15.83 8.45388C16.3968 8.45388 16.8691 8.60706 17.247 8.91344C17.6302 9.21981 17.8812 9.65152 18 10.2086H16.5263C16.4022 9.85205 16.1619 9.6738 15.8057 9.6738C15.552 9.6738 15.3495 9.77685 15.1984 9.98295C15.0472 10.1835 14.9717 10.4732 14.9717 10.8519C14.9717 11.2307 15.0472 11.5232 15.1984 11.7293C15.3495 11.9298 15.552 12.0301 15.8057 12.0301C16.1619 12.0301 16.4022 11.8518 16.5263 11.4953H18C17.8812 12.0412 17.6302 12.4701 17.247 12.7821C16.8637 13.094 16.3914 13.25 15.83 13.25C15.3873 13.25 14.9933 13.1525 14.6478 12.9576C14.3077 12.7626 14.0405 12.4841 13.8462 12.122C13.6572 11.7599 13.5628 11.3366 13.5628 10.8519Z" fill="#0C162B" fill-opacity="0.8"/>
</svg>
