<svg width="20" height="20" viewBox="0 0 20 20" fill="none" xmlns="http://www.w3.org/2000/svg">
<path d="M2.99999 9.84644C3.36034 9.83173 3.62508 9.75452 3.79423 9.61479C3.96337 9.46771 4.04794 9.2618 4.04794 8.99705C4.04794 8.79849 4.01117 8.40505 3.93763 7.81673C3.93028 7.7579 3.90821 7.57037 3.87144 7.25415C3.83467 6.93057 3.81629 6.64009 3.81629 6.3827C3.81629 5.75761 4.00749 5.27224 4.3899 4.92661C4.77231 4.57361 5.28341 4.39712 5.92321 4.39712H6.71745V5.94146H6.28724C6.05191 5.94146 5.88277 5.99294 5.77981 6.09589C5.67685 6.19885 5.62538 6.35696 5.62538 6.57023C5.62538 6.73202 5.65479 7.09972 5.71362 7.67333C5.77981 8.38667 5.8129 8.85365 5.8129 9.07427C5.8129 9.47874 5.71362 9.81335 5.51506 10.0781C5.32386 10.3428 5.0297 10.512 4.63258 10.5855V10.6076C5.0297 10.6885 5.32386 10.8613 5.51506 11.126C5.71362 11.3834 5.8129 11.718 5.8129 12.1299C5.8129 12.3505 5.77981 12.8175 5.71362 13.5308C5.65479 14.0897 5.62538 14.4537 5.62538 14.6229C5.62538 14.8361 5.67685 14.9942 5.77981 15.0972C5.88277 15.2075 6.05191 15.2627 6.28724 15.2627H6.71745V16.807H5.92321C5.28341 16.807 4.77231 16.6305 4.3899 16.2775C4.00749 15.9319 3.81629 15.4428 3.81629 14.8104C3.81629 14.553 3.83467 14.2662 3.87144 13.95C3.90821 13.6264 3.93028 13.4352 3.93763 13.3764C4.01117 12.788 4.04794 12.3946 4.04794 12.196C4.04794 11.946 3.96337 11.7475 3.79423 11.6004C3.62508 11.4459 3.36034 11.3614 2.99999 11.3467V9.84644Z" fill="#0C162B" fill-opacity="0.8"/>
<path d="M12.3876 4L9.43133 16.5423H7.61122L10.5675 4H12.3876Z" fill="#0C162B" fill-opacity="0.8"/>
<path d="M17 11.3467C16.6396 11.3614 16.3749 11.4459 16.2058 11.6004C16.0366 11.7475 15.952 11.946 15.952 12.196C15.952 12.3946 15.9888 12.788 16.0624 13.3764C16.0697 13.4352 16.0918 13.6264 16.1285 13.95C16.1653 14.2662 16.1837 14.553 16.1837 14.8104C16.1837 15.4428 15.9925 15.9319 15.6101 16.2775C15.2277 16.6305 14.7166 16.807 14.0768 16.807H13.2825V15.2627H13.7127C13.9481 15.2627 14.1172 15.2075 14.2202 15.0972C14.3231 14.9942 14.3746 14.8361 14.3746 14.6229C14.3746 14.4537 14.3452 14.0897 14.2864 13.5308C14.2202 12.8175 14.1871 12.3505 14.1871 12.1299C14.1871 11.718 14.2827 11.3834 14.4739 11.126C14.6724 10.8613 14.9703 10.6885 15.3674 10.6076V10.5855C14.9703 10.512 14.6724 10.3428 14.4739 10.0781C14.2827 9.81335 14.1871 9.47874 14.1871 9.07427C14.1871 8.85365 14.2202 8.38667 14.2864 7.67333C14.3452 7.09972 14.3746 6.73202 14.3746 6.57023C14.3746 6.35696 14.3231 6.19885 14.2202 6.09589C14.1172 5.99294 13.9481 5.94146 13.7127 5.94146H13.2825V4.39712H14.0768C14.7166 4.39712 15.2277 4.57361 15.6101 4.92661C15.9925 5.27224 16.1837 5.75761 16.1837 6.3827C16.1837 6.64009 16.1653 6.93057 16.1285 7.25415C16.0918 7.57037 16.0697 7.7579 16.0624 7.81673C15.9888 8.40505 15.952 8.79849 15.952 8.99705C15.952 9.2618 16.0366 9.46771 16.2058 9.61479C16.3749 9.75452 16.6396 9.83173 17 9.84644V11.3467Z" fill="#0C162B" fill-opacity="0.8"/>
</svg>
