<svg width="20" height="20" viewBox="0 0 20 20" fill="none" xmlns="http://www.w3.org/2000/svg">
<path d="M2.5 8.63612V7.15803H5.32602V13.9442H3.51002V8.63612H2.5Z" fill="#0C162B" fill-opacity="0.8"/>
<path d="M6.45823 12.6707C6.68948 12.5033 6.7949 12.4259 6.7745 12.4382C7.44104 11.9363 7.96476 11.5241 8.34564 11.2019C8.73333 10.8796 9.0598 10.5418 9.32506 10.1886C9.59032 9.83533 9.72295 9.49137 9.72295 9.15671C9.72295 8.90261 9.65833 8.70429 9.5291 8.56175C9.39987 8.41921 9.20603 8.34794 8.94758 8.34794C8.68912 8.34794 8.48507 8.4378 8.33544 8.61753C8.19261 8.79106 8.12119 9.03896 8.12119 9.36122H6.43782C6.45143 8.83444 6.57385 8.39442 6.80511 8.04117C7.04316 7.68792 7.35263 7.42762 7.73351 7.26029C8.12119 7.09296 8.54969 7.0093 9.01899 7.0093C9.82837 7.0093 10.4371 7.19832 10.8452 7.57636C11.2601 7.9544 11.4675 8.4471 11.4675 9.05445C11.4675 9.71757 11.2193 10.3342 10.7228 10.9044C10.2263 11.4683 9.59372 12.0199 8.82515 12.5591H11.5798V13.8513H6.45823V12.6707Z" fill="#0C162B" fill-opacity="0.8"/>
<path d="M12.4091 9.07304C12.4363 8.40992 12.6743 7.89863 13.1232 7.53918C13.5721 7.17973 14.1809 7 14.9494 7C15.4596 7 15.8948 7.08057 16.2553 7.2417C16.6226 7.40283 16.8981 7.62284 17.0817 7.90173C17.2722 8.18061 17.3674 8.49358 17.3674 8.84064C17.3674 9.24967 17.2551 9.58433 17.0307 9.84462C16.8062 10.0987 16.5444 10.2722 16.2451 10.3652V10.4024C16.6328 10.5201 16.9389 10.7154 17.1633 10.988C17.3878 11.2607 17.5 11.6109 17.5 12.0385C17.5 12.4228 17.4014 12.7636 17.2041 13.0611C17.0137 13.3524 16.7314 13.5817 16.3573 13.749C15.9901 13.9163 15.5514 14 15.0413 14C14.2251 14 13.5721 13.8172 13.0824 13.4515C12.5995 13.0859 12.3445 12.5343 12.3173 11.7968H14.0108C14.0176 12.0695 14.1027 12.2864 14.2659 12.4475C14.4291 12.6025 14.6672 12.6799 14.98 12.6799C15.2453 12.6799 15.4493 12.6118 15.5922 12.4754C15.7418 12.3329 15.8166 12.147 15.8166 11.9177C15.8166 11.6202 15.7112 11.4064 15.5004 11.2762C15.2963 11.1399 14.9664 11.0717 14.5107 11.0717H14.1843V9.77955H14.5107C14.8576 9.77955 15.1365 9.72687 15.3473 9.62151C15.565 9.50996 15.6738 9.31474 15.6738 9.03586C15.6738 8.81275 15.6058 8.63922 15.4698 8.51527C15.3337 8.39132 15.1467 8.32935 14.9086 8.32935C14.6502 8.32935 14.4563 8.40062 14.3271 8.54316C14.2047 8.6857 14.1333 8.86233 14.1129 9.07304H12.4091Z" fill="#0C162B" fill-opacity="0.8"/>
</svg>
