<svg width="20" height="20" viewBox="0 0 20 20" fill="none" xmlns="http://www.w3.org/2000/svg">
<path d="M18.3334 4.58334C18.3334 4.58334 18.3334 15.026 18.3334 15.8333C18.3334 17.2141 14.6024 18.3333 10 18.3333C5.39765 18.3333 1.6667 17.2141 1.6667 15.8333C1.6667 15.0593 1.66669 4.58334 1.66669 4.58334" stroke="#0C162B" stroke-opacity="0.8" stroke-width="1.25" stroke-linecap="round" stroke-linejoin="round"/>
<path d="M18.3334 12.0833C18.3334 13.4641 14.6024 14.5833 10 14.5833C5.39765 14.5833 1.66669 13.4641 1.66669 12.0833" stroke="#0C162B" stroke-opacity="0.8" stroke-width="1.25" stroke-linecap="round" stroke-linejoin="round"/>
<path d="M18.3334 8.33334C18.3334 9.71405 14.6024 10.8333 10 10.8333C5.39765 10.8333 1.66669 9.71405 1.66669 8.33334" stroke="#0C162B" stroke-opacity="0.8" stroke-width="1.25" stroke-linecap="round" stroke-linejoin="round"/>
<path d="M10 6.66666C14.6024 6.66666 18.3334 5.54737 18.3334 4.16666C18.3334 2.78594 14.6024 1.66666 10 1.66666C5.39765 1.66666 1.66669 2.78594 1.66669 4.16666C1.66669 5.54737 5.39765 6.66666 10 6.66666Z" stroke="#0C162B" stroke-opacity="0.8" stroke-width="1.25" stroke-linecap="round" stroke-linejoin="round"/>
</svg>
