<svg width="20" height="20" viewBox="0 0 20 20" fill="none" xmlns="http://www.w3.org/2000/svg">
<path d="M18 12.6C18 14.8091 16.2091 16.6 14 16.6C13.2836 16.6 12.6112 16.4117 12.0296 16.0818C11.0057 15.5012 10.2632 14.4818 10.0574 13.2793C10.0197 13.0585 10 12.8316 10 12.6C10 11.5729 10.3871 10.6362 11.0234 9.92793C11.7557 9.11273 12.818 8.60001 14 8.60001C16.2091 8.60001 18 10.3909 18 12.6Z" stroke="#0C162B" stroke-opacity="0.8" stroke-linecap="round" stroke-linejoin="round"/>
<path d="M14 5V8.2V8.6C12.818 8.6 11.7557 9.11272 11.0234 9.92792C10.3871 10.6362 10 11.5729 10 12.6C10 12.8316 10.0197 13.0585 10.0574 13.2793C10.2632 14.4818 11.0057 15.5012 12.0296 16.0818C10.9646 16.4038 9.55104 16.6 8 16.6C4.68628 16.6 2 15.7046 2 14.6V11.4V8.2V5" stroke="#0C162B" stroke-opacity="0.8" stroke-linecap="round" stroke-linejoin="round"/>
<path d="M14 5C14 6.10456 11.3137 7 8 7C4.68628 7 2 6.10456 2 5C2 3.89543 4.68628 3 8 3C11.3137 3 14 3.89543 14 5Z" stroke="#0C162B" stroke-opacity="0.8" stroke-linecap="round" stroke-linejoin="round"/>
<path d="M2 11.4C2 12.5046 4.68628 13.4 8 13.4C8.7228 13.4 9.41572 13.3574 10.0574 13.2793" stroke="#0C162B" stroke-opacity="0.8" stroke-linecap="round" stroke-linejoin="round"/>
<path d="M2 8.20001C2 9.30457 4.68628 10.2 8 10.2C9.10252 10.2 10.1356 10.1009 11.0234 9.92793" stroke="#0C162B" stroke-opacity="0.8" stroke-linecap="round" stroke-linejoin="round"/>
<path d="M16 12.6C16 13.7046 15.1046 14.6 14 14.6C12.8954 14.6 12 13.7046 12 12.6H16Z" stroke="#0C162B" stroke-opacity="0.8" stroke-linecap="round" stroke-linejoin="round"/>
<path d="M14 10.6C14.6627 10.6 15.2 11.1372 15.2 11.8V12.6H12.8V11.8C12.8 11.1372 13.3372 10.6 14 10.6Z" stroke="#0C162B" stroke-opacity="0.8" stroke-linecap="round" stroke-linejoin="round"/>
</svg>
