<svg width="20" height="20" viewBox="0 0 20 20" fill="none" xmlns="http://www.w3.org/2000/svg">
<path d="M17 5.45004C17 5.45004 17 14.2218 17 14.9C17 16.0598 13.866 17 9.99999 17C6.134 17 3.00001 16.0598 3.00001 14.9C3.00001 14.2498 3 5.45004 3 5.45004" stroke="#0C162B" stroke-opacity="0.8" stroke-linecap="round" stroke-linejoin="round"/>
<path d="M17 11.75C17 12.9098 13.866 13.85 9.99999 13.85C6.134 13.85 3 12.9098 3 11.75" stroke="#0C162B" stroke-opacity="0.8" stroke-linecap="round" stroke-linejoin="round"/>
<path d="M17 8.60001C17 9.7598 13.866 10.7 9.99999 10.7C6.134 10.7 3 9.7598 3 8.60001" stroke="#0C162B" stroke-opacity="0.8" stroke-linecap="round" stroke-linejoin="round"/>
<path d="M9.99999 7.2C13.866 7.2 17 6.25979 17 5.1C17 3.9402 13.866 3 9.99999 3C6.134 3 3 3.9402 3 5.1C3 6.25979 6.134 7.2 9.99999 7.2Z" stroke="#0C162B" stroke-opacity="0.8" stroke-linecap="round" stroke-linejoin="round"/>
</svg>
