<svg width="48" height="48" viewBox="0 0 48 48" fill="none" xmlns="http://www.w3.org/2000/svg">
<path fill-rule="evenodd" clip-rule="evenodd" d="M10.5606 14.4762C10.5606 12.8982 11.8398 11.619 13.4178 11.619H35.4284C37.0063 11.619 38.2855 12.8982 38.2855 14.4762V35.4286C38.2855 37.0066 37.0063 38.2857 35.4284 38.2857H15.4284C13.8504 38.2857 12.5712 37.0066 12.5712 35.4286C12.5712 33.8506 13.8504 32.5714 15.4284 32.5714H32.5712V17.3333H13.4178C11.8398 17.3333 10.5606 16.0542 10.5606 14.4762Z" fill="#1575E5"/>
<path d="M4.1947 7.61169C4.31236 5.97173 5.38086 4.69553 7.00632 4.44829C8.54764 4.21383 10.9264 4 14.4762 4C18.026 4 20.4048 4.21383 21.9461 4.44829C23.5715 4.69553 24.64 5.97173 24.7577 7.61169C24.8617 9.06164 24.9524 11.2506 24.9524 14.4762C24.9524 17.7018 24.8617 19.8908 24.7577 21.3407C24.64 22.9807 23.5715 24.2569 21.9461 24.5041C20.4048 24.7386 18.026 24.9524 14.4762 24.9524C10.9264 24.9524 8.54764 24.7386 7.00632 24.5041C5.38086 24.2569 4.31236 22.9807 4.1947 21.3407C4.09067 19.8908 4 17.7018 4 14.4762C4 11.2506 4.09067 9.06164 4.1947 7.61169Z" fill="#A6CFFF"/>
<path d="M15.4713 16.5706C15.5046 16.0235 15.8605 15.5998 16.4039 15.529C16.8234 15.4742 17.4298 15.4286 18.2857 15.4286C19.1416 15.4286 19.748 15.4742 20.1675 15.529C20.7109 15.5998 21.0668 16.0235 21.1001 16.5706C21.1239 16.9618 21.1428 17.5153 21.1428 18.2857C21.1428 19.0561 21.1239 19.6096 21.1001 20.0009C21.0668 20.5479 20.7109 20.9716 20.1675 21.0425C19.748 21.0972 19.1416 21.1429 18.2857 21.1429C17.4298 21.1429 16.8234 21.0972 16.4039 21.0425C15.8605 20.9716 15.5046 20.5479 15.4713 20.0009C15.4475 19.6096 15.4286 19.0561 15.4286 18.2857C15.4286 17.5153 15.4475 16.9618 15.4713 16.5706Z" fill="#1575E5"/>
<path d="M28.8309 11.0467C28.908 9.4043 29.9725 8.14573 31.608 7.9774C32.5434 7.88112 33.7899 7.80952 35.4286 7.80952C37.0672 7.80952 38.3137 7.88112 39.2491 7.9774C40.8847 8.14573 41.9491 9.40429 42.0262 11.0467C42.0665 11.905 42.0952 13.026 42.0952 14.4762C42.0952 15.9264 42.0665 17.0473 42.0262 17.9057C41.9491 19.5481 40.8847 20.8067 39.2491 20.975C38.3137 21.0712 37.0672 21.1429 35.4286 21.1429C33.7899 21.1429 32.5434 21.0712 31.608 20.975C29.9725 20.8067 28.908 19.5481 28.8309 17.9057C28.7907 17.0473 28.7619 15.9264 28.7619 14.4762C28.7619 13.026 28.7907 11.905 28.8309 11.0467Z" fill="#A6CFFF"/>
<path d="M6.9262 31.999C7.0032 30.3567 8.06769 29.0981 9.70322 28.9298C10.6386 28.8335 11.8851 28.7619 13.5238 28.7619C15.1625 28.7619 16.409 28.8335 17.3444 28.9298C18.9799 29.0981 20.0444 30.3567 20.1214 31.999C20.1617 32.8574 20.1905 33.9784 20.1905 35.4286C20.1905 36.8788 20.1617 37.9997 20.1214 38.8581C20.0444 40.5005 18.9799 41.759 17.3444 41.9273C16.409 42.0236 15.1625 42.0952 13.5238 42.0952C11.8851 42.0952 10.6386 42.0236 9.70322 41.9273C8.06769 41.759 7.0032 40.5005 6.9262 38.8581C6.88595 37.9997 6.85715 36.8788 6.85715 35.4286C6.85715 33.9784 6.88595 32.8574 6.9262 31.999Z" fill="#A6CFFF"/>
<path d="M26.9853 30.2831C27.085 28.642 28.1528 27.371 29.7832 27.1582C31.0418 26.9939 32.8607 26.8571 35.4285 26.8571C37.9964 26.8571 39.8153 26.9939 41.0739 27.1582C42.7043 27.371 43.7721 28.642 43.8718 30.2831C43.9431 31.457 44 33.1175 44 35.4286C44 37.7396 43.9431 39.4002 43.8718 40.574C43.7721 42.2151 42.7043 43.4862 41.0739 43.699C39.8153 43.8632 37.9964 44 35.4285 44C32.8607 44 31.0418 43.8632 29.7832 43.699C28.1528 43.4862 27.085 42.2151 26.9853 40.574C26.914 39.4002 26.8571 37.7396 26.8571 35.4286C26.8571 33.1175 26.914 31.457 26.9853 30.2831Z" fill="#A6CFFF"/>
</svg>
