<svg width="20" height="20" viewBox="0 0 20 20" fill="none" xmlns="http://www.w3.org/2000/svg">
<path d="M17.3201 2.66546C17.6962 3.02713 17.9421 3.50452 18 4.02532C18 4.24231 17.9421 4.38699 17.8119 4.66185C17.6817 4.93671 16.0759 7.71429 15.5986 8.48101C15.3237 8.92948 15.179 9.46475 15.179 9.98553C15.179 10.5208 15.3237 11.0416 15.5986 11.4901C16.0759 12.2568 17.6817 15.0488 17.8119 15.3237C17.9421 15.5986 18 15.7287 18 15.9457C17.9421 16.4665 17.7107 16.9439 17.3345 17.2911C16.9729 17.6673 16.4955 17.9132 15.9892 17.9566C15.7722 17.9566 15.6275 17.8987 15.3671 17.7685C15.1067 17.6383 12.2713 16.0759 11.5045 15.5986C11.4466 15.5696 11.3888 15.5262 11.3165 15.4973L7.52622 13.255C7.61301 13.9783 7.93129 14.6727 8.45207 15.179C8.55335 15.2803 8.65461 15.3671 8.77035 15.4539C8.68354 15.4973 8.58228 15.5407 8.49548 15.5986C7.72875 16.0759 4.93671 17.6817 4.66185 17.8119C4.38699 17.9421 4.25678 18 4.02532 18C3.50452 17.9421 3.02713 17.7107 2.67993 17.3345C2.3038 16.9729 2.05787 16.4955 2 15.9747C2.01447 15.7577 2.07233 15.5407 2.18807 15.3526C2.31826 15.0778 3.92405 12.2857 4.40144 11.519C4.67632 11.0705 4.82098 10.5497 4.82098 10.0145C4.82098 9.4792 4.67632 8.9584 4.40144 8.50994C3.92405 7.71429 2.3038 4.92224 2.18807 4.64738C2.07233 4.45931 2.01447 4.24231 2 4.02532C2.05787 3.50452 2.28933 3.02713 2.66546 2.66546C3.02713 2.28933 3.50452 2.05787 4.02532 2C4.24231 2.01447 4.45931 2.07233 4.66185 2.18807C4.89332 2.28933 6.93308 3.47559 8.01808 4.11212L8.26402 4.25678C8.35081 4.31465 8.42315 4.35804 8.48101 4.38699L8.59675 4.45931L12.4593 6.74503C12.3725 5.87703 11.9241 5.08137 11.2297 4.54612C11.3165 4.50272 11.4177 4.45931 11.5045 4.40144C12.2713 3.92405 15.0633 2.3038 15.3382 2.18807C15.5262 2.07233 15.7432 2.01447 15.9747 2C16.481 2.05787 16.9584 2.28933 17.3201 2.66546ZM10.2025 11.0271L11.0271 10.2025C11.1429 10.0868 11.1429 9.91321 11.0271 9.79748L10.2025 8.97287C10.0868 8.85714 9.91321 8.85714 9.79748 8.97287L8.97287 9.79748C8.85714 9.91321 8.85714 10.0868 8.97287 10.2025L9.79748 11.0271C9.89874 11.1284 10.0868 11.1284 10.2025 11.0271Z" fill="#0C162B" fill-opacity="0.8"/>
</svg>
