<svg width="20" height="20" viewBox="0 0 20 20" fill="none" xmlns="http://www.w3.org/2000/svg">
<path d="M12.804 11.588C12.804 12.004 12.696 12.396 12.48 12.764C12.272 13.124 11.96 13.424 11.544 13.664C11.136 13.896 10.652 14.032 10.092 14.072V15.044H9.32399V14.06C8.52399 13.988 7.87999 13.748 7.39199 13.34C6.90399 12.924 6.65199 12.364 6.63599 11.66H8.43599C8.48399 12.236 8.77999 12.584 9.32399 12.704V10.412C8.74799 10.268 8.28399 10.124 7.93199 9.98001C7.57999 9.83601 7.27599 9.60401 7.01999 9.28401C6.76399 8.96401 6.63599 8.52801 6.63599 7.97601C6.63599 7.28001 6.88399 6.71201 7.37999 6.27201C7.88399 5.83201 8.53199 5.58001 9.32399 5.51601V4.54401H10.092V5.51601C10.86 5.58001 11.472 5.81201 11.928 6.21201C12.392 6.61201 12.652 7.16401 12.708 7.86801H10.896C10.872 7.63601 10.788 7.43601 10.644 7.26801C10.508 7.09201 10.324 6.96801 10.092 6.89601V9.16401C10.692 9.31601 11.164 9.46401 11.508 9.60801C11.86 9.74401 12.164 9.97201 12.42 10.292C12.676 10.604 12.804 11.036 12.804 11.588ZM8.38799 7.89201C8.38799 8.15601 8.46799 8.37201 8.62799 8.54001C8.78799 8.70001 9.01999 8.83201 9.32399 8.93601V6.86001C9.03599 6.90001 8.80799 7.00801 8.63999 7.18401C8.47199 7.36001 8.38799 7.59601 8.38799 7.89201ZM10.092 12.728C10.396 12.672 10.632 12.548 10.8 12.356C10.976 12.164 11.064 11.932 11.064 11.66C11.064 11.396 10.98 11.184 10.812 11.024C10.644 10.864 10.404 10.732 10.092 10.628V12.728Z" fill="#0C162B" fill-opacity="0.8"/>
</svg>
