<svg width="20" height="20" viewBox="0 0 20 20" fill="none" xmlns="http://www.w3.org/2000/svg">
<path d="M10 14.9421C10.6192 15.4963 11.4369 15.8333 12.3333 15.8333C14.2663 15.8333 15.8333 14.2663 15.8333 12.3333C15.8333 10.7025 14.7179 9.33213 13.2083 8.9436" stroke="#0C162B" stroke-opacity="0.8" stroke-linejoin="round"/>
<path d="M6.79167 8.9436C5.2821 9.33213 4.16667 10.7025 4.16667 12.3333C4.16667 14.2663 5.73367 15.8333 7.66667 15.8333C9.59966 15.8333 11.1667 14.2663 11.1667 12.3333C11.1667 11.8814 11.081 11.4495 10.9251 11.0529" stroke="#0C162B" stroke-opacity="0.8" stroke-linejoin="round"/>
<path d="M10 11.1667C11.933 11.1667 13.5 9.59965 13.5 7.66666C13.5 5.73366 11.933 4.16666 10 4.16666C8.06701 4.16666 6.5 5.73366 6.5 7.66666C6.5 9.59965 8.06701 11.1667 10 11.1667Z" stroke="#0C162B" stroke-opacity="0.8" stroke-linejoin="round"/>
</svg>
