<svg width="48" height="48" viewBox="0 0 48 48" fill="none" xmlns="http://www.w3.org/2000/svg">
<path fill-rule="evenodd" clip-rule="evenodd" d="M24 44C12.9543 44 4 35.0457 4 24C4 12.9543 12.9543 4 24 4C35.0457 4 44 12.9543 44 24C44 35.0457 35.0457 44 24 44ZM24 32C19.5817 32 16 28.4183 16 24C16 19.5817 19.5817 16 24 16C28.4183 16 32 19.5817 32 24C32 28.4183 28.4183 32 24 32Z" fill="#0175F6"/>
<path d="M31.1395 27.613C31.6899 26.5278 32 25.3001 32 24C32 22.8387 31.7525 21.7351 31.3075 20.7393C35.3344 18.5822 39.0084 16.3768 41.7057 14.6903C43.1707 17.4709 44 20.6386 44 24C44 27.4151 43.144 30.6304 41.6348 33.4429C38.9065 31.8314 35.1969 29.7153 31.1395 27.613Z" fill="#CBE6FF"/>
<path d="M20.4824 16.8129C21.544 16.2923 22.7379 16 24 16C25.2818 16 26.4932 16.3014 27.5672 16.8373C29.7294 12.8087 31.9352 9.1396 33.6139 6.45798C30.7611 4.89115 27.4846 4 24 4C20.6162 4 17.4287 4.84035 14.6347 6.32373C16.2272 9.01111 18.3553 12.7261 20.4824 16.8129Z" fill="#CBE6FF"/>
<path d="M6.4871 33.6668C4.9022 30.8015 4 27.5061 4 24C4 20.5437 4.87675 17.2921 6.41998 14.4556C9.06 16.1147 12.7342 18.3347 16.7925 20.5243C16.2847 21.5753 16 22.7545 16 24C16 25.3823 16.3506 26.6828 16.9677 27.8172C12.8745 29.9507 9.16031 32.081 6.4871 33.6668Z" fill="#CBE6FF"/>
<path d="M33.6137 41.5421C30.761 43.1089 27.4846 44 24 44C20.6162 44 17.4288 43.1597 14.6348 41.6763C16.2274 38.9889 18.3555 35.2739 20.4825 31.1872C21.5441 31.7077 22.7379 32 24 32C25.2818 32 26.4931 31.6986 27.5671 31.1627C29.7293 35.1914 31.935 38.8605 33.6137 41.5421Z" fill="#CBE6FF"/>
</svg>
