<svg width="48" height="48" viewBox="0 0 48 48" fill="none" xmlns="http://www.w3.org/2000/svg">
<path fill-rule="evenodd" clip-rule="evenodd" d="M25.4005 4H25.3913H13.913C10.6474 4 8 6.64736 8 9.91304V38.087C8 41.3526 10.6474 44 13.913 44H33.7391C37.0048 44 39.6522 41.3526 39.6522 38.087V17.913V17.8458L25.4005 4Z" fill="#0175F6"/>
<path fill-rule="evenodd" clip-rule="evenodd" d="M25.4005 4H25.3913V14.087C25.3913 16.2 27.1043 17.913 29.2174 17.913H39.6522V17.8458L25.4005 4Z" fill="#CBE7FF"/>
<path d="M18.5334 36.04C18.0077 36.04 17.5603 35.9533 17.1912 35.7799C16.8277 35.601 16.5453 35.3437 16.3439 35.0082C16.1426 34.667 16.0308 34.2532 16.0084 33.7666C16.0028 33.5373 16 33.2912 16 33.0284C16 32.7655 16.0028 32.5139 16.0084 32.2734C16.0308 31.7924 16.1426 31.3842 16.3439 31.0486C16.5509 30.7075 16.8389 30.4474 17.208 30.2684C17.5771 30.0895 18.0189 30 18.5334 30C18.9081 30 19.2493 30.0475 19.5569 30.1426C19.8645 30.2377 20.1301 30.3747 20.3538 30.5537C20.5775 30.7326 20.7509 30.9424 20.8739 31.1828C20.997 31.4233 21.0641 31.6918 21.0753 31.9882C21.0753 32.0385 21.0557 32.0804 21.0166 32.114C20.983 32.1476 20.9411 32.1643 20.8907 32.1643H19.9344C19.8673 32.1643 19.8141 32.1476 19.775 32.114C19.7359 32.0804 19.7051 32.0245 19.6827 31.9462C19.5988 31.6163 19.459 31.3898 19.2633 31.2667C19.0675 31.1437 18.8243 31.0822 18.5334 31.0822C18.1867 31.0822 17.9127 31.1772 17.7113 31.3674C17.51 31.5575 17.4009 31.8735 17.3842 32.3153C17.3674 32.7739 17.3674 33.2437 17.3842 33.7247C17.4009 34.1665 17.51 34.4825 17.7113 34.6726C17.9127 34.8628 18.1867 34.9578 18.5334 34.9578C18.8243 34.9578 19.0675 34.8963 19.2633 34.7733C19.4646 34.6446 19.6044 34.4181 19.6827 34.0938C19.7051 34.0099 19.7359 33.954 19.775 33.926C19.8141 33.8924 19.8673 33.8757 19.9344 33.8757H20.8907C20.9411 33.8757 20.983 33.8924 21.0166 33.926C21.0557 33.9596 21.0753 34.0015 21.0753 34.0518C21.0641 34.3482 20.997 34.6167 20.8739 34.8572C20.7509 35.0976 20.5775 35.3074 20.3538 35.4863C20.1301 35.6653 19.8645 35.8023 19.5569 35.8974C19.2493 35.9925 18.9081 36.04 18.5334 36.04Z" fill="white"/>
<path d="M24.1318 36.04C23.595 36.04 23.1448 35.9617 22.7812 35.8051C22.4233 35.6485 22.1521 35.4444 21.9675 35.1927C21.783 34.9411 21.6851 34.6726 21.6739 34.3874C21.6739 34.3426 21.6907 34.3035 21.7242 34.2699C21.7578 34.2308 21.7997 34.2112 21.8501 34.2112H22.7477C22.8204 34.2112 22.8763 34.228 22.9155 34.2616C22.9546 34.2895 22.991 34.3259 23.0245 34.3706C23.0637 34.4657 23.1252 34.558 23.2091 34.6474C23.2986 34.7369 23.4188 34.8124 23.5698 34.8739C23.7208 34.9299 23.9081 34.9578 24.1318 34.9578C24.4954 34.9578 24.7666 34.8991 24.9456 34.7817C25.1301 34.6642 25.2224 34.5048 25.2224 34.3035C25.2224 34.1581 25.1721 34.0406 25.0714 33.9512C24.9763 33.8617 24.8225 33.7806 24.61 33.7079C24.4031 33.6352 24.1263 33.5569 23.7795 33.473C23.3601 33.3835 23.0021 33.2689 22.7057 33.1291C22.4149 32.9836 22.194 32.7991 22.043 32.5754C21.8976 32.3461 21.8249 32.0637 21.8249 31.7281C21.8249 31.3926 21.9172 31.0961 22.1017 30.8389C22.2863 30.576 22.5463 30.3719 22.8819 30.2265C23.2175 30.0755 23.6173 30 24.0815 30C24.4562 30 24.7862 30.0503 25.0714 30.151C25.3622 30.2517 25.6027 30.3831 25.7928 30.5453C25.9886 30.7075 26.1368 30.8808 26.2375 31.0654C26.3381 31.2499 26.3913 31.4289 26.3968 31.6023C26.3968 31.647 26.3801 31.689 26.3465 31.7281C26.313 31.7617 26.271 31.7784 26.2207 31.7784H25.2811C25.2252 31.7784 25.1749 31.7673 25.1301 31.7449C25.0854 31.7225 25.049 31.6834 25.0211 31.6274C24.9875 31.482 24.8868 31.3562 24.7191 31.2499C24.5569 31.1381 24.3444 31.0822 24.0815 31.0822C23.8075 31.0822 23.5894 31.1325 23.4272 31.2332C23.2706 31.3338 23.1923 31.4876 23.1923 31.6946C23.1923 31.8288 23.2314 31.9434 23.3097 32.0385C23.3936 32.128 23.5306 32.2091 23.7208 32.2818C23.9165 32.3489 24.1738 32.4244 24.4926 32.5083C24.9847 32.6089 25.3846 32.7292 25.6922 32.869C25.9998 33.0088 26.2263 33.1906 26.3717 33.4143C26.5171 33.6324 26.5898 33.9092 26.5898 34.2448C26.5898 34.6195 26.4835 34.9411 26.271 35.2095C26.0641 35.4779 25.7761 35.6849 25.407 35.8303C25.0434 35.9701 24.6184 36.04 24.1318 36.04Z" fill="white"/>
<path d="M28.98 35.9561C28.8906 35.9561 28.8179 35.9337 28.7619 35.889C28.7116 35.8387 28.6752 35.7799 28.6529 35.7128L26.8912 30.3356C26.8856 30.3076 26.8828 30.2824 26.8828 30.2601C26.8828 30.2153 26.8996 30.1762 26.9331 30.1426C26.9667 30.1035 27.0086 30.0839 27.059 30.0839H27.9398C28.0237 30.0839 28.088 30.1091 28.1328 30.1594C28.1831 30.2041 28.2139 30.2461 28.225 30.2852L29.5337 34.3874L30.834 30.2852C30.8508 30.2461 30.8815 30.2041 30.9263 30.1594C30.971 30.1091 31.0353 30.0839 31.1192 30.0839H32C32.0504 30.0839 32.0923 30.1035 32.1259 30.1426C32.1594 30.1762 32.1762 30.2153 32.1762 30.2601C32.1762 30.2824 32.1734 30.3076 32.1678 30.3356L30.4061 35.7128C30.3894 35.7799 30.353 35.8387 30.2971 35.889C30.2468 35.9337 30.1741 35.9561 30.079 35.9561H28.98Z" fill="white"/>
</svg>
