<svg width="48" height="48" viewBox="0 0 48 48" fill="none" xmlns="http://www.w3.org/2000/svg">
<path fill-rule="evenodd" clip-rule="evenodd" d="M25.4005 4H25.3913H13.913C10.6474 4 8 6.64736 8 9.91304V38.087C8 41.3526 10.6474 44 13.913 44H33.7391C37.0048 44 39.6522 41.3526 39.6522 38.087V17.913V17.8458L25.4005 4Z" fill="#0175F6"/>
<path fill-rule="evenodd" clip-rule="evenodd" d="M25.4005 4H25.3913V14.087C25.3913 16.2 27.1043 17.913 29.2174 17.913H39.6522V17.8458L25.4005 4Z" fill="#CBE7FF"/>
<path d="M11.1979 35.1144C11.1398 35.1144 11.0923 35.0949 11.0554 35.0559C11.0185 35.0169 11 34.9667 11 34.9053V29.4684C11 29.4071 11.0185 29.3569 11.0554 29.3179C11.0923 29.2788 11.1398 29.2593 11.1979 29.2593H11.9181C11.9972 29.2593 12.0552 29.2788 12.0922 29.3179C12.1291 29.3569 12.1528 29.3876 12.1634 29.4099L14.2765 32.8979V29.4684C14.2765 29.4071 14.295 29.3569 14.3319 29.3179C14.3688 29.2788 14.4137 29.2593 14.4665 29.2593H15.2737C15.3317 29.2593 15.3792 29.2788 15.4162 29.3179C15.4531 29.3569 15.4716 29.4071 15.4716 29.4684V34.9053C15.4716 34.9611 15.4531 35.0113 15.4162 35.0559C15.3792 35.0949 15.3317 35.1144 15.2737 35.1144H14.5456C14.4665 35.1144 14.4084 35.0949 14.3715 35.0559C14.3398 35.0113 14.3161 34.9806 14.3003 34.9639L12.1951 31.5846V34.9053C12.1951 34.9667 12.1766 35.0169 12.1397 35.0559C12.1027 35.0949 12.0552 35.1144 11.9972 35.1144H11.1979Z" fill="white"/>
<path d="M18.0824 35.1981C17.8186 35.1981 17.5838 35.1535 17.378 35.0643C17.1723 34.9695 16.9982 34.8356 16.8557 34.6628C16.7132 34.4843 16.6051 34.2752 16.5312 34.0354C16.4573 33.7901 16.4125 33.5196 16.3967 33.2241C16.3914 33.1181 16.3888 33.0233 16.3888 32.9397C16.3888 32.8505 16.3914 32.7557 16.3967 32.6553C16.4072 32.3653 16.4494 32.1004 16.5233 31.8607C16.6024 31.6209 16.7106 31.4146 16.8478 31.2417C16.9902 31.0632 17.1644 30.9266 17.3701 30.8318C17.5812 30.7315 17.8186 30.6813 18.0824 30.6813C18.3568 30.6813 18.5916 30.7315 18.7868 30.8318C18.982 30.9266 19.1429 31.0521 19.2696 31.2082V29.3848C19.2696 29.3234 19.288 29.2732 19.325 29.2342C19.3619 29.1952 19.4094 29.1757 19.4674 29.1757H20.2826C20.3353 29.1757 20.3802 29.1952 20.4171 29.2342C20.4541 29.2732 20.4725 29.3234 20.4725 29.3848V34.9053C20.4725 34.9667 20.4541 35.0169 20.4171 35.0559C20.3802 35.0949 20.3353 35.1144 20.2826 35.1144H19.5228C19.47 35.1144 19.4252 35.0949 19.3883 35.0559C19.3513 35.0169 19.3329 34.9667 19.3329 34.9053V34.6209C19.201 34.7882 19.0348 34.9276 18.8343 35.0392C18.6338 35.1451 18.3832 35.1981 18.0824 35.1981ZM18.4465 34.1944C18.6417 34.1944 18.7973 34.147 18.9134 34.0522C19.0348 33.9574 19.1218 33.8375 19.1746 33.6925C19.2326 33.5475 19.2643 33.3914 19.2696 33.2241C19.2801 33.1181 19.2854 33.0122 19.2854 32.9062C19.2854 32.8003 19.2801 32.6971 19.2696 32.5967C19.2643 32.4406 19.2326 32.2956 19.1746 32.1618C19.1165 32.0224 19.0268 31.9081 18.9055 31.8188C18.7894 31.7296 18.6364 31.685 18.4465 31.685C18.246 31.685 18.0877 31.7324 17.9716 31.8272C17.8555 31.9164 17.7711 32.0363 17.7184 32.1869C17.6709 32.3374 17.6418 32.5019 17.6313 32.6804C17.6155 32.8532 17.6155 33.0261 17.6313 33.199C17.6418 33.3774 17.6709 33.5419 17.7184 33.6925C17.7711 33.843 17.8555 33.9657 17.9716 34.0605C18.0877 34.1497 18.246 34.1944 18.4465 34.1944Z" fill="white"/>
<path d="M20.7896 36.7037C20.7316 36.7037 20.6841 36.6842 20.6472 36.6452C20.6103 36.6061 20.5918 36.5559 20.5918 36.4946V35.9258C20.5918 35.8645 20.6103 35.8143 20.6472 35.7752C20.6841 35.7362 20.7316 35.7167 20.7896 35.7167H21.0429C21.1854 35.7167 21.2935 35.686 21.3674 35.6247C21.4465 35.5689 21.4993 35.4909 21.5257 35.3905C21.5521 35.2901 21.5652 35.1786 21.5652 35.0559V30.974C21.5652 30.9127 21.5837 30.8625 21.6206 30.8235C21.6576 30.7844 21.7024 30.7649 21.7552 30.7649H22.5862C22.639 30.7649 22.6838 30.7844 22.7207 30.8235C22.7577 30.8625 22.7761 30.9127 22.7761 30.974V35.081C22.7761 35.4211 22.7155 35.7111 22.5941 35.9509C22.4728 36.1963 22.2907 36.3831 22.048 36.5113C21.8106 36.6396 21.5151 36.7037 21.1616 36.7037H20.7896ZM21.7314 30.0957C21.6787 30.0957 21.6338 30.0762 21.5969 30.0372C21.56 29.9982 21.5415 29.948 21.5415 29.8866V29.2175C21.5415 29.1561 21.56 29.106 21.5969 29.0669C21.6338 29.0223 21.6787 29 21.7314 29H22.602C22.6601 29 22.7075 29.0223 22.7445 29.0669C22.7814 29.106 22.7999 29.1561 22.7999 29.2175V29.8866C22.7999 29.948 22.7814 29.9982 22.7445 30.0372C22.7075 30.0762 22.6601 30.0957 22.602 30.0957H21.7314Z" fill="white"/>
<path d="M25.5197 35.1981C25.1926 35.1981 24.9103 35.1591 24.6729 35.081C24.4407 34.9973 24.2508 34.897 24.1031 34.7799C23.9606 34.6628 23.8525 34.5457 23.7786 34.4286C23.71 34.3059 23.6731 34.2027 23.6678 34.1191C23.6625 34.0577 23.681 34.0075 23.7232 33.9685C23.7654 33.9295 23.8076 33.91 23.8498 33.91H24.6175C24.6333 33.91 24.6492 33.9128 24.665 33.9183C24.6808 33.9239 24.6966 33.9378 24.7125 33.9601C24.7811 34.0103 24.8523 34.0689 24.9262 34.1358C25 34.1971 25.0844 34.2501 25.1794 34.2947C25.2797 34.3393 25.4037 34.3616 25.5514 34.3616C25.7255 34.3616 25.8732 34.3254 25.9946 34.2529C26.1159 34.1748 26.1766 34.0661 26.1766 33.9267C26.1766 33.8263 26.1476 33.7427 26.0896 33.6758C26.0368 33.6088 25.9339 33.5475 25.7809 33.4917C25.6279 33.436 25.401 33.3746 25.1003 33.3077C24.8154 33.2408 24.5727 33.1516 24.3722 33.0401C24.1717 32.9285 24.0213 32.7891 23.921 32.6218C23.8208 32.449 23.7707 32.2426 23.7707 32.0029C23.7707 31.7854 23.834 31.5763 23.9606 31.3755C24.0925 31.1748 24.2851 31.0103 24.5384 30.882C24.7916 30.7482 25.1082 30.6813 25.4881 30.6813C25.7783 30.6813 26.0315 30.7203 26.2478 30.7984C26.4694 30.8709 26.6541 30.9657 26.8018 31.0828C26.9496 31.1943 27.0604 31.3114 27.1342 31.4341C27.2134 31.5512 27.2556 31.6543 27.2609 31.7436C27.2661 31.7993 27.2503 31.8467 27.2134 31.8858C27.1764 31.9248 27.1342 31.9443 27.0868 31.9443H26.3824C26.356 31.9443 26.3323 31.9415 26.3112 31.9359C26.2901 31.9248 26.2716 31.9108 26.2558 31.8941C26.1924 31.8495 26.1265 31.7993 26.0579 31.7436C25.9946 31.6822 25.9181 31.6292 25.8284 31.5846C25.7387 31.54 25.6226 31.5177 25.4802 31.5177C25.306 31.5177 25.1715 31.5595 25.0765 31.6432C24.9868 31.7213 24.942 31.8216 24.942 31.9443C24.942 32.0224 24.9657 32.0949 25.0132 32.1618C25.0607 32.2287 25.1583 32.29 25.306 32.3458C25.4538 32.4016 25.678 32.4601 25.9788 32.5215C26.3375 32.5884 26.6224 32.6887 26.8335 32.8226C27.0445 32.9564 27.1949 33.1125 27.2846 33.291C27.3796 33.4639 27.4271 33.6507 27.4271 33.8514C27.4271 34.1135 27.3532 34.3477 27.2055 34.554C27.0577 34.7548 26.8414 34.9137 26.5565 35.0308C26.2769 35.1423 25.9313 35.1981 25.5197 35.1981Z" fill="white"/>
<path d="M30.0704 35.1981C29.6325 35.1981 29.2658 35.1228 28.9703 34.9723C28.6748 34.8161 28.4479 34.5958 28.2897 34.3115C28.1367 34.0271 28.0522 33.6953 28.0364 33.3161C28.0311 33.2046 28.0285 33.0791 28.0285 32.9397C28.0285 32.7947 28.0311 32.6692 28.0364 32.5633C28.0522 32.1785 28.1419 31.8467 28.3055 31.5679C28.4691 31.2835 28.6986 31.066 28.994 30.9155C29.2895 30.7593 29.6483 30.6813 30.0704 30.6813C30.4872 30.6813 30.8433 30.7593 31.1388 30.9155C31.4343 31.066 31.6638 31.2835 31.8273 31.5679C31.9909 31.8467 32.0806 32.1785 32.0964 32.5633C32.107 32.6692 32.1123 32.7947 32.1123 32.9397C32.1123 33.0791 32.107 33.2046 32.0964 33.3161C32.0806 33.6953 31.9935 34.0271 31.8353 34.3115C31.6822 34.5958 31.458 34.8161 31.1625 34.9723C30.8671 35.1228 30.503 35.1981 30.0704 35.1981ZM30.0704 34.278C30.3289 34.278 30.5241 34.1944 30.656 34.0271C30.7879 33.8542 30.8592 33.6033 30.8697 33.2743C30.875 33.1906 30.8776 33.0791 30.8776 32.9397C30.8776 32.8003 30.875 32.6887 30.8697 32.6051C30.8592 32.2817 30.7879 32.0335 30.656 31.8607C30.5241 31.6878 30.3289 31.6014 30.0704 31.6014C29.8118 31.6014 29.614 31.6878 29.4768 31.8607C29.3449 32.0335 29.2737 32.2817 29.2631 32.6051C29.2578 32.6887 29.2552 32.8003 29.2552 32.9397C29.2552 33.0791 29.2578 33.1906 29.2631 33.2743C29.2737 33.6033 29.3449 33.8542 29.4768 34.0271C29.614 34.1944 29.8118 34.278 30.0704 34.278Z" fill="white"/>
<path d="M33.1299 35.1144C33.0772 35.1144 33.0323 35.0949 32.9954 35.0559C32.9584 35.0169 32.94 34.9667 32.94 34.9053V30.974C32.94 30.9127 32.9584 30.8625 32.9954 30.8235C33.0323 30.7844 33.0772 30.7649 33.1299 30.7649H33.9055C33.9636 30.7649 34.011 30.7844 34.048 30.8235C34.0849 30.8625 34.1034 30.9127 34.1034 30.974V31.3002C34.2406 31.1218 34.4173 30.974 34.6336 30.8569C34.85 30.7398 35.1138 30.6813 35.4251 30.6813C35.7364 30.6813 36.0081 30.7565 36.2402 30.9071C36.4777 31.0521 36.6623 31.2668 36.7942 31.5512C36.9314 31.83 37 32.1701 37 32.5716V34.9053C37 34.9667 36.9789 35.0169 36.9367 35.0559C36.8998 35.0949 36.8549 35.1144 36.8021 35.1144H35.9632C35.9052 35.1144 35.8577 35.0949 35.8208 35.0559C35.7838 35.0169 35.7654 34.9667 35.7654 34.9053V32.6218C35.7654 32.3263 35.6968 32.0977 35.5596 31.9359C35.4277 31.7686 35.2325 31.685 34.9739 31.685C34.726 31.685 34.5281 31.7686 34.3804 31.9359C34.2326 32.0977 34.1588 32.3263 34.1588 32.6218V34.9053C34.1588 34.9667 34.1403 35.0169 34.1034 35.0559C34.0664 35.0949 34.0216 35.1144 33.9688 35.1144H33.1299Z" fill="white"/>
</svg>
