<svg width="48" height="48" viewBox="0 0 48 48" fill="none" xmlns="http://www.w3.org/2000/svg">
<path fill-rule="evenodd" clip-rule="evenodd" d="M25.4005 4H25.3913H13.913C10.6474 4 8 6.64736 8 9.91304V38.087C8 41.3526 10.6474 44 13.913 44H33.7391C37.0048 44 39.6522 41.3526 39.6522 38.087V17.913V17.8458L25.4005 4Z" fill="#0175F6"/>
<path fill-rule="evenodd" clip-rule="evenodd" d="M25.4005 4H25.3913V14.087C25.3913 16.2 27.1043 17.913 29.2174 17.913H39.6522V17.8458L25.4005 4Z" fill="#CBE7FF"/>
<path d="M11.1667 34.7333C11.1178 34.7333 11.0778 34.7178 11.0467 34.6867C11.0156 34.6556 11 34.6156 11 34.5667V30.2333C11 30.1844 11.0156 30.1444 11.0467 30.1133C11.0778 30.0822 11.1178 30.0667 11.1667 30.0667H12.9867C13.3467 30.0667 13.6578 30.1222 13.92 30.2333C14.1867 30.3444 14.3933 30.5133 14.54 30.74C14.6911 30.9622 14.7667 31.24 14.7667 31.5733C14.7667 31.9111 14.6911 32.1911 14.54 32.4133C14.3933 32.6311 14.1867 32.7933 13.92 32.9C13.6578 33.0067 13.3467 33.06 12.9867 33.06H12.0933V34.5667C12.0933 34.6156 12.0778 34.6556 12.0467 34.6867C12.0156 34.7178 11.9756 34.7333 11.9267 34.7333H11.1667ZM12.0733 32.2333H12.9533C13.18 32.2333 13.3556 32.1778 13.48 32.0667C13.6089 31.9556 13.6733 31.7889 13.6733 31.5667C13.6733 31.3711 13.6156 31.2111 13.5 31.0867C13.3889 30.9622 13.2067 30.9 12.9533 30.9H12.0733V32.2333Z" fill="white"/>
<path d="M16.3217 34.8C16.0861 34.8 15.875 34.7556 15.6883 34.6667C15.5017 34.5733 15.3528 34.4489 15.2417 34.2933C15.1306 34.1378 15.075 33.9644 15.075 33.7733C15.075 33.4578 15.2017 33.2089 15.455 33.0267C15.7128 32.8444 16.0506 32.72 16.4683 32.6533L17.3417 32.5267V32.4067C17.3417 32.2333 17.3017 32.1 17.2217 32.0067C17.1417 31.9133 17.0017 31.8667 16.8017 31.8667C16.655 31.8667 16.5372 31.8956 16.4483 31.9533C16.3594 32.0111 16.2906 32.0867 16.2417 32.18C16.2061 32.2378 16.155 32.2667 16.0883 32.2667H15.455C15.4061 32.2667 15.3683 32.2533 15.3417 32.2267C15.315 32.1956 15.3039 32.16 15.3083 32.12C15.3083 32.0444 15.3372 31.9556 15.395 31.8533C15.4528 31.7511 15.5417 31.6511 15.6617 31.5533C15.7817 31.4511 15.935 31.3667 16.1217 31.3C16.3083 31.2333 16.5372 31.2 16.8083 31.2C17.0883 31.2 17.3283 31.2333 17.5283 31.3C17.7283 31.3667 17.8883 31.46 18.0083 31.58C18.1283 31.7 18.2172 31.84 18.275 32C18.3328 32.1556 18.3617 32.3244 18.3617 32.5067V34.5667C18.3617 34.6156 18.3461 34.6556 18.315 34.6867C18.2839 34.7178 18.2439 34.7333 18.195 34.7333H17.5417C17.4972 34.7333 17.4594 34.7178 17.4283 34.6867C17.3972 34.6556 17.3817 34.6156 17.3817 34.5667V34.32C17.3239 34.4044 17.2461 34.4844 17.1483 34.56C17.0506 34.6311 16.9328 34.6889 16.795 34.7333C16.6617 34.7778 16.5039 34.8 16.3217 34.8ZM16.5883 34.1067C16.735 34.1067 16.8661 34.0756 16.9817 34.0133C17.0972 33.9511 17.1883 33.8556 17.255 33.7267C17.3217 33.5978 17.355 33.4356 17.355 33.24V33.1267L16.735 33.2267C16.495 33.2667 16.3194 33.3267 16.2083 33.4067C16.0972 33.4867 16.0417 33.5844 16.0417 33.7C16.0417 33.7844 16.0661 33.8578 16.115 33.92C16.1683 33.9822 16.2372 34.0289 16.3217 34.06C16.4061 34.0911 16.495 34.1067 16.5883 34.1067Z" fill="white"/>
<path d="M19.3289 34.7333C19.2844 34.7333 19.2466 34.7178 19.2155 34.6867C19.1844 34.6556 19.1689 34.6156 19.1689 34.5667V31.4333C19.1689 31.3889 19.1844 31.3511 19.2155 31.32C19.2466 31.2844 19.2844 31.2667 19.3289 31.2667H19.9822C20.0266 31.2667 20.0644 31.2844 20.0955 31.32C20.1311 31.3511 20.1489 31.3889 20.1489 31.4333V31.7C20.26 31.5622 20.3955 31.4556 20.5555 31.38C20.72 31.3044 20.9089 31.2667 21.1222 31.2667H21.4089C21.4533 31.2667 21.4911 31.2822 21.5222 31.3133C21.5533 31.3444 21.5689 31.3844 21.5689 31.4333V32.0067C21.5689 32.0556 21.5533 32.0956 21.5222 32.1267C21.4911 32.1578 21.4533 32.1733 21.4089 32.1733H20.8222C20.6266 32.1733 20.4733 32.2289 20.3622 32.34C20.2511 32.4467 20.1955 32.6 20.1955 32.8V34.5667C20.1955 34.6156 20.18 34.6556 20.1489 34.6867C20.1177 34.7178 20.0777 34.7333 20.0289 34.7333H19.3289Z" fill="white"/>
<path d="M24.4803 36C24.4358 36 24.398 35.9844 24.3669 35.9533C24.3358 35.9222 24.3203 35.8822 24.3203 35.8333V34.34C24.2136 34.4822 24.0758 34.5956 23.9069 34.68C23.7425 34.76 23.5469 34.8 23.3203 34.8C23.0936 34.8 22.8936 34.7622 22.7203 34.6867C22.5469 34.6111 22.4003 34.5044 22.2803 34.3667C22.1603 34.2289 22.0691 34.0644 22.0069 33.8733C21.9447 33.6822 21.9091 33.4733 21.9003 33.2467C21.8958 33.1578 21.8936 33.0756 21.8936 33C21.8936 32.9244 21.8958 32.8444 21.9003 32.76C21.9091 32.52 21.9447 32.3044 22.0069 32.1133C22.0736 31.9222 22.1647 31.76 22.2803 31.6267C22.4003 31.4889 22.5469 31.3844 22.7203 31.3133C22.8936 31.2378 23.0936 31.2 23.3203 31.2C23.5736 31.2 23.7847 31.2467 23.9536 31.34C24.1269 31.4289 24.2647 31.5444 24.3669 31.6867V31.4333C24.3669 31.3844 24.3825 31.3444 24.4136 31.3133C24.4447 31.2822 24.4847 31.2667 24.5336 31.2667H25.1669C25.2158 31.2667 25.2558 31.2822 25.2869 31.3133C25.318 31.3444 25.3336 31.3844 25.3336 31.4333V35.8333C25.3336 35.8822 25.318 35.9222 25.2869 35.9533C25.2558 35.9844 25.2158 36 25.1669 36H24.4803ZM23.6203 34C23.7803 34 23.9092 33.9644 24.0069 33.8933C24.1091 33.8222 24.1847 33.7333 24.2336 33.6267C24.2869 33.5156 24.3158 33.3978 24.3203 33.2733C24.3247 33.1889 24.3269 33.1044 24.3269 33.02C24.3269 32.9356 24.3247 32.8533 24.3203 32.7733C24.3158 32.64 24.2892 32.5156 24.2403 32.4C24.1958 32.2844 24.1225 32.1889 24.0203 32.1133C23.9225 32.0378 23.7892 32 23.6203 32C23.4558 32 23.3225 32.0378 23.2203 32.1133C23.1225 32.1844 23.0514 32.28 23.0069 32.4C22.9669 32.52 22.9425 32.6511 22.9336 32.7933C22.9247 32.9311 22.9247 33.0689 22.9336 33.2067C22.9425 33.3489 22.9669 33.48 23.0069 33.6C23.0514 33.72 23.1225 33.8178 23.2203 33.8933C23.3225 33.9644 23.4558 34 23.6203 34Z" fill="white"/>
<path d="M27.4474 34.8C27.1896 34.8 26.9607 34.7422 26.7607 34.6267C26.5652 34.5067 26.4118 34.3356 26.3007 34.1133C26.1941 33.8867 26.1407 33.6133 26.1407 33.2933V31.4333C26.1407 31.3844 26.1563 31.3444 26.1874 31.3133C26.2185 31.2822 26.2563 31.2667 26.3007 31.2667H27.0074C27.0563 31.2667 27.0963 31.2822 27.1274 31.3133C27.1585 31.3444 27.1741 31.3844 27.1741 31.4333V33.2533C27.1741 33.7511 27.3918 34 27.8274 34C28.0363 34 28.2007 33.9356 28.3207 33.8067C28.4452 33.6733 28.5074 33.4889 28.5074 33.2533V31.4333C28.5074 31.3844 28.523 31.3444 28.5541 31.3133C28.5852 31.2822 28.6252 31.2667 28.6741 31.2667H29.3807C29.4252 31.2667 29.463 31.2822 29.4941 31.3133C29.5252 31.3444 29.5407 31.3844 29.5407 31.4333V34.5667C29.5407 34.6156 29.5252 34.6556 29.4941 34.6867C29.463 34.7178 29.4252 34.7333 29.3807 34.7333H28.7274C28.6785 34.7333 28.6385 34.7178 28.6074 34.6867C28.5763 34.6556 28.5607 34.6156 28.5607 34.5667V34.3067C28.4452 34.4667 28.2963 34.5889 28.1141 34.6733C27.9318 34.7578 27.7096 34.8 27.4474 34.8Z" fill="white"/>
<path d="M31.9265 34.8C31.4153 34.8 31.0087 34.6578 30.7065 34.3733C30.4087 34.0889 30.2509 33.6756 30.2331 33.1333C30.2331 33.0978 30.2331 33.0511 30.2331 32.9933C30.2331 32.9311 30.2331 32.8822 30.2331 32.8467C30.2509 32.5044 30.3287 32.2111 30.4665 31.9667C30.6042 31.7178 30.7976 31.5289 31.0465 31.4C31.2953 31.2667 31.5865 31.2 31.9198 31.2C32.2931 31.2 32.6042 31.2778 32.8531 31.4333C33.1065 31.5844 33.2953 31.7933 33.4198 32.06C33.5487 32.3222 33.6131 32.6244 33.6131 32.9667V33.12C33.6131 33.1644 33.5953 33.2022 33.5598 33.2333C33.5287 33.2644 33.4909 33.28 33.4465 33.28H31.2665C31.2665 33.2844 31.2665 33.2933 31.2665 33.3067C31.2665 33.3156 31.2665 33.3244 31.2665 33.3333C31.2709 33.4756 31.2976 33.6067 31.3465 33.7267C31.3998 33.8422 31.4731 33.9356 31.5665 34.0067C31.6642 34.0778 31.7798 34.1133 31.9131 34.1133C32.0242 34.1133 32.1153 34.0978 32.1865 34.0667C32.2576 34.0356 32.3153 33.9978 32.3598 33.9533C32.4087 33.9089 32.4442 33.8711 32.4665 33.84C32.5065 33.7956 32.5376 33.7689 32.5598 33.76C32.5865 33.7467 32.6265 33.74 32.6798 33.74H33.3731C33.4176 33.74 33.4531 33.7533 33.4798 33.78C33.5109 33.8022 33.5242 33.8356 33.5198 33.88C33.5153 33.9511 33.4776 34.04 33.4065 34.1467C33.3398 34.2489 33.2398 34.3511 33.1065 34.4533C32.9731 34.5511 32.8065 34.6333 32.6065 34.7C32.4109 34.7667 32.1842 34.8 31.9265 34.8ZM31.2665 32.6733H32.5731V32.66C32.5731 32.5 32.5465 32.3622 32.4931 32.2467C32.4442 32.1267 32.3709 32.0333 32.2731 31.9667C32.1753 31.9 32.0576 31.8667 31.9198 31.8667C31.782 31.8667 31.6642 31.9 31.5665 31.9667C31.4687 32.0333 31.3931 32.1267 31.3398 32.2467C31.2909 32.3622 31.2665 32.5 31.2665 32.66V32.6733Z" fill="white"/>
<path d="M35.9332 34.7333C35.6576 34.7333 35.4221 34.6889 35.2265 34.6C35.031 34.5067 34.8821 34.3644 34.7798 34.1733C34.6821 33.9822 34.6332 33.7422 34.6332 33.4533V32.0533H34.1132C34.0643 32.0533 34.0243 32.0378 33.9932 32.0067C33.9621 31.9756 33.9465 31.9356 33.9465 31.8867V31.4333C33.9465 31.3844 33.9621 31.3444 33.9932 31.3133C34.0243 31.2822 34.0643 31.2667 34.1132 31.2667H34.6332V30.1667C34.6332 30.1178 34.6487 30.0778 34.6798 30.0467C34.7154 30.0156 34.7554 30 34.7998 30H35.4532C35.5021 30 35.5421 30.0156 35.5732 30.0467C35.6043 30.0778 35.6198 30.1178 35.6198 30.1667V31.2667H36.4532C36.4976 31.2667 36.5354 31.2822 36.5665 31.3133C36.5976 31.3444 36.6132 31.3844 36.6132 31.4333V31.8867C36.6132 31.9356 36.5976 31.9756 36.5665 32.0067C36.5354 32.0378 36.4976 32.0533 36.4532 32.0533H35.6198V33.3733C35.6198 33.5422 35.6487 33.6756 35.7065 33.7733C35.7687 33.8667 35.8754 33.9133 36.0265 33.9133H36.5132C36.5576 33.9133 36.5954 33.9289 36.6265 33.96C36.6576 33.9911 36.6732 34.0289 36.6732 34.0733V34.5667C36.6732 34.6156 36.6576 34.6556 36.6265 34.6867C36.5954 34.7178 36.5576 34.7333 36.5132 34.7333H35.9332Z" fill="white"/>
</svg>
