<svg width="20" height="20" viewBox="0 0 20 20" fill="none" xmlns="http://www.w3.org/2000/svg">
<path d="M17.4291 6.7691C17.4973 6.69412 17.4905 6.58052 17.4155 6.51235C17.3814 6.48282 17.3382 6.46464 17.2951 6.46464H15.6455C15.591 6.46464 15.541 6.48736 15.5069 6.52826L12.7145 9.82732C12.6487 9.90457 12.5351 9.91366 12.4578 9.84777C12.4374 9.82959 12.4214 9.80915 12.4101 9.78415L10.9673 6.5737C10.9378 6.50781 10.8742 6.46691 10.8015 6.46691H6.97072L6.99117 6.36013L7.17294 5.39903C7.41151 4.1403 8.03633 3.54956 9.12238 3.54956C9.54499 3.54956 9.92897 3.58819 10.2312 3.65635L10.5515 2.1386C10.038 2.03181 9.75175 2 9.30415 2C6.95709 2 5.75061 3.00653 5.30756 5.34678L5.09398 6.46918H2.87643C2.79009 6.46918 2.71511 6.53053 2.69921 6.6146L2.45382 7.79154C2.43337 7.88924 2.49699 7.98694 2.59469 8.00738C2.60605 8.00966 2.61968 8.01193 2.63105 8.01193H4.77362L2.75147 17.7796C2.73102 17.8773 2.79464 17.975 2.89233 17.9955C2.90369 17.9977 2.91733 18 2.92869 18H4.43281C4.51915 18 4.59412 17.9387 4.61003 17.8546L6.64809 8.0142H9.73357L11.2831 11.1747C11.3149 11.2406 11.3059 11.3201 11.2559 11.3746L7.15249 15.9869C7.0866 16.0619 7.09341 16.1778 7.16839 16.2437C7.20247 16.2732 7.24564 16.2891 7.28881 16.2891H8.94062C8.99515 16.2891 9.04513 16.2664 9.07921 16.2255L11.8898 12.8924C11.9534 12.8151 12.0693 12.806 12.1465 12.8696C12.167 12.8878 12.1829 12.9083 12.1942 12.9333L13.6893 16.1755C13.7188 16.2391 13.7824 16.2823 13.8551 16.2823H15.3229C15.4229 16.2823 15.5047 16.2005 15.5047 16.1005C15.5047 16.0733 15.4978 16.046 15.4865 16.021L13.3235 11.5018C13.2917 11.436 13.303 11.3564 13.353 11.3019L17.4291 6.7691Z" fill="#0C162B" fill-opacity="0.8"/>
</svg>
