<svg width="20" height="20" viewBox="0 0 20 20" fill="none" xmlns="http://www.w3.org/2000/svg">
<path d="M14.9 16.3L16.0867 13.0363C16.2083 12.7022 16.06 12.33 15.742 12.171L10.313 9.45652C10.116 9.358 9.88398 9.358 9.68693 9.45652L4.25798 12.171C3.93996 12.33 3.79166 12.7022 3.91317 13.0363L5.09997 16.3" stroke="#0C162B" stroke-opacity="0.8" stroke-linejoin="round"/>
<path d="M13.8499 6.50002H6.14995C5.76334 6.50002 5.44995 6.81341 5.44995 7.20001V11.4L9.70661 9.43539C9.89274 9.3495 10.1072 9.3495 10.2933 9.43539L14.5499 11.4V7.20001C14.5499 6.81341 14.2366 6.50002 13.8499 6.50002Z" stroke="#0C162B" stroke-opacity="0.8" stroke-linecap="round" stroke-linejoin="round"/>
<path d="M11.75 6.5V3.7C11.75 3.3134 11.4366 3 11.05 3H8.95C8.56339 3 8.25 3.3134 8.25 3.7V6.5" stroke="#0C162B" stroke-opacity="0.8" stroke-linecap="round" stroke-linejoin="round"/>
<path d="M10 12.8V15.6" stroke="#0C162B" stroke-opacity="0.8" stroke-linecap="round"/>
<path d="M3 17C4.4 17 4.4 16.3 5.45 16.3C6.5 16.3 6.5 17 7.55 17C8.6 17 8.775 16.3 10 16.3C11.225 16.3 11.4 17 12.45 17C13.5 17 13.5 16.3 14.55 16.3C15.6 16.3 15.6 17 17 17" stroke="#0C162B" stroke-opacity="0.8" stroke-linecap="round" stroke-linejoin="round"/>
</svg>
