<svg width="20" height="20" viewBox="0 0 20 20" fill="none" xmlns="http://www.w3.org/2000/svg">
<path d="M14.3333 15.6667L15.4636 12.5584C15.5793 12.2402 15.4381 11.8857 15.1352 11.7343L9.9648 9.14906C9.77713 9.05523 9.5562 9.05523 9.36853 9.14906L4.19811 11.7343C3.89523 11.8857 3.754 12.2402 3.86972 12.5584L5 15.6667" stroke="#0C162B" stroke-opacity="0.8" stroke-linejoin="round"/>
<path d="M13.3333 6.33334H5.99998C5.63178 6.33334 5.33331 6.63181 5.33331 7.00001V11L9.38728 9.12894C9.56455 9.04714 9.76875 9.04714 9.94601 9.12894L14 11V7.00001C14 6.63181 13.7015 6.33334 13.3333 6.33334Z" stroke="#0C162B" stroke-opacity="0.8" stroke-linecap="round" stroke-linejoin="round"/>
<path d="M11.3333 6.33333V3.66667C11.3333 3.29848 11.0349 3 10.6667 3H8.66667C8.29847 3 8 3.29848 8 3.66667V6.33333" stroke="#0C162B" stroke-opacity="0.8" stroke-linecap="round" stroke-linejoin="round"/>
<path d="M9.66666 12.3333V15" stroke="#0C162B" stroke-opacity="0.8" stroke-linecap="round"/>
<path d="M3 16.3333C4.33333 16.3333 4.33333 15.6667 5.33333 15.6667C6.33333 15.6667 6.33333 16.3333 7.33333 16.3333C8.33333 16.3333 8.5 15.6667 9.66667 15.6667C10.8333 15.6667 11 16.3333 12 16.3333C13 16.3333 13 15.6667 14 15.6667C15 15.6667 15 16.3333 16.3333 16.3333" stroke="#0C162B" stroke-opacity="0.8" stroke-linecap="round" stroke-linejoin="round"/>
</svg>
