<svg width="20" height="20" viewBox="0 0 20 20" fill="none" xmlns="http://www.w3.org/2000/svg">
<path fill-rule="evenodd" clip-rule="evenodd" d="M10.1771 3C6.21173 3 3 6.21173 3 10.1771C3 13.3529 5.05443 16.0353 7.90731 16.9863C8.26616 17.0491 8.40073 16.8338 8.40073 16.6454C8.40073 16.4749 8.39176 15.9097 8.39176 15.3087C6.58853 15.6406 6.12202 14.8691 5.97848 14.4653C5.89774 14.259 5.54785 13.622 5.24283 13.4516C4.99163 13.317 4.63278 12.9851 5.23386 12.9761C5.79905 12.9671 6.20276 13.4964 6.33733 13.7118C6.98327 14.7973 8.01497 14.4923 8.42765 14.3039C8.49045 13.8374 8.67885 13.5234 8.88519 13.3439C7.28829 13.1645 5.61963 12.5455 5.61963 9.80026C5.61963 9.01976 5.89774 8.37382 6.35527 7.87143C6.2835 7.692 6.03231 6.95635 6.42704 5.96951C6.42704 5.96951 7.02812 5.78111 8.40073 6.70516C8.9749 6.54367 9.58495 6.46293 10.195 6.46293C10.805 6.46293 11.4151 6.54367 11.9893 6.70516C13.3619 5.77214 13.963 5.96951 13.963 5.96951C14.3577 6.95635 14.1065 7.692 14.0347 7.87143C14.4923 8.37382 14.7704 9.01079 14.7704 9.80026C14.7704 12.5545 13.0927 13.1645 11.4958 13.3439C11.756 13.5682 11.9803 13.9988 11.9803 14.6717C11.9803 15.6316 11.9713 16.4032 11.9713 16.6454C11.9713 16.8338 12.1059 17.0581 12.4647 16.9863C13.8895 16.5053 15.1276 15.5896 16.0047 14.3681C16.8818 13.1466 17.3537 11.6808 17.3541 10.1771C17.3541 6.21173 14.1424 3 10.1771 3Z" fill="#0C162B" fill-opacity="0.8"/>
</svg>
