<svg width="20" height="20" viewBox="0 0 20 20" fill="none" xmlns="http://www.w3.org/2000/svg">
<path d="M4.47418 9.66517H5.16225V10.6316C4.94756 10.7006 4.67648 10.7384 4.39469 10.7384C3.25268 10.7384 2.58147 9.76044 2.58147 8.80534C2.58147 7.86859 3.18859 7.21152 4.0356 7.21152C4.57157 7.21152 4.88344 7.39309 5.16245 7.64602V7.96132L5.6856 7.43817C5.3547 7.21429 4.87555 7.00153 4.19068 7.00153C2.68721 7.00153 2 8.07713 2 8.96107C2 10.2193 2.91643 10.9772 4.06809 10.9772C4.62649 10.9772 5.1223 10.892 5.69502 10.7326V9.73416C5.69502 9.68311 5.71745 9.64808 5.75099 9.61731L5.93171 9.43659H4.70446L4.47418 9.66517Z" fill="#0C162B" fill-opacity="0.8"/>
<path d="M7.55653 8.35181C6.69115 8.35181 6.15497 8.98415 6.15497 9.65534C6.15497 10.2347 6.58693 10.9225 7.46211 10.9225C8.30399 10.9225 8.82053 10.2889 8.82053 9.606C8.82053 8.96984 8.31574 8.35204 7.55653 8.35204V8.35181ZM7.41295 8.53616C8.02308 8.53616 8.29479 9.33105 8.29479 9.898C8.29479 10.7412 7.66226 10.7578 7.58664 10.7578C7.29718 10.7578 7.09487 10.5829 6.94344 10.3534C6.81014 10.142 6.67983 9.74911 6.67983 9.36523C6.67983 8.98285 6.80499 8.79614 7.00197 8.65878C7.16304 8.55582 7.31386 8.53616 7.41275 8.53616H7.41295Z" fill="#0C162B" fill-opacity="0.8"/>
<path d="M13.2134 8.35159C12.4576 8.35159 12.0487 8.83011 12.0487 9.36437C12.0487 9.77111 12.3401 10.23 12.9412 10.23H13.0933C13.0933 10.23 13.0519 10.3306 13.0517 10.4278C13.0517 10.5711 13.1032 10.6516 13.2125 10.7755C12.1782 10.8386 11.7625 11.2558 11.7625 11.7042C11.7625 12.0968 12.1384 12.4833 12.9286 12.4833C13.8641 12.4833 14.3485 11.9639 14.3485 11.4542C14.3485 11.0949 14.1695 10.898 13.7162 10.5583C13.5829 10.4547 13.5571 10.3887 13.5571 10.3112C13.5571 10.2001 13.6235 10.1266 13.6479 10.0988C13.6908 10.0536 13.7651 10.0019 13.7929 9.97708C13.9452 9.84805 14.1603 9.65709 14.1603 9.27597C14.1603 9.0145 14.0516 8.78956 13.8038 8.57893H14.1063L14.3336 8.35164H13.2134V8.35159ZM13.0049 8.52163C13.1421 8.52163 13.2565 8.57013 13.3774 8.67075C13.5116 8.79166 13.7259 9.11657 13.7259 9.51861C13.7259 9.95247 13.3888 10.0712 13.2064 10.0712C13.1171 10.0712 13.0101 10.0463 12.9195 9.9843C12.7182 9.8538 12.5185 9.50643 12.5185 9.09307C12.5185 8.72009 12.7406 8.52163 13.0049 8.52163ZM13.3042 10.9403C13.3619 10.9403 13.4033 10.945 13.4033 10.945C13.4033 10.945 13.5394 11.0422 13.6345 11.1148C13.8558 11.2897 13.9937 11.4235 13.9937 11.6617C13.9937 11.9892 13.69 12.2459 13.198 12.2459C12.658 12.2459 12.2453 11.9945 12.2453 11.5839C12.2453 11.2438 12.5281 10.9511 13.3042 10.9403Z" fill="#0C162B" fill-opacity="0.8"/>
<path d="M14.4973 10.8476H15.5348L15.6929 10.6895L15.3953 10.6523C15.3152 10.6425 15.2676 10.5733 15.2676 10.5062V7.37218C15.2676 7.31044 15.2962 7.27883 15.3171 7.25873L15.5043 7.07159H14.6194L14.3892 7.30188H14.7331V10.5483C14.7331 10.5944 14.7186 10.6258 14.6874 10.6581L14.4973 10.8476Z" fill="#0C162B" fill-opacity="0.8"/>
<path d="M16.9407 8.35181C16.3614 8.35181 15.7459 8.79336 15.7459 9.58611C15.7459 10.2408 16.1875 10.9225 17.0125 10.9225C17.2182 10.9225 17.3876 10.8961 17.5463 10.8232C17.7166 10.7448 17.8804 10.6175 18 10.4575C17.7742 10.5714 17.5901 10.6461 17.3455 10.6461C16.8806 10.6461 16.4325 10.3107 16.2757 9.69422L17.9178 9.0305C17.8229 8.69234 17.5555 8.35181 16.9409 8.35181H16.9407ZM16.8334 8.53317C17.1443 8.53317 17.369 8.78888 17.369 8.98904C17.369 9.05377 17.3284 9.08795 17.2481 9.11956L16.2387 9.52779C16.2387 9.52779 16.2114 9.40069 16.2114 9.26333C16.2114 8.6872 16.628 8.53317 16.8334 8.53317Z" fill="#0C162B" fill-opacity="0.8"/>
<path d="M10.4929 8.35181C9.62756 8.35181 9.09137 8.98415 9.09137 9.65534C9.09137 10.2347 9.52333 10.9225 10.3985 10.9225C11.2404 10.9225 11.7569 10.2889 11.7569 9.606C11.7569 8.96984 11.2521 8.35204 10.4929 8.35204V8.35181ZM10.3494 8.53616C10.9595 8.53616 11.2312 9.33105 11.2312 9.898C11.2312 10.7412 10.5987 10.7578 10.523 10.7578C10.2336 10.7578 10.0313 10.5829 9.87985 10.3534C9.74655 10.142 9.61623 9.74911 9.61623 9.36523C9.61623 8.98285 9.74139 8.79614 9.93837 8.65878C10.0994 8.55582 10.2503 8.53616 10.3491 8.53616H10.3494Z" fill="#0C162B" fill-opacity="0.8"/>
</svg>
