<svg width="20" height="20" viewBox="0 0 20 20" fill="none" xmlns="http://www.w3.org/2000/svg">
<path d="M10 18.3333C12.3012 18.3333 14.3845 17.4006 15.8925 15.8925C17.4006 14.3845 18.3333 12.3012 18.3333 10C18.3333 7.69884 17.4006 5.6155 15.8925 4.10745C14.3845 2.59941 12.3012 1.66667 10 1.66667C7.69884 1.66667 5.6155 2.59941 4.10745 4.10745C2.59941 5.6155 1.66667 7.69884 1.66667 10C1.66667 12.3012 2.59941 14.3845 4.10745 15.8925C5.6155 17.4006 7.69884 18.3333 10 18.3333Z" stroke="#0C162B" stroke-opacity="0.8" stroke-linejoin="round"/>
<path d="M10 11.927V10.2604C11.3807 10.2604 12.5 9.14108 12.5 7.76038C12.5 6.37967 11.3807 5.26038 10 5.26038C8.61929 5.26038 7.5 6.37967 7.5 7.76038" stroke="#0C162B" stroke-opacity="0.8" stroke-linecap="round" stroke-linejoin="round"/>
<path fill-rule="evenodd" clip-rule="evenodd" d="M9.99999 15.677C10.5753 15.677 11.0417 15.2107 11.0417 14.6354C11.0417 14.0601 10.5753 13.5937 9.99999 13.5937C9.4247 13.5937 8.95833 14.0601 8.95833 14.6354C8.95833 15.2107 9.4247 15.677 9.99999 15.677Z" fill="#0C162B" fill-opacity="0.8"/>
</svg>
