<svg width="20" height="20" viewBox="0 0 20 20" fill="none" xmlns="http://www.w3.org/2000/svg">
<path d="M10 16.5C11.7949 16.5 13.4199 15.7725 14.5962 14.5962C15.7725 13.4199 16.5 11.7949 16.5 10C16.5 8.20509 15.7725 6.58009 14.5962 5.4038C13.4199 4.22754 11.7949 3.5 10 3.5C8.20509 3.5 6.58009 4.22754 5.4038 5.4038C4.22754 6.58009 3.5 8.20509 3.5 10C3.5 11.7949 4.22754 13.4199 5.4038 14.5962C6.58009 15.7725 8.20509 16.5 10 16.5Z" stroke="#0C162B" stroke-opacity="0.8" stroke-linejoin="round"/>
<path d="M10 11.5031V10.2031C11.077 10.2031 11.95 9.33004 11.95 8.25309C11.95 7.17613 11.077 6.30309 10 6.30309C8.92305 6.30309 8.05 7.17613 8.05 8.25309" stroke="#0C162B" stroke-opacity="0.8" stroke-linecap="round" stroke-linejoin="round"/>
<path fill-rule="evenodd" clip-rule="evenodd" d="M10 14.4281C10.4487 14.4281 10.8125 14.0643 10.8125 13.6156C10.8125 13.1669 10.4487 12.8031 10 12.8031C9.55127 12.8031 9.1875 13.1669 9.1875 13.6156C9.1875 14.0643 9.55127 14.4281 10 14.4281Z" fill="#0C162B" fill-opacity="0.8"/>
</svg>
