<svg width="20" height="20" viewBox="0 0 20 20" fill="none" xmlns="http://www.w3.org/2000/svg">
<path d="M17.2 4H2.8C2.35817 4 2 4.35817 2 4.8V16C2 16.4418 2.35817 16.8 2.8 16.8H17.2C17.6418 16.8 18 16.4418 18 16V4.8C18 4.35817 17.6418 4 17.2 4Z" stroke="#0C162B" stroke-opacity="0.8" stroke-linejoin="round"/>
<path d="M7.2 10.8C8.08364 10.8 8.8 10.0836 8.8 9.20001C8.8 8.31637 8.08364 7.60001 7.2 7.60001C6.31636 7.60001 5.6 8.31637 5.6 9.20001C5.6 10.0836 6.31636 10.8 7.2 10.8Z" stroke="#0C162B" stroke-opacity="0.8" stroke-linejoin="round"/>
<path d="M9.6 13.2C9.6 11.8745 8.52548 10.8 7.2 10.8C5.87452 10.8 4.8 11.8745 4.8 13.2" stroke="#0C162B" stroke-opacity="0.8" stroke-linecap="round" stroke-linejoin="round"/>
<path d="M11.6 8.79999H14.8" stroke="#0C162B" stroke-opacity="0.8" stroke-linecap="round" stroke-linejoin="round"/>
<path d="M12.4 12H14.8" stroke="#0C162B" stroke-opacity="0.8" stroke-linecap="round" stroke-linejoin="round"/>
</svg>
