<svg width="20" height="20" viewBox="0 0 20 20" fill="none" xmlns="http://www.w3.org/2000/svg">
<path fill-rule="evenodd" clip-rule="evenodd" d="M16.0148 4.7628C16.2893 4.90918 16.5088 5.14703 16.6003 5.43978L17.9909 11.4228C18.0274 11.7338 17.9543 12.0449 17.7713 12.301L13.9107 17.0765C13.7094 17.3509 13.3984 17.4973 13.069 17.4607H6.92134C6.6103 17.4424 6.29926 17.296 6.0797 17.0765L2.21909 12.301C2.03612 12.0449 1.96294 11.7338 2.01783 11.4228L3.39008 5.40319C3.46327 5.09214 3.66453 4.85429 3.93898 4.72621L9.51948 2.03659C9.66585 2 9.83052 2 9.97689 2C10.1233 2 10.2879 2.0183 10.4343 2.09148L16.0148 4.7628ZM15.7038 11.1668C15.7038 11.1851 15.7221 11.1851 15.7404 11.1851C15.905 11.2217 16.0514 11.3681 16.0697 11.5693C16.0148 11.7157 15.8684 11.8255 15.7038 11.8255C15.6672 11.8255 15.6489 11.8255 15.6123 11.8072C15.594 11.7889 15.594 11.7889 15.5757 11.7889C15.5543 11.7889 15.5391 11.7826 15.5265 11.7774C15.5177 11.7737 15.5101 11.7706 15.5025 11.7706C15.4482 11.757 15.404 11.7334 15.3549 11.7072C15.3378 11.698 15.3201 11.6886 15.3012 11.6791C15.2646 11.6791 15.2281 11.6608 15.1915 11.6425H15.1732C14.9902 11.5693 14.7889 11.5145 14.5877 11.4779H14.5694C14.5145 11.4779 14.4596 11.4962 14.423 11.5327C14.423 11.5327 14.423 11.551 14.4047 11.551L14.2583 11.5327C13.929 12.5757 13.2154 13.4539 12.2823 14.0211L12.3372 14.1675C12.3372 14.1675 12.3189 14.1675 12.3189 14.1858C12.2823 14.2407 12.2823 14.3138 12.3006 14.3687C12.3738 14.5517 12.4653 14.7347 12.5933 14.8993V14.9359C12.6299 14.9725 12.6482 14.9908 12.6665 15.0274C12.7214 15.0823 12.758 15.1372 12.7946 15.2104C12.8129 15.2287 12.8312 15.247 12.8312 15.2653C12.8312 15.2653 12.8495 15.2653 12.8495 15.2836C12.8861 15.3751 12.8861 15.4665 12.8678 15.558C12.8495 15.6495 12.7763 15.7227 12.7031 15.7593C12.6917 15.7631 12.681 15.7669 12.6708 15.7706C12.6321 15.7844 12.6002 15.7959 12.5567 15.7959C12.4104 15.7959 12.2823 15.7044 12.2091 15.5763C12.1908 15.5763 12.1908 15.558 12.1908 15.558C12.1817 15.5489 12.1771 15.5397 12.1725 15.5306C12.1679 15.5214 12.1634 15.5123 12.1542 15.5031C12.1176 15.4482 12.0993 15.3751 12.081 15.3019L12.0444 15.1921V15.1738C11.9895 14.9725 11.8981 14.7896 11.8066 14.6066L11.8066 14.6066C11.77 14.5517 11.7151 14.5151 11.6602 14.4968C11.6602 14.4785 11.6602 14.4785 11.6419 14.4785L11.5687 14.3504C11.5222 14.3644 11.4744 14.3796 11.4258 14.395C11.2833 14.4402 11.1333 14.4878 10.9832 14.5151C10.6539 14.6066 10.3245 14.6432 9.9952 14.6432C9.4463 14.6432 8.91569 14.5517 8.40338 14.3504L8.3302 14.4968C8.3302 14.506 8.3302 14.5105 8.32791 14.5128C8.32562 14.5151 8.32105 14.5151 8.3119 14.5151C8.25701 14.5334 8.20212 14.57 8.16553 14.6249C8.07404 14.8079 7.98256 14.9908 7.92767 15.1921L7.89108 15.3019C7.88193 15.3385 7.8682 15.3705 7.85448 15.4025C7.84076 15.4345 7.82704 15.4665 7.81789 15.5031L7.81788 15.5031C7.79959 15.5214 7.78129 15.5397 7.78129 15.558C7.763 15.558 7.763 15.5763 7.763 15.5763C7.68981 15.7044 7.56173 15.7959 7.41536 15.7959C7.37877 15.7959 7.32388 15.7776 7.28728 15.7593C7.12261 15.6678 7.04943 15.4482 7.14091 15.2653C7.15921 15.2653 7.15921 15.247 7.15921 15.247C7.16836 15.2378 7.17293 15.2287 7.1775 15.2195C7.18208 15.2104 7.18665 15.2012 7.1958 15.1921C7.21987 15.16 7.24042 15.1279 7.25899 15.0989C7.28278 15.0618 7.30333 15.0297 7.32388 15.0091C7.36047 14.9725 7.37877 14.9542 7.39706 14.9176V14.8993C7.50684 14.7347 7.61662 14.5517 7.68981 14.3687C7.70811 14.3138 7.70811 14.2407 7.67151 14.1858C7.67151 14.1858 7.65322 14.1858 7.65322 14.1675L7.7447 14.0394C7.56173 13.9479 7.41536 13.8381 7.25069 13.7101C6.53712 13.1612 6.02481 12.411 5.75036 11.5693L5.58569 11.5876C5.58569 11.5876 5.58569 11.5693 5.56739 11.5693C5.5308 11.5327 5.47591 11.5145 5.42102 11.5145H5.40272C5.18316 11.551 5.0002 11.6059 4.79893 11.6791H4.78064C4.74404 11.6791 4.70745 11.6974 4.67085 11.7157C4.65042 11.7225 4.62745 11.7319 4.60289 11.7419C4.56147 11.7587 4.51553 11.7774 4.46959 11.7889C4.46405 11.7889 4.45516 11.7872 4.44545 11.7854C4.42309 11.7812 4.3964 11.7761 4.3964 11.7889C4.3964 11.798 4.3964 11.8026 4.39412 11.8049C4.39183 11.8072 4.38726 11.8072 4.37811 11.8072C4.34151 11.8255 4.32322 11.8255 4.28662 11.8255C4.12195 11.8438 3.95728 11.734 3.92069 11.5693C3.8841 11.3681 4.01217 11.1851 4.21344 11.1485C4.22396 11.138 4.22843 11.1335 4.23381 11.1316C4.23778 11.1302 4.24226 11.1302 4.25003 11.1302C4.27147 11.1302 4.28662 11.1239 4.29918 11.1187C4.30806 11.1151 4.31564 11.1119 4.32322 11.1119C4.35981 11.1119 4.3964 11.1074 4.433 11.1028C4.46959 11.0982 4.50618 11.0936 4.54278 11.0936C4.57937 11.0753 4.61596 11.0753 4.65256 11.0753C4.87212 11.057 5.07338 11.0204 5.27465 10.9656C5.32954 10.929 5.38443 10.8924 5.40272 10.8375C5.40272 10.8375 5.42102 10.8375 5.42102 10.8192L5.56739 10.7826C5.40272 9.73967 5.64058 8.67846 6.20778 7.78192C6.21693 7.76363 6.22607 7.7499 6.23522 7.73618C6.24437 7.72246 6.25352 7.70874 6.26267 7.69044L6.15646 7.58423C6.16481 7.53159 6.1314 7.46769 6.098 7.43429C5.95162 7.28791 5.76866 7.17813 5.58569 7.06835L5.47591 7.01346C5.40272 6.97687 5.32954 6.94028 5.27465 6.90368C5.25635 6.90368 5.21976 6.86709 5.21976 6.86709C5.21976 6.86709 5.21976 6.84879 5.20146 6.84879C5.05509 6.72072 5.01849 6.50115 5.12827 6.33648C5.18316 6.245 5.27465 6.20841 5.38443 6.20841C5.47591 6.20841 5.56739 6.245 5.64058 6.29989L5.65888 6.31819C5.66803 6.32734 5.67717 6.33191 5.68632 6.33648C5.69547 6.34106 5.70462 6.34563 5.71377 6.35478C5.74121 6.38223 5.76408 6.40967 5.78695 6.43712C5.80982 6.46456 5.8327 6.49201 5.86014 6.51945C5.86568 6.52499 5.8729 6.53053 5.88078 6.53658C5.89892 6.5505 5.92057 6.56712 5.93333 6.59264C6.0614 6.73901 6.22607 6.88539 6.39075 7.01346C6.42734 7.03176 6.46393 7.05006 6.50053 7.05006C6.52196 7.05006 6.53712 7.04378 6.54968 7.03858C6.55855 7.0349 6.56613 7.03176 6.57371 7.03176H6.59201L6.70179 7.10495C7.30558 6.46456 8.09234 6.00714 8.95228 5.82418C8.98398 5.81889 9.01529 5.81361 9.04627 5.80838C9.22995 5.7774 9.40216 5.74835 9.57437 5.73269L9.59267 5.58632V5.54973C9.64756 5.51313 9.66586 5.45824 9.68415 5.40335C9.68415 5.18379 9.68415 4.98253 9.64756 4.78126V4.76297C9.64756 4.72637 9.64756 4.68978 9.62926 4.65319C9.61097 4.58 9.59267 4.50681 9.59267 4.43363V4.34214C9.59267 4.25066 9.62926 4.15918 9.70245 4.08599C9.79393 3.99451 9.90371 3.93962 10.0135 3.95791C10.1965 3.97621 10.3428 4.15918 10.3245 4.34214V4.45192C10.3154 4.48852 10.3108 4.52511 10.3062 4.5617C10.3017 4.5983 10.2971 4.63489 10.2879 4.67148C10.2879 4.68978 10.2834 4.70808 10.2788 4.72637C10.2742 4.74467 10.2696 4.76297 10.2696 4.78126V4.79956C10.2331 5.01912 10.2331 5.22039 10.2331 5.42165C10.2514 5.47654 10.2696 5.53143 10.3245 5.56802V5.54973L10.3428 5.6961C11.2028 5.78758 12.0444 6.11692 12.7214 6.64753C12.7946 6.72072 12.8724 6.7939 12.9501 6.86709C13.0279 6.94028 13.1056 7.01346 13.1788 7.08665L13.3252 6.99517H13.3435C13.3618 7.01346 13.3984 7.01346 13.4167 7.01346C13.4533 7.01346 13.4899 6.99517 13.5265 6.97687C13.6911 6.86709 13.8558 6.72072 13.9839 6.57434C13.9894 6.5688 13.9966 6.56326 14.0045 6.55721C14.0227 6.54329 14.0443 6.52667 14.0571 6.50115C14.0937 6.44626 14.1485 6.39137 14.2034 6.33648C14.2217 6.33648 14.24 6.31819 14.2583 6.29989L14.2766 6.28159C14.3498 6.2267 14.4413 6.19011 14.5328 6.19011C14.6243 6.19011 14.734 6.245 14.7889 6.31819C14.917 6.48286 14.8804 6.70242 14.7157 6.83049C14.7157 6.83748 14.7184 6.8418 14.7207 6.84549C14.7244 6.85146 14.7271 6.85578 14.7157 6.86709C14.7066 6.87624 14.6974 6.88081 14.6883 6.88539C14.6792 6.88996 14.67 6.89453 14.6609 6.90368C14.6243 6.92198 14.5922 6.94028 14.5602 6.95857C14.5282 6.97687 14.4962 6.99517 14.4596 7.01346L14.3498 7.06835C14.1668 7.17813 14.0022 7.28791 13.8375 7.43429C13.8009 7.47088 13.7826 7.54407 13.7826 7.59896V7.61725L13.6728 7.72703C13.9656 8.18445 14.1851 8.69676 14.3132 9.22736C14.423 9.75797 14.4596 10.3069 14.3864 10.8375L14.5328 10.8741C14.5511 10.929 14.606 10.9838 14.6609 11.0021C14.8621 11.057 15.0817 11.0936 15.2829 11.1119H15.3012C15.3378 11.1302 15.3744 11.1302 15.411 11.1302C15.4842 11.1302 15.5574 11.1302 15.6306 11.1485C15.6672 11.1485 15.7038 11.1485 15.7038 11.1668ZM6.15646 7.58423L6.15289 7.58066V7.59896C6.15448 7.59417 6.15566 7.58925 6.15646 7.58423ZM9.9586 10.8558L10.4526 10.6179L10.5807 10.0873L10.2331 9.64819H9.68415L9.33651 10.0873L9.46459 10.6179L9.9586 10.8558ZM13.5082 10.5813C13.5448 10.1971 13.5265 9.81286 13.435 9.42863C13.3435 9.0444 13.1971 8.67846 12.9959 8.34912L11.6236 9.5933C11.587 9.62989 11.5687 9.66648 11.5504 9.72137C11.5138 9.88604 11.6053 10.0507 11.77 10.0873L13.5082 10.5813ZM10.9466 8.73335L12.447 7.67214C11.8981 7.12324 11.1845 6.77561 10.3794 6.68412L10.4892 8.53209C10.4892 8.58698 10.5075 8.62357 10.5441 8.66017C10.6356 8.78824 10.8185 8.80654 10.9466 8.73335ZM9.50118 6.66582L9.13525 6.73901C8.49487 6.88539 7.90937 7.21473 7.43366 7.67214L8.95228 8.75165C8.96374 8.75547 8.9744 8.75929 8.98459 8.76294C9.02325 8.77679 9.05522 8.78824 9.09866 8.78824C9.26333 8.78824 9.4097 8.66017 9.4097 8.4955L9.50118 6.66582ZM8.25701 9.5567L6.90305 8.34912C6.50052 9.0261 6.31756 9.81286 6.37245 10.5813L8.14723 10.069C8.22042 10.0507 8.25701 10.0324 8.2936 9.97753C8.40338 9.84945 8.38509 9.66648 8.25701 9.5567ZM8.40338 11.1302L6.59201 11.4413C6.84816 12.1731 7.36047 12.8135 8.00085 13.2343L8.69613 11.551C8.73272 11.4962 8.73272 11.423 8.71443 11.3681C8.69613 11.2217 8.54976 11.1302 8.40338 11.1302ZM9.9586 13.8015C10.2331 13.8015 10.4892 13.7649 10.7454 13.7101C10.8734 13.6735 10.9832 13.6552 11.093 13.6369L10.2148 12.0451L10.2148 12.0451C10.1599 11.9902 10.1233 11.9536 10.0684 11.917C9.94031 11.8438 9.79393 11.8804 9.70245 11.9902L8.80591 13.6186C9.17184 13.7284 9.57437 13.8015 9.9586 13.8015ZM11.8798 13.216C12.3189 12.9416 12.7031 12.5574 12.9776 12.1182C13.1239 11.917 13.2337 11.6791 13.3252 11.423L11.4955 11.1119C11.4406 11.1119 11.3858 11.1302 11.3309 11.1485L11.3309 11.1485C11.2028 11.2034 11.1296 11.3498 11.1662 11.4962L11.8798 13.216Z" fill="#0C162B" fill-opacity="0.8"/>
</svg>
