<svg width="20" height="20" viewBox="0 0 20 20" fill="none" xmlns="http://www.w3.org/2000/svg">
<path fill-rule="evenodd" clip-rule="evenodd" d="M15.7212 14.6992C15.3537 14.4022 15.4962 13.7452 15.1159 13.4212C15.4849 11.1786 14.4514 9.20086 13.2191 7.93334C12.1856 6.86983 12.5186 5.83556 12.5186 4.94005C12.5186 3.50902 11.9314 2 10.1523 2C8.25032 2 7.72906 3.58702 7.71031 4.49229C7.66531 6.66732 8.14907 7.23208 6.87704 8.81461C5.37927 10.6769 5.15877 12.5347 5.49702 13.5194C5.28985 13.7654 5.02531 13.9565 4.72676 14.0759C3.62499 14.5559 4.43276 15.3592 4.12825 15.9292C4.04537 16.0806 4.0013 16.2502 4 16.4227C4 16.923 4.39751 17.3557 5.11902 17.2912C6.09403 17.2042 6.9918 17.8942 7.57306 17.8942C8.08681 17.8942 8.50832 17.6017 8.70407 17.2005C9.62209 16.974 10.7554 17.0032 11.6726 17.2395C11.8376 17.7 12.2839 18 12.7811 18C13.8687 18 14.0772 16.7677 15.3252 16.35C15.7744 16.2 16.0002 15.7642 16.0002 15.3585C16.0002 15.0982 15.9072 14.8507 15.7212 14.6992ZM9.62284 7.72259C9.40983 7.72259 9.23433 7.55009 8.95608 7.34383C8.60357 7.08283 8.24582 6.93208 8.25032 6.65757C8.25032 6.46857 8.50307 6.41007 8.82933 6.20307C9.18033 5.98106 9.31683 5.75606 9.66184 5.75606C10.0151 5.75606 10.1223 5.93456 10.6024 6.14231C11.0741 6.34707 11.4026 6.42732 11.4026 6.65757C11.4026 6.89383 10.9091 7.06333 10.6301 7.23583C10.2221 7.48784 10.0121 7.72259 9.62284 7.72259ZM10.7329 4.24629C11.3209 4.34004 11.3869 5.37355 11.1056 5.88206L10.8686 5.78531C10.9916 5.42305 10.9894 4.82754 10.5791 4.78929C10.3181 4.76529 10.1501 5.10955 10.1141 5.4043C10.0031 5.35756 9.88538 5.32894 9.76534 5.31955C9.80659 4.70454 10.2041 4.16153 10.7329 4.24629ZM8.46407 4.46679C8.91408 4.35429 9.18108 4.8793 9.18258 5.42305L8.97633 5.55056C8.94783 5.32105 8.84583 4.95205 8.59007 5.0308C8.31632 5.1163 8.36057 5.75306 8.51357 5.88356L8.30957 5.99606C8.02906 5.52506 8.02981 4.57554 8.46407 4.46679ZM7.05405 17.2957C5.74528 16.7002 5.30052 16.8352 5.05077 16.8352C4.53326 16.8352 4.36301 16.4497 4.55801 16.0845C4.72301 15.774 4.67201 15.4492 4.63151 15.189C4.56851 14.7892 4.55726 14.6594 4.95027 14.4877C5.49327 14.2567 5.73478 13.9604 5.91478 13.7377C6.42029 13.1137 6.9303 14.0962 7.34805 14.9715C7.61956 15.5392 8.15356 15.8265 8.31782 16.455C8.46932 17.0355 7.84531 17.6557 7.05405 17.2957ZM11.7116 16.0462C10.7891 16.4947 9.61384 16.701 8.73407 16.2457C8.60507 15.8707 8.39657 15.6277 8.17307 15.3832C8.53232 15.2887 8.79858 14.841 8.47907 14.3909C8.13857 13.9102 7.44255 13.5749 6.73904 13.0312C6.08128 12.5219 5.87353 11.2686 6.76904 9.86612C6.33254 11.1081 6.58829 12.2519 6.80729 12.5797C6.85229 11.9212 6.9048 10.8209 7.80481 9.50312C8.25857 8.83711 8.26532 7.95809 8.27507 7.40908L8.68907 7.69184C8.99283 7.91684 9.24708 8.16435 9.61309 8.16435C10.1531 8.16435 10.4516 7.85309 10.8671 7.59509C11.0299 7.49534 11.2759 7.39408 11.4821 7.25308C11.8294 8.90386 13.2656 10.8891 13.3459 12.0202C13.6804 11.3324 13.2514 9.67712 13.2514 9.67712C13.8132 10.5344 13.8574 11.2484 13.8822 12.1244C14.2752 12.2849 14.6959 12.7034 14.7349 13.2547L14.5714 13.2359C14.4874 12.6232 12.8336 11.7232 12.6851 12.8767C11.8916 12.9974 12.1804 14.2544 12.0199 15.069C11.9471 15.4417 11.8106 15.7365 11.7124 16.0462H11.7116ZM14.9427 16.0192C14.2864 16.272 13.8432 16.8105 13.5379 17.1442C12.9514 17.7885 12.1751 17.4795 12.0926 16.8772C12.0056 16.2322 12.3326 15.8812 12.4744 15.1612C12.6026 14.5027 12.4594 13.4902 12.7616 13.3822C12.9581 14.5507 14.1387 14.0594 14.4079 13.7407C14.8459 13.7407 14.8827 13.8892 14.9809 14.2987C15.0424 14.5552 15.1272 14.7712 15.3664 15.0262C15.6447 15.3232 15.5592 15.7807 14.9427 16.0192ZM9.61009 7.34758C9.17508 7.34758 8.85108 7.05883 8.58707 6.83458C8.45207 6.72057 8.62007 6.50982 8.75507 6.62457C9.01308 6.84358 9.27333 7.07458 9.61009 7.07458C10.0143 7.07458 10.3706 6.72882 10.8544 6.53832C11.0194 6.47307 11.1131 6.72807 10.9496 6.79332C10.4801 6.97708 10.1043 7.34758 9.61009 7.34758Z" fill="#0C162B" fill-opacity="0.8"/>
</svg>
