<svg width="20" height="20" viewBox="0 0 20 20" fill="none" xmlns="http://www.w3.org/2000/svg">
<path d="M16.8465 14.8462H3.15377C2.51751 14.8462 2 14.3286 2 13.6924V6.15377C2 5.51751 2.51751 5 3.15377 5H16.8462C17.4825 5 18 5.51751 18 6.15377V13.6924C18.0002 14.3286 17.4827 14.8462 16.8465 14.8462ZM5.84631 12.5386V9.53857L7.38483 11.4616L8.92336 9.53857V12.5386H10.4619V7.30754H8.92336L7.38483 9.23057L5.84631 7.30754H4.30779V12.5384H5.84631V12.5386ZM16.154 9.92308H14.6154V7.30754H13.0769V9.92308H11.5384L13.8462 12.6154L16.154 9.92308Z" fill="#0C162B" fill-opacity="0.8"/>
</svg>
