<svg width="20" height="20" viewBox="0 0 20 20" fill="none" xmlns="http://www.w3.org/2000/svg">
<path d="M9.1614 14.5868C9.07174 14.5269 8.98771 14.4585 8.90535 14.3885C8.82317 14.3182 8.74406 14.2442 8.66659 14.1685C8.51161 14.0171 8.36563 13.8564 8.22541 13.6908C8.08504 13.5253 7.95218 13.3533 7.82433 13.1776C7.69644 13.0019 7.57412 12.8221 7.45756 12.6386C7.22395 12.2718 7.00957 11.8925 6.81351 11.5039C6.71525 11.3097 6.62087 11.1136 6.53043 10.9156C6.44033 10.7175 6.3545 10.5174 6.27182 10.3161L6.64244 10.3602C6.59489 10.4343 6.54537 10.5071 6.49393 10.5785C6.46767 10.6149 6.44064 10.6508 6.41286 10.6861C6.38432 10.7221 6.35454 10.7581 6.3195 10.7955L6.33217 10.7816C6.33335 10.7803 6.33129 10.7829 6.33054 10.7841L6.32706 10.7889L6.31952 10.7996L6.30383 10.8228C6.29314 10.839 6.28275 10.8555 6.27266 10.872C6.25205 10.906 6.23253 10.9406 6.21413 10.9758C6.17678 11.0467 6.14365 11.1196 6.1149 11.1944C6.05753 11.3436 6.01828 11.4985 5.99983 11.654C5.9952 11.6928 5.99185 11.7317 5.98977 11.7708L5.98913 11.7853L5.9888 11.7926L5.98865 11.7963L5.98857 11.7981L5.98735 11.8119L5.98448 11.8454L5.97872 11.9122L5.95567 12.1797L5.90842 12.7146L5.89285 12.8909L5.72126 12.9512C5.70799 12.9559 5.70666 12.9561 5.7023 12.9574L5.69264 12.9602L5.67716 12.9639C5.65446 12.969 5.6314 12.9721 5.60819 12.9734C5.5832 12.9748 5.55814 12.9743 5.53322 12.9718C5.49065 12.9676 5.44873 12.9584 5.40828 12.9444C5.33382 12.9187 5.27486 12.8835 5.22415 12.8469C5.12363 12.7729 5.05365 12.6924 4.9927 12.6127C4.93235 12.5327 4.88292 12.4522 4.83845 12.3717C4.79422 12.2912 4.75531 12.2105 4.7197 12.1298C4.70203 12.0897 4.68502 12.0494 4.66867 12.0087L4.64478 11.9482L4.63137 11.9111L4.62022 11.8789C4.59242 11.7963 4.56708 11.713 4.54422 11.629C4.49925 11.4635 4.46172 11.2962 4.43174 11.1274C4.3716 10.7901 4.34076 10.4458 4.34641 10.0975C4.35189 9.74947 4.39562 9.39688 4.48926 9.0513L4.49216 9.04054L4.50322 9.01157L4.53155 8.93728L4.56 8.86021C4.57874 8.80867 4.59698 8.75696 4.61472 8.70507C4.64998 8.60151 4.6835 8.49796 4.71285 8.39589C4.74207 8.29426 4.76785 8.19256 4.78373 8.1017C4.79155 8.05713 4.79654 8.01388 4.79677 7.98701C4.79709 7.9744 4.79557 7.96492 4.7959 7.97295C4.79635 7.97693 4.79714 7.98611 4.80317 8.0048C4.80958 8.02328 4.82099 8.05453 4.85496 8.09551L4.81553 8.04796L4.79209 7.99333L4.79639 8.00337C4.79665 8.00401 4.79667 8.00412 4.79654 8.00397L4.79489 8.00138L4.78838 7.99112C4.78241 7.98203 4.77614 7.97313 4.76959 7.96445C4.75415 7.94396 4.7376 7.92433 4.72 7.90566C4.68295 7.8661 4.63931 7.82778 4.59142 7.79241L4.55897 7.76844L4.53082 7.7348L4.50618 7.70535L4.4864 7.68085L4.4494 7.63335C4.42584 7.60244 4.40278 7.57116 4.38023 7.5395C4.33612 7.47752 4.29365 7.41438 4.25287 7.35016C4.17224 7.22325 4.09759 7.09264 4.02916 6.95876C3.89256 6.69154 3.77963 6.41287 3.69168 6.12593C3.66966 6.05406 3.64924 5.98172 3.63045 5.90894L3.62694 5.89528L3.62519 5.88845L3.62476 5.88674C3.62138 5.87372 3.62887 5.90254 3.62793 5.89903L3.62724 5.89669L3.62061 5.87428L3.60654 5.82761L3.57723 5.73331C3.53752 5.60765 3.49524 5.48282 3.45039 5.3589C3.40575 5.23603 3.35865 5.11514 3.30854 5.00071C3.28353 4.94358 3.25763 4.88811 3.23136 4.83626C3.20524 4.7846 3.17807 4.7359 3.15307 4.69777C3.13973 4.67721 3.13352 4.66962 3.10918 4.63678L3.04806 4.5547L2.92522 4.3908C2.84346 4.28206 2.76109 4.17377 2.67813 4.06593L2.55428 3.90676C2.51322 3.85452 2.4719 3.8026 2.43234 3.75489L2.40355 3.72072L2.39019 3.70532L2.38706 3.70175L2.38552 3.70001L2.3718 3.6836L2.36908 3.68021L2.35675 3.66448C2.32979 3.62943 2.30395 3.59354 2.27927 3.55684C2.23121 3.48542 2.18664 3.41122 2.14539 3.3294C2.10439 3.24742 2.0663 3.15847 2.03729 3.05239C2.02293 2.9993 2.01103 2.94154 2.00458 2.87723C1.99825 2.81303 1.99747 2.74151 2.00876 2.6636C2.01987 2.58606 2.04453 2.5015 2.08572 2.42218C2.12646 2.34278 2.18304 2.27074 2.24382 2.21497C2.30479 2.15854 2.36854 2.11737 2.42898 2.08594L2.43183 2.08444C2.40826 2.09682 2.4406 2.07975 2.4354 2.0826L2.4515 2.07479C2.45903 2.07129 2.46662 2.06794 2.47428 2.06473C2.48604 2.05983 2.49793 2.05525 2.50994 2.051C2.52949 2.04406 2.54932 2.03791 2.56937 2.03257C2.60297 2.02361 2.63706 2.01658 2.67147 2.01151C2.79851 1.99329 2.90566 1.99919 3.00595 2.01202C3.10576 2.0254 3.19685 2.04766 3.28281 2.07417C3.45435 2.12771 3.60528 2.19831 3.74648 2.27534L3.70209 2.25378L3.78198 2.28818L3.85787 2.32201C3.90816 2.34471 3.95819 2.36798 4.00796 2.39182C4.10854 2.43985 4.20798 2.49027 4.30618 2.54301C4.40567 2.59672 4.50526 2.65369 4.60682 2.71898C4.65964 2.75282 4.71127 2.78847 4.76164 2.82587C4.81439 2.86539 4.86836 2.90859 4.92612 2.96408L4.93826 2.97573L4.95573 2.99554L4.94817 2.98697C4.9477 2.98646 4.94779 2.98656 4.94794 2.98669L4.95063 2.98922C4.95314 2.99157 4.95656 2.99459 4.9602 2.99761C4.96757 3.00373 4.97594 3.01003 4.98437 3.01562C4.99968 3.02596 5.01609 3.03459 5.03329 3.04135C5.0484 3.04709 5.0614 3.05027 5.07356 3.05169C5.08574 3.05319 5.09734 3.05306 5.11105 3.05126L5.15226 3.04587L5.18807 3.04726L5.27161 3.05051L5.35217 3.05443C5.40573 3.05726 5.45919 3.06053 5.51279 3.06421C5.61996 3.07162 5.72752 3.08072 5.83679 3.09256C5.94624 3.10455 6.05678 3.11885 6.17375 3.13998C6.23241 3.1507 6.29263 3.16305 6.35807 3.18003C6.39087 3.18861 6.42506 3.19836 6.46229 3.21088C6.49961 3.22355 6.5399 3.23848 6.58843 3.26177L6.53698 3.24055L6.57507 3.25429L6.60778 3.26656L6.67074 3.29107C6.7121 3.30749 6.75265 3.32417 6.79285 3.34115C6.87258 3.37488 6.95173 3.40997 7.03027 3.44641C7.18575 3.51859 7.33913 3.59521 7.49023 3.67617C7.7917 3.83726 8.08315 4.01514 8.36512 4.20752C8.64691 4.40009 8.91921 4.60732 9.17861 4.83071C9.30855 4.94236 9.43524 5.05773 9.55854 5.17667C9.62024 5.23626 9.68107 5.29674 9.74101 5.3581L9.78579 5.40433L9.80808 5.42757L9.80947 5.42901C9.80427 5.42383 9.82308 5.44267 9.79816 5.41777L9.80127 5.42079L9.80893 5.42828L9.82169 5.44091C9.85317 5.47238 9.88425 5.50425 9.91493 5.5365C10.0347 5.66266 10.1473 5.79016 10.2572 5.92033C10.3666 6.05023 10.4728 6.18278 10.5757 6.31784C10.7816 6.58774 10.974 6.86771 11.1521 7.15672C11.3304 7.44601 11.4945 7.74514 11.6404 8.05437C11.7864 8.36352 11.9155 8.68222 12.0209 9.01044L12.0063 8.9728C12.1118 9.2173 12.2186 9.46127 12.3267 9.7047C12.4347 9.94831 12.5431 10.1916 12.6536 10.433C12.7642 10.6741 12.876 10.915 12.991 11.1477C13.0193 11.205 13.0483 11.2619 13.078 11.3185L13.0998 11.3595L13.1052 11.3696L13.108 11.3747L13.1083 11.3753C13.1047 11.3692 13.117 11.3899 13.1002 11.3617L13.1008 11.3627L13.1022 11.365L13.1143 11.385L13.1647 11.4662C13.1977 11.519 13.2317 11.5713 13.2666 11.6229C13.2833 11.6475 13.2999 11.6713 13.3146 11.6912C13.3218 11.701 13.3286 11.7099 13.3328 11.7151C13.3346 11.7175 13.3359 11.7191 13.3345 11.7178L13.3288 11.7126C13.326 11.7102 13.3194 11.7042 13.309 11.6966L13.2744 11.6735C13.2729 11.6727 13.2751 11.674 13.276 11.6746L13.2798 11.6769L13.2885 11.682L13.3072 11.6927L13.3468 11.7145C13.3737 11.729 13.4013 11.7432 13.4292 11.757C13.4849 11.7844 13.5416 11.81 13.5991 11.8336C13.7135 11.8806 13.8295 11.9188 13.9424 11.9441L13.9781 11.9521L13.9966 11.9594L14.4852 12.1534L14.7301 12.2527L14.8542 12.3043L14.9184 12.3318L14.9531 12.3473L14.9729 12.3564L14.9992 12.3693L15.0185 12.3788L15.0332 12.3889C15.2217 12.5184 15.4098 12.6486 15.5973 12.7795C15.6912 12.845 15.7848 12.9109 15.8782 12.9776C15.9718 13.0443 16.0652 13.1113 16.1593 13.1805L16.1381 13.167L16.1955 13.2032L16.2502 13.2388C16.2864 13.2628 16.3224 13.2871 16.3581 13.3118C16.4297 13.3614 16.5006 13.4127 16.5713 13.4678C16.6421 13.5232 16.7124 13.5811 16.7842 13.6513C16.8202 13.6869 16.8567 13.7249 16.8951 13.7751C16.9143 13.8006 16.9343 13.8291 16.9547 13.8672C16.9663 13.8891 16.9763 13.9119 16.9846 13.9353C16.9939 13.9623 17.0028 13.9949 17.0064 14.0358L17.0354 14.3638L16.7123 14.3447L16.6818 14.3429L16.6488 14.3413L16.5819 14.3388L16.4469 14.3356C16.3564 14.3342 16.266 14.3344 16.1755 14.3362C15.9946 14.3399 15.8139 14.3498 15.635 14.3676C15.4562 14.3854 15.279 14.411 15.1067 14.4479C14.9345 14.4847 14.7663 14.532 14.6116 14.5975L14.5833 14.6094L14.5519 14.6155C14.5538 14.6151 14.5511 14.6155 14.5503 14.6156L14.5461 14.6161L14.5366 14.6176L14.5167 14.6212C14.5032 14.6238 14.4897 14.6269 14.4766 14.6303C14.4505 14.6372 14.4259 14.6455 14.4055 14.6543C14.3852 14.6629 14.3694 14.6725 14.3622 14.6777C14.3585 14.6803 14.3572 14.6814 14.3574 14.6801C14.3575 14.6789 14.3593 14.6748 14.3599 14.6698L14.3199 14.4838L14.3272 14.4933L14.3322 14.5L14.3408 14.5123C14.3463 14.5203 14.3514 14.528 14.3562 14.5357C14.366 14.5511 14.3749 14.5663 14.3834 14.5816C14.4001 14.6117 14.4152 14.6426 14.4289 14.6743C14.4558 14.7368 14.4768 14.8017 14.4916 14.8681L14.4696 14.8149C14.4784 14.8308 14.4897 14.8501 14.5002 14.8678L14.5329 14.9222C14.555 14.9584 14.5776 14.9943 14.6007 15.0299C14.6469 15.101 14.695 15.1706 14.7452 15.2373C14.7953 15.3039 14.8477 15.368 14.9022 15.4254C14.9295 15.454 14.9573 15.4808 14.9852 15.5045C15.0129 15.528 15.0411 15.5485 15.066 15.5622L15.0947 15.5781L15.1146 15.599C15.113 15.5972 15.1147 15.5992 15.115 15.5996L15.1175 15.6024L15.1233 15.6088L15.1364 15.6226C15.1458 15.6322 15.1554 15.6417 15.1652 15.6509C15.1856 15.6703 15.2065 15.6892 15.2279 15.7075C15.2718 15.7453 15.3169 15.7819 15.3629 15.8171C15.456 15.8884 15.5537 15.9561 15.6537 16.021C15.8539 16.1509 16.0639 16.2691 16.2775 16.3818L16.4402 16.4659C16.4949 16.4949 16.5492 16.5246 16.603 16.5551C16.7104 16.616 16.8163 16.6792 16.9199 16.7464C17.0235 16.8133 17.1252 16.8834 17.2238 16.9579C17.3224 17.0323 17.4179 17.1114 17.5065 17.1982L17.5035 17.1958C17.5348 17.2206 17.5657 17.2459 17.5961 17.2719C17.6264 17.2977 17.6562 17.3241 17.6855 17.3512C17.7149 17.3782 17.7433 17.4062 17.7708 17.4351C17.7982 17.4642 17.8247 17.4943 17.848 17.5272L17.8446 17.5245L18 17.608L17.8365 17.5415L17.8349 17.5409L17.833 17.5388C17.8074 17.5098 17.7785 17.4834 17.7489 17.458C17.7192 17.4326 17.6883 17.4085 17.6571 17.3849C17.6259 17.3613 17.5941 17.3383 17.5619 17.316C17.5299 17.2937 17.4974 17.272 17.4645 17.2509L17.4615 17.2486C17.2731 17.0993 17.0645 16.9761 16.8511 16.8641C16.7442 16.8083 16.6358 16.7552 16.5262 16.7048C16.4716 16.6797 16.4166 16.6555 16.3613 16.632L16.1923 16.5622C15.9651 16.4668 15.7412 16.3615 15.5219 16.243C15.4123 16.1835 15.3041 16.1205 15.1977 16.0516C15.1446 16.017 15.0918 15.9811 15.04 15.9423C15.0136 15.9227 14.9878 15.9025 14.9624 15.8817C14.9492 15.8709 14.9363 15.8599 14.9235 15.8486L14.9037 15.8306L14.8934 15.8208L14.8879 15.8154L14.8804 15.8077L14.9291 15.8444C14.8745 15.8195 14.829 15.7901 14.7869 15.7596C14.745 15.729 14.7068 15.6969 14.6707 15.664C14.5984 15.5982 14.5338 15.5293 14.4724 15.4589C14.4111 15.3884 14.3534 15.3163 14.2978 15.2429C14.2701 15.2062 14.2429 15.1691 14.2162 15.1316C14.2028 15.1128 14.1896 15.0939 14.1766 15.0748C14.1631 15.0552 14.1499 15.0354 14.1369 15.0154L14.1251 14.9972L14.1148 14.9622C14.1025 14.9207 14.0864 14.8803 14.0666 14.8417C14.057 14.8228 14.0464 14.8044 14.0348 14.7866C14.0294 14.7781 14.0237 14.7698 14.0177 14.7617L14.0094 14.7508L14.0056 14.7463L14.0042 14.7448C14.004 14.7446 14.0039 14.7444 14.0039 14.7444C14.004 14.7446 14.0033 14.7438 14.0051 14.746L13.9378 14.6633L13.9651 14.5601C13.9753 14.5215 13.9916 14.4848 14.0133 14.4512C14.0322 14.4221 14.0545 14.3952 14.0797 14.3713C14.1262 14.3272 14.1728 14.2982 14.2176 14.2745C14.2625 14.2511 14.3061 14.2335 14.3494 14.2188C14.3817 14.2079 14.4146 14.1986 14.4478 14.1907L14.4651 14.1869L14.4743 14.1849L14.4862 14.1828L14.4264 14.2008C14.6117 14.1083 14.8022 14.0414 14.9935 13.9885C15.185 13.936 15.3775 13.8971 15.5702 13.8668C15.7629 13.8365 15.9558 13.815 16.149 13.8001C16.2456 13.7926 16.3423 13.7869 16.4393 13.7829C16.4878 13.7809 16.5363 13.7794 16.5852 13.7786L16.6587 13.7778L16.696 13.7777L16.7357 13.7781L16.4416 14.087C16.4426 14.1008 16.4452 14.1143 16.4494 14.1274C16.4518 14.1349 16.4534 14.1382 16.4537 14.1394C16.4543 14.1414 16.4506 14.136 16.4444 14.1291C16.4318 14.1146 16.4106 14.0935 16.3868 14.0726C16.3385 14.03 16.2796 13.9853 16.2183 13.9423C16.1568 13.8991 16.0921 13.8569 16.0261 13.8159C15.993 13.7953 15.9597 13.7751 15.9262 13.7553L15.8758 13.7259L15.8273 13.6985L15.8226 13.6959L15.8061 13.6849C15.7137 13.6237 15.6188 13.5625 15.5238 13.5016L15.2374 13.3191C15.046 13.1975 14.854 13.0767 14.6616 12.9565L14.6956 12.9761L14.5999 12.9393L14.4807 12.8952L14.2373 12.8078L13.7466 12.6354L13.8008 12.6507C13.6369 12.6203 13.4824 12.5748 13.3336 12.5202C13.2222 12.4792 13.113 12.4325 13.0064 12.3802L12.9522 12.353L12.9244 12.3384L12.91 12.3306L12.8925 12.3208L12.8774 12.3124L12.8579 12.2977C12.8444 12.2876 12.8314 12.2769 12.819 12.2655L12.806 12.2534L12.7953 12.2428C12.7843 12.2316 12.7736 12.2201 12.7632 12.2083C12.7476 12.1907 12.7325 12.1727 12.7179 12.1543C12.6935 12.1236 12.6699 12.0925 12.6469 12.0608C12.6048 12.0028 12.5637 11.944 12.5237 11.8845L12.4653 11.7969L12.4506 11.7744L12.4487 11.7714L12.4476 11.7697L12.4383 11.7541L12.4348 11.7481L12.4279 11.7364L12.4011 11.6896C12.3665 11.6286 12.3327 11.5672 12.2996 11.5054C12.1689 11.262 12.0476 11.0203 11.928 10.7776C11.8089 10.5356 11.6915 10.2928 11.5758 10.0491C11.4604 9.80555 11.3461 9.56144 11.2331 9.31676L11.227 9.30336L11.2185 9.27909C11.0174 8.70265 10.735 8.14987 10.4012 7.62789C10.2342 7.3669 10.0531 7.11396 9.86175 6.86942C9.76607 6.74738 9.66744 6.62768 9.56595 6.51044C9.46473 6.39368 9.36045 6.27911 9.25512 6.17098C9.22956 6.14464 9.20368 6.11861 9.17748 6.0929L9.1685 6.08419L9.16523 6.08106L9.14763 6.06351L9.12755 6.04298L9.08718 6.00209C9.03308 5.94778 8.97818 5.89425 8.92252 5.84154C8.81094 5.73599 8.69636 5.63367 8.5789 5.53472C8.34322 5.33632 8.09716 5.15059 7.84175 4.97834C7.58611 4.80582 7.32078 4.64705 7.04915 4.50197C6.91374 4.42974 6.77628 4.3614 6.63696 4.29703C6.56808 4.26523 6.49866 4.23461 6.42874 4.20518C6.39442 4.19075 6.35995 4.17669 6.32534 4.16299L6.27475 4.14342L6.23119 4.12739L6.20113 4.11634L6.17972 4.10617C6.18212 4.10731 6.17459 4.10386 6.16345 4.10026C6.15219 4.09652 6.13723 4.09206 6.12057 4.08768C6.08702 4.07886 6.04704 4.07029 6.0051 4.06261C5.92081 4.04715 5.82841 4.03469 5.73456 4.02429C5.64049 4.0139 5.5442 4.00553 5.44733 3.99864C5.39882 3.9952 5.35028 3.99215 5.30171 3.98948L5.22905 3.98579L5.1593 3.98292L5.2363 3.97892C5.14365 3.99141 5.04978 3.99184 4.95703 3.98019C4.86564 3.96864 4.77607 3.94559 4.69046 3.91159C4.60914 3.87925 4.53164 3.83802 4.45938 3.78865C4.42394 3.76449 4.38979 3.73848 4.35707 3.71074C4.34011 3.69636 4.32358 3.6815 4.30747 3.66617C4.29878 3.65789 4.29022 3.64946 4.28182 3.64088L4.26784 3.62629L4.25988 3.6177L4.24692 3.60306L4.27651 3.63453C4.2594 3.61768 4.23254 3.59494 4.20207 3.57199C4.16896 3.54717 4.13502 3.52349 4.1003 3.501C4.02702 3.45322 3.94618 3.40599 3.86273 3.36037C3.77778 3.31412 3.69175 3.26989 3.6047 3.22771C3.56071 3.20632 3.51653 3.18532 3.47216 3.16472L3.40573 3.13434L3.34249 3.10632L3.31427 3.0938L3.29811 3.08474C3.19829 3.0287 3.09816 2.98245 3.00679 2.95312C2.96136 2.9385 2.91812 2.9281 2.88142 2.92281C2.84537 2.91722 2.81349 2.91772 2.80403 2.91913C2.80204 2.91934 2.8014 2.91951 2.80493 2.91853C2.80675 2.91799 2.80947 2.9172 2.81499 2.91523L2.82651 2.91071L2.83747 2.90583L2.84775 2.90082C2.8416 2.90416 2.87297 2.88757 2.84847 2.90046C2.84781 2.90065 2.8535 2.89768 2.86387 2.88807C2.87388 2.87879 2.88752 2.86193 2.89651 2.84368C2.9058 2.82543 2.91007 2.80768 2.91116 2.79824C2.91276 2.7782 2.90889 2.79147 2.9163 2.81845C2.92291 2.84551 2.9374 2.88464 2.95755 2.92598C2.97765 2.96751 3.00326 3.01215 3.03151 3.05539C3.04497 3.07604 3.05905 3.09629 3.07373 3.1161L3.07724 3.12077L3.06487 3.10598L3.06757 3.10911L3.07288 3.11533L3.09304 3.13921L3.13018 3.18457C3.17773 3.24359 3.22136 3.30007 3.26467 3.35671C3.30741 3.4128 3.34979 3.46916 3.39181 3.52579C3.47491 3.63775 3.55739 3.75018 3.63925 3.86306L3.76132 4.03197L3.82216 4.11668L3.85672 4.16515C3.87038 4.18486 3.88357 4.20489 3.89628 4.22522C3.94511 4.30341 3.98305 4.37634 4.01794 4.44811C4.0526 4.51978 4.08322 4.59 4.11205 4.65966C4.16945 4.79886 4.21931 4.936 4.26589 5.07303C4.31195 5.20917 4.35519 5.34625 4.39558 5.48418L4.42541 5.58784L4.44005 5.64041L4.44748 5.66771L4.45281 5.68843L4.45413 5.69413L4.45675 5.70556C4.47088 5.76654 4.48636 5.82719 4.5032 5.88747C4.5708 6.12945 4.65947 6.36504 4.76819 6.59154C4.82257 6.7047 4.88146 6.81571 4.9452 6.9226C4.97674 6.97562 5.00966 7.02779 5.04395 7.07907C5.06064 7.10402 5.07773 7.12869 5.09522 7.15308L5.12068 7.18785L5.14093 7.21445L5.08033 7.15684C5.16172 7.22101 5.23947 7.29277 5.31147 7.37468C5.34848 7.41667 5.38306 7.46074 5.41504 7.50668C5.4321 7.53128 5.44828 7.55648 5.46353 7.58223C5.4715 7.59571 5.47944 7.60972 5.48755 7.625L5.50012 7.64953L5.50703 7.66386L5.51099 7.67246L5.5177 7.68779L5.45484 7.58563C5.50727 7.64857 5.53148 7.70599 5.54713 7.7515C5.55958 7.78905 5.56832 7.82773 5.57323 7.86698C5.58126 7.93178 5.57989 7.97982 5.57762 8.02435C5.57212 8.11189 5.55944 8.18209 5.54563 8.24991C5.51731 8.38382 5.48188 8.50314 5.4442 8.62048C5.40679 8.73545 5.36637 8.84943 5.32299 8.96229C5.30166 9.01803 5.27978 9.07356 5.25737 9.12887L5.22331 9.21178L5.1873 9.29673L5.20126 9.25701C5.11569 9.53265 5.06756 9.82472 5.05052 10.1223C5.03378 10.4199 5.0483 10.7233 5.08812 11.0244C5.10811 11.1749 5.13483 11.3244 5.1682 11.4725C5.18488 11.546 5.20295 11.6197 5.2228 11.6893L5.23628 11.7351L5.25427 11.7882C5.26647 11.8234 5.27914 11.8582 5.29225 11.8925C5.34457 12.029 5.40579 12.1602 5.47513 12.2627C5.50913 12.3134 5.5464 12.3563 5.57496 12.3799C5.58883 12.3917 5.60018 12.3981 5.60192 12.3996C5.60267 12.4004 5.60102 12.4001 5.59466 12.3999C5.58983 12.3997 5.58499 12.3999 5.58018 12.4003C5.57212 12.401 5.56413 12.4023 5.55627 12.4041L5.54816 12.4062L5.54216 12.4079C5.53902 12.4089 5.53889 12.4087 5.52681 12.4129L5.33964 12.6496L5.49126 11.577C5.52643 11.3786 5.58727 11.1871 5.66869 11.0066C5.7094 10.9164 5.75543 10.8287 5.80654 10.7439C5.83238 10.7013 5.85958 10.6596 5.88812 10.6188C5.90264 10.5981 5.91756 10.5776 5.93286 10.5574L5.95686 10.5265L5.96969 10.5106L5.98553 10.4917L5.99358 10.4821L5.99822 10.4778C6.02194 10.4557 6.04746 10.4289 6.0727 10.4009C6.09857 10.372 6.12382 10.3426 6.14843 10.3127C6.17372 10.282 6.19857 10.2509 6.22297 10.2195C6.24723 10.1883 6.27109 10.1567 6.29454 10.1249L6.53842 9.79346L6.66518 10.1691C6.73331 10.3707 6.80496 10.5712 6.88011 10.7704C6.95471 10.9698 7.03327 11.1677 7.11573 11.3641C7.28141 11.7564 7.46135 12.1431 7.66165 12.5195C7.76213 12.7076 7.86658 12.8936 7.97703 13.0763C8.08756 13.259 8.204 13.4381 8.32616 13.6133C8.44859 13.7888 8.57848 13.959 8.71548 14.1233C8.78428 14.2055 8.8555 14.2857 8.92905 14.3637C9.00296 14.4413 9.07874 14.5177 9.1614 14.5868Z" fill="#0C162B" fill-opacity="0.8"/>
</svg>
