<svg width="20" height="20" viewBox="0 0 20 20" fill="none" xmlns="http://www.w3.org/2000/svg">
<path d="M16.583 5.40574L10.99 2.20974C10.5106 1.93009 9.91136 1.93009 9.39201 2.20974L3.799 5.40574C3.3196 5.68539 3 6.20474 3 6.804V13.196C3 13.7553 3.3196 14.3146 3.799 14.5943L9.39201 17.7903C9.87141 18.0699 10.4707 18.0699 10.99 17.7903L16.583 14.5943C17.0624 14.3146 17.382 13.7953 17.382 13.196V6.804C17.382 6.24469 17.0624 5.72534 16.583 5.40574ZM12.8277 13.4757C12.4682 13.4757 12.0287 13.3159 11.7491 12.9963L8.19351 8.76155V12.7166C8.19351 13.1561 7.87391 13.4757 7.43446 13.4757H7.39451C6.95506 13.4757 6.63546 13.1161 6.63546 12.7166V7.2834C6.63546 6.88389 6.99501 6.52434 7.51436 6.52434C7.91386 6.52434 8.31336 6.68414 8.59301 7.00375L12.1486 11.2385V7.2834C12.1486 6.84395 12.5081 6.52434 12.9076 6.52434H12.9476C13.387 6.52434 13.7066 6.88389 13.7066 7.2834V12.7166C13.7466 13.1561 13.3471 13.4757 12.8277 13.4757Z" fill="#0C162B" fill-opacity="0.8"/>
</svg>
