<svg width="20" height="20" viewBox="0 0 20 20" fill="none" xmlns="http://www.w3.org/2000/svg">
<path d="M16.7296 8.55C16.9296 8 16.9796 7.45 16.9296 6.9C16.8796 6.35 16.6796 5.8 16.4296 5.3C15.9796 4.55 15.3296 3.95 14.5796 3.6C13.7796 3.25 12.9296 3.15 12.0796 3.35C11.6796 2.95 11.2296 2.6 10.7296 2.35C10.2296 2.1 9.62961 2 9.07961 2C8.22961 2 7.37961 2.25 6.67961 2.75C5.97961 3.25 5.47961 3.95 5.22961 4.75C4.62961 4.9 4.12961 5.15 3.62961 5.45C3.17961 5.8 2.82961 6.25 2.52961 6.7C2.07961 7.45 1.92961 8.3 2.02961 9.15C2.12961 10 2.47961 10.8 3.02961 11.45C2.82961 12 2.77961 12.55 2.82961 13.1C2.87961 13.65 3.07961 14.2 3.32961 14.7C3.77961 15.45 4.42961 16.05 5.17961 16.4C5.97961 16.75 6.82961 16.85 7.67961 16.65C8.07961 17.05 8.52961 17.4 9.02961 17.65C9.52961 17.9 10.1296 18 10.6796 18C11.5296 18 12.3796 17.75 13.0796 17.25C13.7796 16.75 14.2796 16.05 14.5296 15.25C15.0796 15.15 15.6296 14.9 16.0796 14.55C16.5296 14.2 16.9296 13.8 17.1796 13.3C17.6296 12.55 17.7796 11.7 17.6796 10.85C17.5796 10 17.2796 9.2 16.7296 8.55ZM10.7296 16.95C9.92961 16.95 9.32961 16.7 8.77961 16.25C8.77961 16.25 8.82961 16.2 8.87961 16.2L12.0796 14.35C12.1796 14.3 12.2296 14.25 12.2796 14.15C12.3296 14.05 12.3296 14 12.3296 13.9V9.4L13.6796 10.2V13.9C13.7296 15.65 12.3296 16.95 10.7296 16.95ZM4.27961 14.2C3.92961 13.6 3.77961 12.9 3.92961 12.2C3.92961 12.2 3.97961 12.25 4.02961 12.25L7.22961 14.1C7.32961 14.15 7.37961 14.15 7.47961 14.15C7.57961 14.15 7.67961 14.15 7.72961 14.1L11.6296 11.85V13.4L8.37961 15.3C7.67961 15.7 6.87961 15.8 6.12961 15.6C5.32961 15.4 4.67961 14.9 4.27961 14.2ZM3.42961 7.25C3.77961 6.65 4.32961 6.2 4.97961 5.95V6.05V9.75C4.97961 9.85 4.97961 9.95 5.02961 10C5.07961 10.1 5.12961 10.15 5.22961 10.2L9.12961 12.45L7.77961 13.25L4.57961 11.4C3.87961 11 3.37961 10.35 3.17961 9.6C2.97961 8.85 3.02961 7.95 3.42961 7.25ZM14.4796 9.8L10.5796 7.55L11.9296 6.75L15.1296 8.6C15.6296 8.9 16.0296 9.3 16.2796 9.8C16.5296 10.3 16.6796 10.85 16.6296 11.45C16.5796 12 16.3796 12.55 16.0296 13C15.6796 13.45 15.2296 13.8 14.6796 14V10.2C14.6796 10.1 14.6796 10 14.6296 9.95C14.6296 9.95 14.5796 9.85 14.4796 9.8ZM15.8296 7.8C15.8296 7.8 15.7796 7.75 15.7296 7.75L12.5296 5.9C12.4296 5.85 12.3796 5.85 12.2796 5.85C12.1796 5.85 12.0796 5.85 12.0296 5.9L8.12961 8.15V6.6L11.3796 4.7C11.8796 4.4 12.4296 4.3 13.0296 4.3C13.5796 4.3 14.1296 4.5 14.6296 4.85C15.0796 5.2 15.4796 5.65 15.6796 6.15C15.8796 6.65 15.9296 7.25 15.8296 7.8ZM7.42961 10.6L6.07961 9.8V6.05C6.07961 5.5 6.22961 4.9 6.52961 4.45C6.82961 3.95 7.27961 3.6 7.77961 3.35C8.27961 3.1 8.87961 3 9.42961 3.1C9.97961 3.15 10.5296 3.4 10.9796 3.75C10.9796 3.75 10.9296 3.8 10.8796 3.8L7.67961 5.65C7.57961 5.7 7.52961 5.75 7.47961 5.85C7.42961 5.95 7.42961 6 7.42961 6.1V10.6ZM8.12961 9L9.87961 8L11.6296 9V11L9.87961 12L8.12961 11V9Z" fill="#0C162B" fill-opacity="0.8"/>
</svg>
