<svg width="20" height="20" viewBox="0 0 20 20" fill="none" xmlns="http://www.w3.org/2000/svg">
<path d="M5.80215 8.28248C5.80215 8.88796 5.85459 9.34088 5.95948 9.64124C6.06913 9.93683 6.24315 10.0846 6.48153 10.0846C6.71514 10.0846 6.88677 9.93683 6.99642 9.64124C7.11085 9.34565 7.16806 8.89273 7.16806 8.28248C7.16806 7.09058 6.93921 6.49464 6.48153 6.49464C6.24315 6.49464 6.06913 6.64243 5.95948 6.93802C5.85459 7.22884 5.80215 7.677 5.80215 8.28248ZM8.9702 8.26818C8.9702 8.78307 8.92014 9.24553 8.82002 9.65554C8.72467 10.0656 8.57449 10.4112 8.36949 10.6925C8.16448 10.9738 7.90465 11.1907 7.58999 11.3433C7.27533 11.4911 6.90107 11.565 6.46722 11.565C6.06198 11.565 5.70441 11.4911 5.39452 11.3433C5.08939 11.1907 4.83194 10.9738 4.62217 10.6925C4.41716 10.4112 4.26222 10.0656 4.15733 9.65554C4.05244 9.24553 4 8.78307 4 8.26818C4 7.75328 4.04768 7.29321 4.14303 6.88796C4.23838 6.48272 4.38617 6.14184 4.58641 5.86532C4.79142 5.58403 5.04887 5.36949 5.35876 5.22169C5.66865 5.0739 6.03814 5 6.46722 5C6.87723 5 7.23719 5.0739 7.54708 5.22169C7.86174 5.36949 8.12396 5.58403 8.33373 5.86532C8.5435 6.14184 8.70083 6.48272 8.80572 6.88796C8.91538 7.29321 8.9702 7.75328 8.9702 8.26818ZM13.7402 5.15018L7.94041 15.6055H6.23123L12.031 5.15018H13.7402ZM12.8319 12.4589C12.8319 13.0644 12.8844 13.5173 12.9893 13.8176C13.0989 14.1132 13.2729 14.261 13.5113 14.261C13.7449 14.261 13.9166 14.1132 14.0262 13.8176C14.1406 13.522 14.1979 13.0691 14.1979 12.4589C14.1979 11.267 13.969 10.671 13.5113 10.671C13.2729 10.671 13.0989 10.8188 12.9893 11.1144C12.8844 11.4052 12.8319 11.8534 12.8319 12.4589ZM16 12.4446C16 12.9595 15.9499 13.4219 15.8498 13.8319C15.7545 14.2372 15.6043 14.5805 15.3993 14.8617C15.1943 15.143 14.9344 15.36 14.6198 15.5125C14.3051 15.6603 13.9309 15.7342 13.497 15.7342C13.0918 15.7342 12.7366 15.6603 12.4315 15.5125C12.1263 15.36 11.8689 15.143 11.6591 14.8617C11.4541 14.5805 11.2992 14.2372 11.1943 13.8319C11.0894 13.4219 11.0369 12.9595 11.0369 12.4446C11.0369 11.9297 11.0846 11.4696 11.18 11.0644C11.2753 10.6591 11.4231 10.3182 11.6234 10.0417C11.8236 9.76043 12.0787 9.54589 12.3886 9.39809C12.6985 9.2503 13.0679 9.1764 13.497 9.1764C13.907 9.1764 14.267 9.2503 14.5769 9.39809C14.8915 9.54589 15.1538 9.76043 15.3635 10.0417C15.5733 10.3182 15.7306 10.6591 15.8355 11.0644C15.9452 11.4696 16 11.9297 16 12.4446Z" fill="#0C162B" fill-opacity="0.8"/>
</svg>
