<svg width="20" height="20" viewBox="0 0 20 20" fill="none" xmlns="http://www.w3.org/2000/svg">
<path d="M4.96875 7.58594C4.96875 8.2474 5.02604 8.74219 5.14062 9.07031C5.26042 9.39323 5.45052 9.55469 5.71094 9.55469C5.96615 9.55469 6.15365 9.39323 6.27344 9.07031C6.39844 8.7474 6.46094 8.2526 6.46094 7.58594C6.46094 6.28385 6.21094 5.63281 5.71094 5.63281C5.45052 5.63281 5.26042 5.79427 5.14062 6.11719C5.02604 6.4349 4.96875 6.92448 4.96875 7.58594ZM8.42969 7.57031C8.42969 8.13281 8.375 8.63802 8.26562 9.08594C8.16146 9.53385 7.9974 9.91146 7.77344 10.2188C7.54948 10.526 7.26562 10.763 6.92188 10.9297C6.57812 11.0911 6.16927 11.1719 5.69531 11.1719C5.2526 11.1719 4.86198 11.0911 4.52344 10.9297C4.1901 10.763 3.90885 10.526 3.67969 10.2188C3.45573 9.91146 3.28646 9.53385 3.17188 9.08594C3.05729 8.63802 3 8.13281 3 7.57031C3 7.00781 3.05208 6.50521 3.15625 6.0625C3.26042 5.61979 3.42188 5.2474 3.64062 4.94531C3.86458 4.63802 4.14583 4.40365 4.48438 4.24219C4.82292 4.08073 5.22656 4 5.69531 4C6.14323 4 6.53646 4.08073 6.875 4.24219C7.21875 4.40365 7.50521 4.63802 7.73438 4.94531C7.96354 5.2474 8.13542 5.61979 8.25 6.0625C8.36979 6.50521 8.42969 7.00781 8.42969 7.57031ZM13.6406 4.16406L7.30469 15.5859H5.4375L11.7734 4.16406H13.6406ZM12.6484 12.1484C12.6484 12.8099 12.7057 13.3047 12.8203 13.6328C12.9401 13.9557 13.1302 14.1172 13.3906 14.1172C13.6458 14.1172 13.8333 13.9557 13.9531 13.6328C14.0781 13.3099 14.1406 12.8151 14.1406 12.1484C14.1406 10.8464 13.8906 10.1953 13.3906 10.1953C13.1302 10.1953 12.9401 10.3568 12.8203 10.6797C12.7057 10.9974 12.6484 11.487 12.6484 12.1484ZM16.1094 12.1328C16.1094 12.6953 16.0547 13.2005 15.9453 13.6484C15.8411 14.0911 15.6771 14.4661 15.4531 14.7734C15.2292 15.0807 14.9453 15.3177 14.6016 15.4844C14.2578 15.6458 13.849 15.7266 13.375 15.7266C12.9323 15.7266 12.5443 15.6458 12.2109 15.4844C11.8776 15.3177 11.5964 15.0807 11.3672 14.7734C11.1432 14.4661 10.974 14.0911 10.8594 13.6484C10.7448 13.2005 10.6875 12.6953 10.6875 12.1328C10.6875 11.5703 10.7396 11.0677 10.8438 10.625C10.9479 10.1823 11.1094 9.8099 11.3281 9.50781C11.5469 9.20052 11.8255 8.96615 12.1641 8.80469C12.5026 8.64323 12.9062 8.5625 13.375 8.5625C13.8229 8.5625 14.2161 8.64323 14.5547 8.80469C14.8984 8.96615 15.1849 9.20052 15.4141 9.50781C15.6432 9.8099 15.8151 10.1823 15.9297 10.625C16.0495 11.0677 16.1094 11.5703 16.1094 12.1328Z" fill="#0C162B" fill-opacity="0.8"/>
</svg>
