<svg width="20" height="20" viewBox="0 0 20 20" fill="none" xmlns="http://www.w3.org/2000/svg">
<path d="M17 9.99999V4.16667C17 3.52234 16.4777 3 15.8333 3H4.16667C3.52234 3 3 3.52234 3 4.16667V15.8333C3 16.4777 3.52234 17 4.16667 17H9.99999" stroke="#0C162B" stroke-opacity="0.8" stroke-linecap="round" stroke-linejoin="round"/>
<path d="M13.1111 15.4444C14.3998 15.4444 15.4444 14.3998 15.4444 13.1111C15.4444 11.8224 14.3998 10.7778 13.1111 10.7778C11.8224 10.7778 10.7778 11.8224 10.7778 13.1111C10.7778 14.3998 11.8224 15.4444 13.1111 15.4444Z" stroke="#0C162B" stroke-opacity="0.8"/>
<path d="M15.0555 14.6666L17 16.2222" stroke="#0C162B" stroke-opacity="0.8" stroke-linecap="round" stroke-linejoin="round"/>
<path d="M6.11108 6.88889H13.8889" stroke="#0C162B" stroke-opacity="0.8" stroke-linecap="round" stroke-linejoin="round"/>
<path d="M6.11108 9.99999H9.22219" stroke="#0C162B" stroke-opacity="0.8" stroke-linecap="round" stroke-linejoin="round"/>
</svg>
