<svg width="20" height="20" viewBox="0 0 20 20" fill="none" xmlns="http://www.w3.org/2000/svg">
<path d="M17.5 10V3.75C17.5 3.05965 16.9404 2.5 16.25 2.5H3.75C3.05965 2.5 2.5 3.05965 2.5 3.75V16.25C2.5 16.9404 3.05965 17.5 3.75 17.5H10" stroke="#0C162B" stroke-opacity="0.8" stroke-linecap="round" stroke-linejoin="round"/>
<path d="M13.3333 15.8333C14.714 15.8333 15.8333 14.714 15.8333 13.3333C15.8333 11.9526 14.714 10.8333 13.3333 10.8333C11.9526 10.8333 10.8333 11.9526 10.8333 13.3333C10.8333 14.714 11.9526 15.8333 13.3333 15.8333Z" stroke="#0C162B" stroke-opacity="0.8"/>
<path d="M15.4167 15L17.5 16.6667" stroke="#0C162B" stroke-opacity="0.8" stroke-linecap="round" stroke-linejoin="round"/>
<path d="M5.83331 6.66667H14.1666" stroke="#0C162B" stroke-opacity="0.8" stroke-linecap="round" stroke-linejoin="round"/>
<path d="M5.83331 10H9.16665" stroke="#0C162B" stroke-opacity="0.8" stroke-linecap="round" stroke-linejoin="round"/>
</svg>
