<svg width="20" height="20" viewBox="0 0 20 20" fill="none" xmlns="http://www.w3.org/2000/svg">
<path d="M11.6359 14.6197C11.6359 14.723 11.5947 14.8122 11.5124 14.8873C11.43 14.9624 11.3322 15 11.219 15H9.27344C9.16021 15 9.06242 14.9624 8.98007 14.8873C8.89772 14.8122 8.85654 14.723 8.85654 14.6197V13.1972C8.85654 13.0939 8.89772 13.0047 8.98007 12.9296C9.06242 12.8545 9.16021 12.8169 9.27344 12.8169H11.219C11.3322 12.8169 11.43 12.8545 11.5124 12.9296C11.5947 13.0047 11.6359 13.0939 11.6359 13.1972V14.6197ZM10.2925 5C10.869 5 11.4094 5.07512 11.9138 5.22535C12.4285 5.3662 12.8711 5.56808 13.2417 5.83099C13.6226 6.08451 13.9211 6.38967 14.1373 6.74648C14.3535 7.0939 14.4615 7.47887 14.4615 7.90141C14.4615 8.23944 14.3998 8.53521 14.2762 8.78873C14.1527 9.04225 13.9932 9.2723 13.7976 9.47887C13.6123 9.68545 13.4064 9.87324 13.18 10.0423C12.9535 10.2019 12.7322 10.3615 12.516 10.5211C12.3101 10.6808 12.1197 10.8498 11.9447 11.0282C11.78 11.1972 11.6668 11.385 11.605 11.5915C11.5741 11.6948 11.5226 11.784 11.4506 11.8592C11.3888 11.9343 11.3013 11.9718 11.1881 11.9718H9.30432C9.19109 11.9718 9.0933 11.9343 9.01095 11.8592C8.9286 11.784 8.88742 11.6948 8.88742 11.5915C8.88742 11.2817 8.95433 11.0047 9.08815 10.7606C9.23227 10.5164 9.40726 10.2958 9.61314 10.0986C9.81902 9.89202 10.0403 9.70423 10.2771 9.53521C10.5241 9.3662 10.7506 9.20657 10.9565 9.05634C11.1624 8.89671 11.3322 8.73709 11.466 8.57747C11.6101 8.41784 11.6822 8.24413 11.6822 8.05634C11.6822 7.78404 11.569 7.57277 11.3425 7.42254C11.116 7.26291 10.766 7.1831 10.2925 7.1831C9.82931 7.1831 9.49476 7.24883 9.28888 7.38028C9.0933 7.50235 8.94919 7.6385 8.85654 7.78873C8.7639 7.93897 8.68155 8.07981 8.60949 8.21127C8.54773 8.33333 8.41905 8.39437 8.22347 8.39437H6.3397C6.24705 8.39437 6.1647 8.3662 6.09264 8.30986C6.03088 8.25352 6 8.1784 6 8.08451C6.01029 7.75587 6.11323 7.41315 6.30882 7.05634C6.5044 6.69014 6.78233 6.35681 7.14262 6.05634C7.51319 5.74648 7.96098 5.49296 8.48596 5.29578C9.01095 5.09859 9.61314 5 10.2925 5Z" fill="#0C162B" fill-opacity="0.8"/>
</svg>
