<svg width="20" height="20" viewBox="0 0 20 20" fill="none" xmlns="http://www.w3.org/2000/svg">
<path d="M8.19998 9.98117V5.8C8.19998 4.80589 9.00587 4 9.99998 4C10.9941 4 11.8 4.80589 11.8 5.8V6.40171" stroke="#0C162B" stroke-opacity="0.8" stroke-linecap="round"/>
<path d="M11.8 10.001V14.2C11.8 15.1941 10.9941 16 9.99998 16C9.00587 16 8.19998 15.1941 8.19998 14.2V13.591" stroke="#0C162B" stroke-opacity="0.8" stroke-linecap="round"/>
<path d="M10 11.8H5.79525C4.80376 11.8 4 10.9941 4 10C4 9.0059 4.80376 8.20001 5.79525 8.20001H6.39658" stroke="#0C162B" stroke-opacity="0.8" stroke-linecap="round"/>
<path d="M10 8.20001H14.1966C15.1926 8.20001 16 9.0059 16 10C16 10.9941 15.1926 11.8 14.1966 11.8H13.6199" stroke="#0C162B" stroke-opacity="0.8" stroke-linecap="round"/>
</svg>
