<svg width="20" height="20" viewBox="0 0 20 20" fill="none" xmlns="http://www.w3.org/2000/svg">
<path d="M7.66666 9.64573V5C7.66666 3.89543 8.56209 3 9.66666 3C10.7712 3 11.6667 3.89543 11.6667 5V5.66857" stroke="#0C162B" stroke-opacity="0.8" stroke-linecap="round"/>
<path d="M11.6667 9.6678V14.3333C11.6667 15.4379 10.7712 16.3333 9.66666 16.3333C8.56209 16.3333 7.66666 15.4379 7.66666 14.3333V13.6566" stroke="#0C162B" stroke-opacity="0.8" stroke-linecap="round"/>
<path d="M9.66667 11.6667H4.99472C3.89306 11.6667 3 10.7712 3 9.66667C3 8.56211 3.89306 7.66667 4.99472 7.66667H5.66287" stroke="#0C162B" stroke-opacity="0.8" stroke-linecap="round"/>
<path d="M9.66666 7.66667H14.3296C15.4362 7.66667 16.3333 8.56211 16.3333 9.66667C16.3333 10.7712 15.4362 11.6667 14.3296 11.6667H13.6888" stroke="#0C162B" stroke-opacity="0.8" stroke-linecap="round"/>
</svg>
