<svg width="20" height="20" viewBox="0 0 20 20" fill="none" xmlns="http://www.w3.org/2000/svg">
<path d="M7.99933 16.4569C6.82644 16.1077 5.78243 15.4594 4.95575 14.6004C5.26415 14.2349 5.45 13.7626 5.45 13.2469C5.45 12.0871 4.5098 11.1469 3.35 11.1469C3.27984 11.1469 3.21049 11.1504 3.1421 11.1571C3.04893 10.7016 3 10.23 3 9.74694C3 9.01523 3.11227 8.30974 3.32053 7.64673C3.33033 7.64687 3.34016 7.64694 3.35 7.64694C4.5098 7.64694 5.45 6.70674 5.45 5.54694C5.45 5.21399 5.37251 4.89913 5.23461 4.61944C6.04412 3.86672 7.03217 3.30341 8.12823 3C8.47554 3.68077 9.18334 4.14695 10 4.14695C10.8167 4.14695 11.5245 3.68077 11.8718 3C12.9678 3.30341 13.9559 3.86672 14.7654 4.61944C14.6275 4.89913 14.55 5.21399 14.55 5.54694C14.55 6.70674 15.4902 7.64694 16.65 7.64694C16.6598 7.64694 16.6697 7.64687 16.6795 7.64673C16.8877 8.30974 17 9.01523 17 9.74694C17 10.23 16.9511 10.7016 16.8579 11.1571C16.7895 11.1504 16.7202 11.1469 16.65 11.1469C15.4902 11.1469 14.55 12.0871 14.55 13.2469C14.55 13.7626 14.7359 14.2349 15.0442 14.6004C14.2176 15.4594 13.1736 16.1077 12.0007 16.4569C11.73 15.6101 10.9366 14.9969 10 14.9969C9.0634 14.9969 8.27002 15.6101 7.99933 16.4569Z" stroke="#0C162B" stroke-opacity="0.8" stroke-linejoin="round"/>
<path d="M10 12.1969C11.3531 12.1969 12.45 11.1 12.45 9.74694C12.45 8.39384 11.3531 7.29694 10 7.29694C8.64692 7.29694 7.55002 8.39384 7.55002 9.74694C7.55002 11.1 8.64692 12.1969 10 12.1969Z" stroke="#0C162B" stroke-opacity="0.8" stroke-linejoin="round"/>
</svg>
