<svg width="20" height="20" viewBox="0 0 20 20" fill="none" xmlns="http://www.w3.org/2000/svg">
<path d="M14.5 6.88889C15.5739 6.88889 16.4444 6.01832 16.4444 4.94444C16.4444 3.87056 15.5739 3 14.5 3C13.4261 3 12.5556 3.87056 12.5556 4.94444C12.5556 6.01832 13.4261 6.88889 14.5 6.88889Z" stroke="#0C162B" stroke-opacity="0.8" stroke-linejoin="round"/>
<path d="M5.94444 11.9444C7.01832 11.9444 7.88889 11.0739 7.88889 9.99999C7.88889 8.92611 7.01832 8.05554 5.94444 8.05554C4.87057 8.05554 4 8.92611 4 9.99999C4 11.0739 4.87057 11.9444 5.94444 11.9444Z" stroke="#0C162B" stroke-opacity="0.8" stroke-linejoin="round"/>
<path d="M12.5555 5.94562L7.63176 8.92874" stroke="#0C162B" stroke-opacity="0.8" stroke-linecap="round" stroke-linejoin="round"/>
<path d="M7.63176 10.9971L12.8197 14.0627" stroke="#0C162B" stroke-opacity="0.8" stroke-linecap="round" stroke-linejoin="round"/>
<path d="M14.5 13.1111C15.5739 13.1111 16.4444 13.9817 16.4444 15.0556C16.4444 16.1294 15.5739 17 14.5 17C13.4261 17 12.5556 16.1294 12.5556 15.0556C12.5556 13.9817 13.4261 13.1111 14.5 13.1111Z" stroke="#0C162B" stroke-opacity="0.8" stroke-linejoin="round"/>
</svg>
