<svg width="20" height="20" viewBox="0 0 20 20" fill="none" xmlns="http://www.w3.org/2000/svg">
<path d="M14.5833 6.66667C15.7339 6.66667 16.6667 5.73392 16.6667 4.58333C16.6667 3.43274 15.7339 2.5 14.5833 2.5C13.4327 2.5 12.5 3.43274 12.5 4.58333C12.5 5.73392 13.4327 6.66667 14.5833 6.66667Z" stroke="#0C162B" stroke-opacity="0.8" stroke-linejoin="round"/>
<path d="M5.41666 12.0833C6.56724 12.0833 7.49999 11.1506 7.49999 9.99999C7.49999 8.84941 6.56724 7.91666 5.41666 7.91666C4.26608 7.91666 3.33333 8.84941 3.33333 9.99999C3.33333 11.1506 4.26608 12.0833 5.41666 12.0833Z" stroke="#0C162B" stroke-opacity="0.8" stroke-linejoin="round"/>
<path d="M12.5 5.65604L7.2245 8.85224" stroke="#0C162B" stroke-opacity="0.8" stroke-linecap="round" stroke-linejoin="round"/>
<path d="M7.2245 11.0683L12.783 14.3529" stroke="#0C162B" stroke-opacity="0.8" stroke-linecap="round" stroke-linejoin="round"/>
<path d="M14.5833 13.3333C15.7339 13.3333 16.6667 14.2661 16.6667 15.4167C16.6667 16.5673 15.7339 17.5 14.5833 17.5C13.4327 17.5 12.5 16.5673 12.5 15.4167C12.5 14.2661 13.4327 13.3333 14.5833 13.3333Z" stroke="#0C162B" stroke-opacity="0.8" stroke-linejoin="round"/>
</svg>
