<svg width="20" height="20" viewBox="0 0 20 20" fill="none" xmlns="http://www.w3.org/2000/svg">
<g clip-path="url(#clip0_303_60)">
<path fill-rule="evenodd" clip-rule="evenodd" d="M7.8546 2C6.97191 2.00065 6.25753 2.71698 6.25819 3.59967C6.25753 4.48236 6.97256 5.1987 7.85525 5.19935H9.45232V3.60033C9.45297 2.71764 8.73794 2.0013 7.8546 2C7.85525 2 7.85525 2 7.8546 2V2ZM7.8546 6.26667H3.59707C2.71437 6.26732 1.99935 6.98365 2 7.86634C1.9987 8.74903 2.71372 9.46536 3.59641 9.46667H7.8546C8.73729 9.46601 9.45231 8.74968 9.45166 7.86699C9.45231 6.98365 8.73729 6.26732 7.8546 6.26667Z" fill="#0C162B" fill-opacity="0.8"/>
<path fill-rule="evenodd" clip-rule="evenodd" d="M17.968 7.86634C17.9687 6.98365 17.2536 6.26732 16.371 6.26667C15.4883 6.26732 14.7732 6.98365 14.7739 7.86634V9.46667H16.371C17.2536 9.46601 17.9687 8.74968 17.968 7.86634ZM13.7098 7.86634V3.59967C13.7105 2.71764 12.9961 2.0013 12.1134 2C11.2307 2.00065 10.5157 2.71698 10.5164 3.59967V7.86634C10.5151 8.74903 11.2301 9.46536 12.1128 9.46667C12.9955 9.46601 13.7105 8.74968 13.7098 7.86634Z" fill="#0C162B" fill-opacity="0.8"/>
<path fill-rule="evenodd" clip-rule="evenodd" d="M12.1128 18C12.9955 17.9993 13.7105 17.283 13.7098 16.4003C13.7105 15.5176 12.9955 14.8013 12.1128 14.8006H10.5157V16.4003C10.5151 17.2823 11.2301 17.9987 12.1128 18ZM12.1128 13.7327H16.371C17.2537 13.732 17.9687 13.0157 17.968 12.133C17.9693 11.2503 17.2543 10.534 16.3716 10.5327H12.1134C11.2307 10.5333 10.5157 11.2496 10.5164 12.1323C10.5157 13.0157 11.2301 13.732 12.1128 13.7327Z" fill="#0C162B" fill-opacity="0.8"/>
<path fill-rule="evenodd" clip-rule="evenodd" d="M2 12.133C1.99935 13.0157 2.71437 13.732 3.59706 13.7327C4.47976 13.732 5.19478 13.0157 5.19413 12.133V10.5333H3.59706C2.71437 10.534 1.99935 11.2503 2 12.133ZM6.25819 12.133V16.3997C6.25688 17.2824 6.97191 17.9987 7.8546 18C8.73729 17.9993 9.45231 17.283 9.45166 16.4003V12.1343C9.45297 11.2516 8.73794 10.5353 7.85525 10.534C6.97191 10.534 6.25753 11.2503 6.25819 12.133C6.25819 12.1337 6.25819 12.133 6.25819 12.133Z" fill="#0C162B" fill-opacity="0.8"/>
</g>
<defs>
<clipPath id="clip0_303_60">
<rect width="15.968" height="16" fill="white" transform="translate(2 2)"/>
</clipPath>
</defs>
</svg>
