<svg width="20" height="20" viewBox="0 0 20 20" fill="none" xmlns="http://www.w3.org/2000/svg">
<path d="M9.3 4.4V8.6C9.3 9.37318 7.88971 10 6.15 10C4.4103 10 3 9.37318 3 8.6V4.4" stroke="#0C162B" stroke-opacity="0.8" stroke-linecap="round" stroke-linejoin="round"/>
<path d="M9.3 6.5C9.3 7.27318 7.88971 7.9 6.15 7.9C4.4103 7.9 3 7.27318 3 6.5" stroke="#0C162B" stroke-opacity="0.8" stroke-linecap="round" stroke-linejoin="round"/>
<path d="M9.3 4.4C9.3 5.17318 7.88971 5.8 6.15 5.8C4.4103 5.8 3 5.17318 3 4.4C3 3.6268 4.4103 3 6.15 3C7.88971 3 9.3 3.6268 9.3 4.4Z" stroke="#0C162B" stroke-opacity="0.8" stroke-linecap="round" stroke-linejoin="round"/>
<path d="M12.8 3.7H14.9C15.6732 3.7 16.3 4.3268 16.3 5.1V7.2" stroke="#0C162B" stroke-opacity="0.8" stroke-linecap="round" stroke-linejoin="round"/>
<path d="M7.2 16.3H5.1C4.32681 16.3 3.7 15.6732 3.7 14.9V12.8" stroke="#0C162B" stroke-opacity="0.8" stroke-linecap="round" stroke-linejoin="round"/>
<path d="M13.85 13.5C14.8165 13.5 15.6 12.7165 15.6 11.75C15.6 10.7835 14.8165 10 13.85 10C12.8835 10 12.1 10.7835 12.1 11.75C12.1 12.7165 12.8835 13.5 13.85 13.5Z" stroke="#0C162B" stroke-opacity="0.8" stroke-linecap="round" stroke-linejoin="round"/>
<path d="M17 17H10.7C10.7 15.2603 12.1103 13.85 13.85 13.85C15.5897 13.85 17 15.2603 17 17Z" stroke="#0C162B" stroke-opacity="0.8" stroke-linecap="round" stroke-linejoin="round"/>
</svg>
