<svg width="20" height="20" viewBox="0 0 20 20" fill="none" xmlns="http://www.w3.org/2000/svg">
<path d="M9.16666 3.33333V8.33333C9.16666 9.25379 7.48775 10 5.41666 10C3.3456 10 1.66666 9.25379 1.66666 8.33333V3.33333" stroke="#0C162B" stroke-opacity="0.8" stroke-linecap="round" stroke-linejoin="round"/>
<path d="M9.16666 5.83333C9.16666 6.75379 7.48775 7.5 5.41666 7.5C3.3456 7.5 1.66666 6.75379 1.66666 5.83333" stroke="#0C162B" stroke-opacity="0.8" stroke-linecap="round" stroke-linejoin="round"/>
<path d="M9.16666 3.33333C9.16666 4.25379 7.48775 5 5.41666 5C3.3456 5 1.66666 4.25379 1.66666 3.33333C1.66666 2.41286 3.3456 1.66667 5.41666 1.66667C7.48775 1.66667 9.16666 2.41286 9.16666 3.33333Z" stroke="#0C162B" stroke-opacity="0.8" stroke-linecap="round" stroke-linejoin="round"/>
<path d="M13.3333 2.5H15.8333C16.7538 2.5 17.5 3.24619 17.5 4.16667V6.66667" stroke="#0C162B" stroke-opacity="0.8" stroke-linecap="round" stroke-linejoin="round"/>
<path d="M6.66667 17.5H4.16667C3.24619 17.5 2.5 16.7538 2.5 15.8333V13.3333" stroke="#0C162B" stroke-opacity="0.8" stroke-linecap="round" stroke-linejoin="round"/>
<path d="M14.5833 14.1667C15.7339 14.1667 16.6667 13.2339 16.6667 12.0833C16.6667 10.9327 15.7339 10 14.5833 10C13.4327 10 12.5 10.9327 12.5 12.0833C12.5 13.2339 13.4327 14.1667 14.5833 14.1667Z" stroke="#0C162B" stroke-opacity="0.8" stroke-linecap="round" stroke-linejoin="round"/>
<path d="M18.3333 18.3333H10.8333C10.8333 16.2622 12.5123 14.5833 14.5833 14.5833C16.6544 14.5833 18.3333 16.2622 18.3333 18.3333Z" stroke="#0C162B" stroke-opacity="0.8" stroke-linecap="round" stroke-linejoin="round"/>
</svg>
