<svg width="20" height="20" viewBox="0 0 20 20" fill="none" xmlns="http://www.w3.org/2000/svg">
<path fill-rule="evenodd" clip-rule="evenodd" d="M14.9497 14.9497C17.6834 12.2161 17.6834 7.78394 14.9497 5.05025C12.2161 2.31658 7.78394 2.31658 5.05025 5.05025C2.31658 7.78394 2.31658 12.2161 5.05025 14.9497C7.78394 17.6834 12.2161 17.6834 14.9497 14.9497ZM12.9699 7.03015C14.6101 8.67035 14.6101 11.3297 12.9699 12.9699C11.3297 14.6101 8.67035 14.6101 7.03015 12.9699C5.38994 11.3297 5.38994 8.67035 7.03015 7.03015C8.67035 5.38994 11.3297 5.38994 12.9699 7.03015Z" stroke="#0C162B" stroke-opacity="0.8" stroke-linecap="round" stroke-linejoin="round"/>
<path d="M14.9498 14.9498L12.9698 12.9698" stroke="#0C162B" stroke-opacity="0.8" stroke-linecap="round" stroke-linejoin="round"/>
<path d="M5.05026 14.9498L7.03018 12.9698" stroke="#0C162B" stroke-opacity="0.8" stroke-linecap="round" stroke-linejoin="round"/>
<path d="M5.05026 5.05026L7.03018 7.03018" stroke="#0C162B" stroke-opacity="0.8" stroke-linecap="round" stroke-linejoin="round"/>
<path d="M14.9498 5.05026L12.9698 7.03018" stroke="#0C162B" stroke-opacity="0.8" stroke-linecap="round" stroke-linejoin="round"/>
<path d="M12.9699 12.9699C14.6101 11.3297 14.6101 8.67038 12.9699 7.03017C11.3297 5.38997 8.67038 5.38997 7.03017 7.03017C5.38997 8.67038 5.38997 11.3297 7.03017 12.9699C8.67038 14.6101 11.3297 14.6101 12.9699 12.9699Z" stroke="#0C162B" stroke-opacity="0.8" stroke-linecap="round" stroke-linejoin="round"/>
</svg>
