<svg width="20" height="20" viewBox="0 0 20 20" fill="none" xmlns="http://www.w3.org/2000/svg">
<path fill-rule="evenodd" clip-rule="evenodd" d="M15.8925 15.8925C19.1469 12.6382 19.1469 7.36182 15.8925 4.10743C12.6382 0.853065 7.36182 0.853065 4.10743 4.10743C0.853065 7.36182 0.853065 12.6382 4.10743 15.8925C7.36182 19.1469 12.6382 19.1469 15.8925 15.8925ZM13.5355 6.46445C15.4882 8.41707 15.4882 11.5829 13.5355 13.5355C11.5829 15.4882 8.41707 15.4882 6.46445 13.5355C4.51182 11.5829 4.51182 8.41707 6.46445 6.46445C8.41707 4.51182 11.5829 4.51182 13.5355 6.46445Z" stroke="#0C162B" stroke-opacity="0.8" stroke-linecap="round" stroke-linejoin="round"/>
<path d="M15.8925 15.8925L13.5355 13.5355" stroke="#0C162B" stroke-opacity="0.8" stroke-linecap="round" stroke-linejoin="round"/>
<path d="M4.10745 15.8925L6.46449 13.5355" stroke="#0C162B" stroke-opacity="0.8" stroke-linecap="round" stroke-linejoin="round"/>
<path d="M4.10745 4.10745L6.46449 6.46449" stroke="#0C162B" stroke-opacity="0.8" stroke-linecap="round" stroke-linejoin="round"/>
<path d="M15.8925 4.10745L13.5355 6.46449" stroke="#0C162B" stroke-opacity="0.8" stroke-linecap="round" stroke-linejoin="round"/>
<path d="M13.5356 13.5356C15.4882 11.5829 15.4882 8.41709 13.5356 6.46447C11.5829 4.51184 8.41709 4.51184 6.46447 6.46447C4.51184 8.41709 4.51184 11.5829 6.46447 13.5356C8.41709 15.4882 11.5829 15.4882 13.5356 13.5356Z" stroke="#0C162B" stroke-opacity="0.8" stroke-linecap="round" stroke-linejoin="round"/>
</svg>
