<svg width="20" height="20" viewBox="0 0 20 20" fill="none" xmlns="http://www.w3.org/2000/svg">
<path fill-rule="evenodd" clip-rule="evenodd" d="M12.0669 5.18306C11.8229 4.93898 11.4271 4.93898 11.1831 5.18306C10.939 5.42714 10.939 5.82286 11.1831 6.06694L13.1161 8H5.625C5.27982 8 5 8.27982 5 8.625C5 8.97018 5.27982 9.25 5.625 9.25H14.625C14.7097 9.25 14.7906 9.23313 14.8642 9.20258C14.9363 9.17277 15.0039 9.12891 15.0628 9.071C15.0656 9.06831 15.0683 9.06559 15.071 9.06284C15.1289 9.00388 15.1728 8.93628 15.2026 8.86424C15.2331 8.79055 15.25 8.70974 15.25 8.625C15.25 8.54026 15.2331 8.45945 15.2026 8.38576C15.1728 8.31372 15.1289 8.24612 15.071 8.18716M12.0669 5.18306L15.0666 8.18269L12.0669 5.18306Z" fill="#0C162B" fill-opacity="0.8"/>
<path fill-rule="evenodd" clip-rule="evenodd" d="M5.38807 10.5465C5.31349 10.577 5.24361 10.6225 5.18306 10.6831C5.12163 10.7445 5.07567 10.8155 5.04516 10.8913C5.01872 10.9569 5.00307 11.0279 5.00041 11.1023C4.99986 11.1174 4.99986 11.1326 5.00041 11.1477C5.00307 11.2221 5.01872 11.2931 5.04516 11.3587C5.07567 11.4345 5.12163 11.5055 5.18306 11.5669L8.18307 14.5669C8.42715 14.811 8.82288 14.811 9.06696 14.5669C9.31103 14.3229 9.31103 13.9271 9.06695 13.6831L7.13389 11.75H14.625C14.9702 11.75 15.25 11.4702 15.25 11.125C15.25 10.7798 14.9702 10.5 14.625 10.5H5.62501C5.54114 10.5 5.46114 10.5165 5.38807 10.5465Z" fill="#0C162B" fill-opacity="0.8"/>
</svg>
