<svg width="20" height="20" viewBox="0 0 20 20" fill="none" xmlns="http://www.w3.org/2000/svg">
<path d="M7.03184 16.0081C13.0699 16.0081 16.3718 11.004 16.3718 6.66465C16.3718 6.52254 16.3689 6.38107 16.3625 6.2402C17.005 5.77513 17.5595 5.1993 18 4.53971C17.4118 4.8013 16.7789 4.97737 16.1149 5.05675C16.7926 4.65021 17.3129 4.00706 17.5584 3.24042C16.914 3.62283 16.2091 3.8924 15.4739 4.03753C14.8749 3.39922 14.0221 3 13.0778 3C11.2649 3 9.79489 4.47063 9.79489 6.28341C9.79489 6.54114 9.82374 6.79174 9.88006 7.0322C7.15177 6.89486 4.73252 5.58813 3.11343 3.60117C2.82182 4.10232 2.66843 4.67189 2.66894 5.25171C2.66894 6.39102 3.24846 7.39678 4.12976 7.9852C3.60846 7.96928 3.0986 7.82842 2.64306 7.57447C2.64257 7.58826 2.64257 7.60169 2.64257 7.61642C2.64257 9.20676 3.77408 10.5346 5.27613 10.8355C4.99402 10.9123 4.70292 10.9512 4.41054 10.951C4.19938 10.951 3.99359 10.9302 3.79359 10.8918C4.21151 12.1966 5.42335 13.1461 6.86013 13.1726C5.73659 14.0536 4.32127 14.5783 2.78302 14.5783C2.52135 14.5785 2.25989 14.5633 2 14.5328C3.45281 15.4644 5.17789 16.0079 7.032 16.0079" fill="#0C162B" fill-opacity="0.8"/>
</svg>
