<svg width="20" height="20" viewBox="0 0 20 20" fill="none" xmlns="http://www.w3.org/2000/svg">
<path d="M10 12.3333V10" stroke="#010E29" stroke-linecap="round" stroke-linejoin="round"/>
<path d="M3 12.3333H10H17V17H3V12.3333Z" stroke="#010E29" stroke-linecap="round" stroke-linejoin="round"/>
<path d="M3 5.52777V5.13889" stroke="#010E29" stroke-linecap="round" stroke-linejoin="round"/>
<path d="M3 7.66666V7.27777" stroke="#010E29" stroke-linecap="round" stroke-linejoin="round"/>
<path d="M3 3.38889V3" stroke="#010E29" stroke-linecap="round" stroke-linejoin="round"/>
<path d="M17 5.52777V5.13889" stroke="#010E29" stroke-linecap="round" stroke-linejoin="round"/>
<path d="M17 7.66666V7.27777" stroke="#010E29" stroke-linecap="round" stroke-linejoin="round"/>
<path d="M17 3.38889V3" stroke="#010E29" stroke-linecap="round" stroke-linejoin="round"/>
<path d="M17 7.66666H16.6111" stroke="#010E29" stroke-linecap="round" stroke-linejoin="round"/>
<path d="M3.38889 7.66666H3" stroke="#010E29" stroke-linecap="round" stroke-linejoin="round"/>
<path d="M3.38889 3H3" stroke="#010E29" stroke-linecap="round" stroke-linejoin="round"/>
<path d="M6.11112 3H5.72223" stroke="#010E29" stroke-linecap="round" stroke-linejoin="round"/>
<path d="M8.83335 3H8.44446" stroke="#010E29" stroke-linecap="round" stroke-linejoin="round"/>
<path d="M8.83335 7.66666H8.44446" stroke="#010E29" stroke-linecap="round" stroke-linejoin="round"/>
<path d="M11.5555 3H11.1667" stroke="#010E29" stroke-linecap="round" stroke-linejoin="round"/>
<path d="M6.11112 7.66666H5.72223" stroke="#010E29" stroke-linecap="round" stroke-linejoin="round"/>
<path d="M11.5555 7.66666H11.1667" stroke="#010E29" stroke-linecap="round" stroke-linejoin="round"/>
<path d="M14.2778 3H13.8889" stroke="#010E29" stroke-linecap="round" stroke-linejoin="round"/>
<path d="M14.2778 7.66666H13.8889" stroke="#010E29" stroke-linecap="round" stroke-linejoin="round"/>
<path d="M17 3H16.6111" stroke="#010E29" stroke-linecap="round" stroke-linejoin="round"/>
</svg>
