<svg width="20" height="20" viewBox="0 0 20 20" fill="none" xmlns="http://www.w3.org/2000/svg">
<path d="M5.7053 8.32378C4.15389 8.69274 3 10.0875 3 11.7519C3 13.6979 4.57756 15.2754 6.52358 15.2754C6.8574 15.2754 7.18037 15.229 7.48639 15.1423" stroke="#0C162B" stroke-opacity="0.8" stroke-linecap="round" stroke-linejoin="round"/>
<path d="M14.2947 8.32378C15.8461 8.69274 17 10.0875 17 11.7519C17 13.6979 15.4225 15.2754 13.4764 15.2754C13.1426 15.2754 12.8196 15.229 12.5136 15.1423" stroke="#0C162B" stroke-opacity="0.8" stroke-linecap="round" stroke-linejoin="round"/>
<path d="M14.2754 8.22829C14.2754 5.89308 12.3824 4 10.0471 4C7.71192 4 5.81885 5.89308 5.81885 8.22829" stroke="#0C162B" stroke-opacity="0.8" stroke-linecap="round" stroke-linejoin="round"/>
<path d="M7.6037 11.0052L10.0471 8.55373L12.5601 11.0472" stroke="#0C162B" stroke-opacity="0.8" stroke-linecap="round" stroke-linejoin="round"/>
<path d="M10.0471 14.5707V9.80044" stroke="#0C162B" stroke-opacity="0.8" stroke-linecap="round" stroke-linejoin="round"/>
</svg>
