<svg width="20" height="20" viewBox="0 0 20 20" fill="none" xmlns="http://www.w3.org/2000/svg">
<g clip-path="url(#clip0_122_16)">
<path fill-rule="evenodd" clip-rule="evenodd" d="M7.49255 4.98704L13.2436 1.66667L15.1655 4.99538L7.49255 4.98704Z" stroke="#0C162B" stroke-opacity="0.8" stroke-linecap="round" stroke-linejoin="round"/>
<path d="M1.66666 5.83333C1.66666 5.37308 2.03975 5 2.49999 5H17.5C17.9602 5 18.3333 5.37308 18.3333 5.83333V17.5C18.3333 17.9602 17.9602 18.3333 17.5 18.3333H2.49999C2.03975 18.3333 1.66666 17.9602 1.66666 17.5V5.83333Z" stroke="#0C162B" stroke-opacity="0.8" stroke-linejoin="round"/>
<path d="M14.6875 13.75H18.3333V9.58333H14.6875C13.4794 9.58333 12.5 10.5161 12.5 11.6667C12.5 12.8172 13.4794 13.75 14.6875 13.75Z" stroke="#0C162B" stroke-opacity="0.8" stroke-linejoin="round"/>
<path d="M18.3333 6.875V16.875" stroke="#0C162B" stroke-opacity="0.8" stroke-linecap="round"/>
</g>
<defs>
<clipPath id="clip0_122_16">
<rect width="20" height="20" fill="white"/>
</clipPath>
</defs>
</svg>
