<svg width="20" height="20" viewBox="0 0 20 20" fill="none" xmlns="http://www.w3.org/2000/svg">
<path fill-rule="evenodd" clip-rule="evenodd" d="M7.89374 5.78911L12.7246 3L14.339 5.79611L7.89374 5.78911Z" stroke="#0C162B" stroke-opacity="0.8" stroke-linecap="round" stroke-linejoin="round"/>
<path d="M3 6.49999C3 6.11339 3.3134 5.8 3.7 5.8H16.3C16.6866 5.8 17 6.11339 17 6.49999V16.3C17 16.6866 16.6866 17 16.3 17H3.7C3.3134 17 3 16.6866 3 16.3V6.49999Z" stroke="#0C162B" stroke-opacity="0.8" stroke-linejoin="round"/>
<path d="M13.9375 13.15H17V9.64999H13.9375C12.9227 9.64999 12.1 10.4335 12.1 11.4C12.1 12.3665 12.9227 13.15 13.9375 13.15Z" stroke="#0C162B" stroke-opacity="0.8" stroke-linejoin="round"/>
<path d="M17 7.37499V15.775" stroke="#0C162B" stroke-opacity="0.8" stroke-linecap="round"/>
</svg>
