<svg width="20" height="20" viewBox="0 0 20 20" fill="none" xmlns="http://www.w3.org/2000/svg">
<path d="M12.8311 7.90207C13.0152 7.90207 13.1968 7.91554 13.3766 7.93508C12.8867 5.67764 10.4473 4 7.6631 4C4.55012 4 2 6.09977 2 8.76586C2 10.3046 2.84859 11.5683 4.26611 12.5485L3.6998 14.2347L5.67929 13.2521C6.38805 13.3906 6.95607 13.5335 7.6631 13.5335C7.84072 13.5335 8.01659 13.5248 8.19162 13.5109C8.08087 13.1366 8.01659 12.744 8.01659 12.337C8.01661 9.88895 10.1411 7.90207 12.8311 7.90207ZM9.78676 6.38251C10.2132 6.38251 10.4955 6.66044 10.4955 7.08214C10.4955 7.5021 10.2132 7.78351 9.78676 7.78351C9.36201 7.78351 8.93642 7.5021 8.93642 7.08214C8.93642 6.66044 9.36203 6.38251 9.78676 6.38251ZM5.82346 7.78349C5.39872 7.78349 4.97051 7.50208 4.97051 7.08213C4.97051 6.66043 5.39872 6.38249 5.82346 6.38249C6.24774 6.38249 6.53047 6.66043 6.53047 7.08213C6.53047 7.5021 6.24774 7.78349 5.82346 7.78349ZM18 12.2697C18 10.0292 15.7343 8.20303 13.1898 8.20303C10.4955 8.20303 8.37359 10.0292 8.37359 12.2697C8.37359 14.5135 10.4955 16.3357 13.1898 16.3357C13.7535 16.3357 14.3225 16.1959 14.8887 16.0552L16.4422 16.8968L16.0162 15.4967C17.1532 14.6524 18 13.5335 18 12.2697ZM11.6281 11.5683C11.3463 11.5683 11.0618 11.2908 11.0618 11.0077C11.0618 10.7284 11.3463 10.4474 11.6281 10.4474C12.0563 10.4474 12.3369 10.7284 12.3369 11.0077C12.3369 11.2908 12.0563 11.5683 11.6281 11.5683ZM14.7428 11.5683C14.4632 11.5683 14.1804 11.2908 14.1804 11.0077C14.1804 10.7284 14.4632 10.4474 14.7428 10.4474C15.1676 10.4474 15.4516 10.7284 15.4516 11.0077C15.4516 11.2908 15.1676 11.5683 14.7428 11.5683Z" fill="#0C162B" fill-opacity="0.8"/>
</svg>
