<svg width="20" height="20" viewBox="0 0 20 20" fill="none" xmlns="http://www.w3.org/2000/svg">
<path d="M13.2651 7.79265V2.47067C13.2651 2.47067 10.6608 1.07456 7.62073 2.15103L13.2651 7.79265ZM13.7581 10.9236V2.69042C13.7581 2.69042 16.8368 4.08562 17.7044 7.47486L13.7581 10.9236ZM12.1019 13.3167L17.7853 7.97196C17.7853 7.97196 18.7909 9.6069 17.2913 13.3167H12.1019ZM9.1998 13.9943H16.8759C16.8759 13.9943 15.9492 16.5059 12.6326 17.5429L9.1998 13.9943ZM6.69408 12.2988V17.3023C6.69408 17.3023 8.68767 18.579 12.1019 17.7218L6.69408 12.2988ZM2.25333 12.5576L6.14152 9.0689V17.0026C6.14152 17.0026 3.79245 16.1872 2.25333 12.5576ZM2.1548 11.9996C2.1548 11.9996 1.26538 9.12974 2.50938 6.63719H7.85725L2.1548 11.9996ZM2.84537 6.07783C2.84537 6.07783 3.97043 3.52716 7.02916 2.33037L10.6794 6.07783H2.84537Z" fill="#0C162B" fill-opacity="0.8"/>
</svg>
