<svg width="20" height="20" viewBox="0 0 20 20" fill="none" xmlns="http://www.w3.org/2000/svg">
<path d="M13.2651 7.79261V2.47064C13.2651 2.47064 10.6608 1.07453 7.62073 2.151L13.2651 7.79261ZM13.7581 10.9235V2.69039C13.7581 2.69039 16.8368 4.08559 17.7044 7.47483L13.7581 10.9235ZM12.1019 13.3166L17.7853 7.97193C17.7853 7.97193 18.7909 9.60686 17.2913 13.3166H12.1019ZM9.1998 13.9943H16.8759C16.8759 13.9943 15.9492 16.5059 12.6326 17.5429L9.1998 13.9943ZM6.69408 12.2987V17.3022C6.69408 17.3022 8.68767 18.5789 12.1019 17.7217L6.69408 12.2987ZM2.25333 12.5575L6.14152 9.06887V17.0026C6.14152 17.0026 3.79245 16.1872 2.25333 12.5575ZM2.1548 11.9995C2.1548 11.9995 1.26538 9.12971 2.50938 6.63716H7.85725L2.1548 11.9995ZM2.84537 6.0778C2.84537 6.0778 3.97043 3.52713 7.02916 2.33034L10.6794 6.0778H2.84537Z" fill="#0C162B" fill-opacity="0.8"/>
</svg>
