<svg width="20" height="20" viewBox="0 0 20 20" fill="none" xmlns="http://www.w3.org/2000/svg">
<path fill-rule="evenodd" clip-rule="evenodd" d="M17.6657 5.72077C18 6.94843 18 9.50962 18 9.50962C18 9.50962 18 12.0708 17.6657 13.2985C17.5725 13.6341 17.3927 13.9394 17.1444 14.1837C16.8961 14.428 16.588 14.6027 16.2509 14.6905C15.0033 15.0192 9.99977 15.0192 9.99977 15.0192C9.99977 15.0192 4.99672 15.0192 3.74909 14.6905C3.412 14.6027 3.10387 14.428 2.85558 14.1837C2.60728 13.9394 2.42752 13.6341 2.33431 13.2985C2 12.0708 2 9.50962 2 9.50962C2 9.50962 2 6.94843 2.33431 5.72077C2.42755 5.3852 2.60733 5.08003 2.85562 4.8358C3.10392 4.59158 3.41203 4.41688 3.74909 4.3292C4.99672 4 9.99977 4 9.99977 4C9.99977 4 15.0033 4 16.2509 4.3292C16.588 4.41688 16.8961 4.59158 17.1444 4.8358C17.3927 5.08003 17.5724 5.3852 17.6657 5.72077ZM8.39972 11.8712L12.5568 9.50962L8.39972 7.14855V11.8707V11.8712Z" fill="#0C162B" fill-opacity="0.8"/>
</svg>
