<svg width="20" height="20" viewBox="0 0 20 20" fill="none" xmlns="http://www.w3.org/2000/svg">
<path d="M11.1125 4.00004V16.2005H12.3902L12.9269 17.721L15.1928 16.2005H17.9932V4.00004H11.1125ZM16.3875 14.5841H15.1118L13.5125 15.6574L13.1334 14.5841H12.7501V5.66538H16.3853V14.5841H16.3875ZM10.2904 9.46884H7.46233C7.50706 8.51265 7.55391 7.24767 7.60289 5.78677H10.3905L10.3884 5.61427C10.3884 5.6015 10.3841 5.30122 10.3394 4.99456C10.2947 4.67512 10.1989 4.25133 9.8922 4.25133H5.21561C5.30931 3.81264 5.54996 2.76701 5.84171 2.25377L5.97801 2.01526L5.70329 2.00035C5.68625 2.00035 5.28589 1.98118 4.82164 2.22609C4.06137 2.63071 3.72064 3.42718 3.57156 4.02347C3.17972 5.5802 2.62176 6.66203 2.38538 7.12416C2.3151 7.26045 2.27251 7.34138 2.25334 7.39675C2.21501 7.5011 2.23631 7.60545 2.31297 7.67359C2.53658 7.87591 3.12648 7.61184 3.13287 7.60971C3.14565 7.60332 3.16055 7.59693 3.17972 7.58841C3.47573 7.45425 4.35313 7.05601 4.66618 5.7889H5.87366C5.88856 6.47463 5.93967 8.73626 5.93542 9.47097H2.93269L2.88796 9.50292C2.39603 9.86282 2.23844 10.8488 2.23205 10.8914L2.20223 11.0873H5.75866C5.49672 12.7548 5.19432 13.5023 5.0346 13.8004C4.9558 13.9495 4.87914 14.0986 4.80673 14.2434C4.35313 15.1421 3.88249 16.0706 2.11705 17.5145C2.04039 17.5741 1.96798 17.6848 2.01483 17.8062C2.06594 17.9404 2.21288 18 2.53871 18C2.65371 18 2.79 17.9936 2.95185 17.9787C4.01452 17.885 5.09848 17.5954 5.82894 16.1132C6.19097 15.3657 6.50402 14.5863 6.76383 13.7941L9.67072 17.2014L9.7772 16.9459C9.79424 16.9054 10.1818 15.9598 9.88581 14.9036L9.87517 14.8652L7.57307 12.2458L7.10456 12.5993C7.24086 12.0435 7.3303 11.5367 7.37076 11.0852H10.7504V10.9148C10.7504 10.0609 10.3565 9.55403 10.3415 9.53273L10.2904 9.46884Z" fill="#0C162B" fill-opacity="0.8"/>
</svg>
